M48
; DRILL file {KiCad 5.1.5} date Mo 13 Jan 2020 19:24:41 CET
; FORMAT={-:-/ absolute / inch / decimal}
; #@! TF.CreationDate,2020-01-13T19:24:41+01:00
; #@! TF.GenerationSoftware,Kicad,Pcbnew,5.1.5
; #@! TF.FileFunction,Plated,1,2,PTH
FMAT,2
INCH
T1C0.0157
T2C0.0315
T3C0.0394
%
G90
G05
T1
X2.85Y-2.35
X2.85Y-2.45
X2.85Y-2.55
X2.85Y-2.75
X3.05Y-2.98
X3.6Y-2.35
X3.6Y-2.55
X3.6Y-2.65
T2
X3.09Y-3.54
X3.09Y-3.64
X3.09Y-3.74
X3.39Y-3.54
X3.39Y-3.64
X3.39Y-3.74
T3
X2.7Y-3.69
X2.8Y-3.69
X2.7Y-3.05
X2.7Y-3.15
X2.7Y-3.25
X2.7Y-3.35
X2.7Y-3.45
X2.8Y-3.05
X2.8Y-3.15
X2.8Y-3.25
X2.8Y-3.35
X2.8Y-3.45
X3.18Y-3.21
X3.28Y-3.21
X3.38Y-3.21
X3.48Y-3.21
X3.58Y-3.21
X3.68Y-3.21
X3.74Y-3.64
X3.74Y-3.74
T0
M30
