G04 #@! TF.GenerationSoftware,KiCad,Pcbnew,5.1.5*
G04 #@! TF.CreationDate,2020-03-08T11:02:30+01:00*
G04 #@! TF.ProjectId,Flash-Station,466c6173-682d-4537-9461-74696f6e2e6b,rev?*
G04 #@! TF.SameCoordinates,Original*
G04 #@! TF.FileFunction,Legend,Top*
G04 #@! TF.FilePolarity,Positive*
%FSLAX46Y46*%
G04 Gerber Fmt 4.6, Leading zero omitted, Abs format (unit mm)*
G04 Created by KiCad (PCBNEW 5.1.5) date 2020-03-08 11:02:30*
%MOMM*%
%LPD*%
G04 APERTURE LIST*
%ADD10C,0.120000*%
%ADD11C,0.150000*%
G04 APERTURE END LIST*
D10*
X82169000Y-74168000D02*
X82169000Y-80137000D01*
D11*
X93072000Y-79048976D02*
X93033904Y-79125166D01*
X93033904Y-79239452D01*
X93072000Y-79353738D01*
X93148190Y-79429928D01*
X93224380Y-79468023D01*
X93376761Y-79506119D01*
X93491047Y-79506119D01*
X93643428Y-79468023D01*
X93719619Y-79429928D01*
X93795809Y-79353738D01*
X93833904Y-79239452D01*
X93833904Y-79163261D01*
X93795809Y-79048976D01*
X93757714Y-79010880D01*
X93491047Y-79010880D01*
X93491047Y-79163261D01*
X93833904Y-78668023D02*
X93033904Y-78668023D01*
X93833904Y-78210880D01*
X93033904Y-78210880D01*
X93833904Y-77829928D02*
X93033904Y-77829928D01*
X93033904Y-77639452D01*
X93072000Y-77525166D01*
X93148190Y-77448976D01*
X93224380Y-77410880D01*
X93376761Y-77372785D01*
X93491047Y-77372785D01*
X93643428Y-77410880D01*
X93719619Y-77448976D01*
X93795809Y-77525166D01*
X93833904Y-77639452D01*
X93833904Y-77829928D01*
X87953904Y-79582309D02*
X88753904Y-79315642D01*
X87953904Y-79048976D01*
X88677714Y-78325166D02*
X88715809Y-78363261D01*
X88753904Y-78477547D01*
X88753904Y-78553738D01*
X88715809Y-78668023D01*
X88639619Y-78744214D01*
X88563428Y-78782309D01*
X88411047Y-78820404D01*
X88296761Y-78820404D01*
X88144380Y-78782309D01*
X88068190Y-78744214D01*
X87992000Y-78668023D01*
X87953904Y-78553738D01*
X87953904Y-78477547D01*
X87992000Y-78363261D01*
X88030095Y-78325166D01*
X88677714Y-77525166D02*
X88715809Y-77563261D01*
X88753904Y-77677547D01*
X88753904Y-77753738D01*
X88715809Y-77868023D01*
X88639619Y-77944214D01*
X88563428Y-77982309D01*
X88411047Y-78020404D01*
X88296761Y-78020404D01*
X88144380Y-77982309D01*
X88068190Y-77944214D01*
X87992000Y-77868023D01*
X87953904Y-77753738D01*
X87953904Y-77677547D01*
X87992000Y-77563261D01*
X88030095Y-77525166D01*
X85413904Y-79582309D02*
X85413904Y-79125166D01*
X86213904Y-79353738D02*
X85413904Y-79353738D01*
X85413904Y-78934690D02*
X86213904Y-78401357D01*
X85413904Y-78401357D02*
X86213904Y-78934690D01*
X86213904Y-78096595D02*
X85413904Y-78096595D01*
X85413904Y-77906119D01*
X85452000Y-77791833D01*
X85528190Y-77715642D01*
X85604380Y-77677547D01*
X85756761Y-77639452D01*
X85871047Y-77639452D01*
X86023428Y-77677547D01*
X86099619Y-77715642D01*
X86175809Y-77791833D01*
X86213904Y-77906119D01*
X86213904Y-78096595D01*
X83673904Y-79010880D02*
X83292952Y-79277547D01*
X83673904Y-79468023D02*
X82873904Y-79468023D01*
X82873904Y-79163261D01*
X82912000Y-79087071D01*
X82950095Y-79048976D01*
X83026285Y-79010880D01*
X83140571Y-79010880D01*
X83216761Y-79048976D01*
X83254857Y-79087071D01*
X83292952Y-79163261D01*
X83292952Y-79468023D01*
X82873904Y-78744214D02*
X83673904Y-78210880D01*
X82873904Y-78210880D02*
X83673904Y-78744214D01*
X83673904Y-77906119D02*
X82873904Y-77906119D01*
X82873904Y-77715642D01*
X82912000Y-77601357D01*
X82988190Y-77525166D01*
X83064380Y-77487071D01*
X83216761Y-77448976D01*
X83331047Y-77448976D01*
X83483428Y-77487071D01*
X83559619Y-77525166D01*
X83635809Y-77601357D01*
X83673904Y-77715642D01*
X83673904Y-77906119D01*
X81133904Y-79010880D02*
X80752952Y-79277547D01*
X81133904Y-79468023D02*
X80333904Y-79468023D01*
X80333904Y-79163261D01*
X80372000Y-79087071D01*
X80410095Y-79048976D01*
X80486285Y-79010880D01*
X80600571Y-79010880D01*
X80676761Y-79048976D01*
X80714857Y-79087071D01*
X80752952Y-79163261D01*
X80752952Y-79468023D01*
X80714857Y-78668023D02*
X80714857Y-78401357D01*
X81133904Y-78287071D02*
X81133904Y-78668023D01*
X80333904Y-78668023D01*
X80333904Y-78287071D01*
X81095809Y-77982309D02*
X81133904Y-77868023D01*
X81133904Y-77677547D01*
X81095809Y-77601357D01*
X81057714Y-77563261D01*
X80981523Y-77525166D01*
X80905333Y-77525166D01*
X80829142Y-77563261D01*
X80791047Y-77601357D01*
X80752952Y-77677547D01*
X80714857Y-77829928D01*
X80676761Y-77906119D01*
X80638666Y-77944214D01*
X80562476Y-77982309D01*
X80486285Y-77982309D01*
X80410095Y-77944214D01*
X80372000Y-77906119D01*
X80333904Y-77829928D01*
X80333904Y-77639452D01*
X80372000Y-77525166D01*
X80714857Y-77182309D02*
X80714857Y-76915642D01*
X81133904Y-76801357D02*
X81133904Y-77182309D01*
X80333904Y-77182309D01*
X80333904Y-76801357D01*
X80333904Y-76572785D02*
X80333904Y-76115642D01*
X81133904Y-76344214D02*
X80333904Y-76344214D01*
X71558095Y-95701500D02*
X71558095Y-96134833D01*
X71253333Y-95901500D01*
X71253333Y-96001500D01*
X71215238Y-96068166D01*
X71177142Y-96101500D01*
X71100952Y-96134833D01*
X70910476Y-96134833D01*
X70834285Y-96101500D01*
X70796190Y-96068166D01*
X70758095Y-96001500D01*
X70758095Y-95801500D01*
X70796190Y-95734833D01*
X70834285Y-95701500D01*
X70834285Y-96434833D02*
X70796190Y-96468166D01*
X70758095Y-96434833D01*
X70796190Y-96401500D01*
X70834285Y-96434833D01*
X70758095Y-96434833D01*
X71558095Y-96701500D02*
X71558095Y-97134833D01*
X71253333Y-96901500D01*
X71253333Y-97001500D01*
X71215238Y-97068166D01*
X71177142Y-97101500D01*
X71100952Y-97134833D01*
X70910476Y-97134833D01*
X70834285Y-97101500D01*
X70796190Y-97068166D01*
X70758095Y-97001500D01*
X70758095Y-96801500D01*
X70796190Y-96734833D01*
X70834285Y-96701500D01*
X71558095Y-97334833D02*
X70758095Y-97568166D01*
X71558095Y-97801500D01*
X68980000Y-96134833D02*
X69018095Y-96068166D01*
X69018095Y-95968166D01*
X68980000Y-95868166D01*
X68903809Y-95801500D01*
X68827619Y-95768166D01*
X68675238Y-95734833D01*
X68560952Y-95734833D01*
X68408571Y-95768166D01*
X68332380Y-95801500D01*
X68256190Y-95868166D01*
X68218095Y-95968166D01*
X68218095Y-96034833D01*
X68256190Y-96134833D01*
X68294285Y-96168166D01*
X68560952Y-96168166D01*
X68560952Y-96034833D01*
X68218095Y-96468166D02*
X69018095Y-96468166D01*
X68218095Y-96868166D01*
X69018095Y-96868166D01*
X68218095Y-97201500D02*
X69018095Y-97201500D01*
X69018095Y-97368166D01*
X68980000Y-97468166D01*
X68903809Y-97534833D01*
X68827619Y-97568166D01*
X68675238Y-97601500D01*
X68560952Y-97601500D01*
X68408571Y-97568166D01*
X68332380Y-97534833D01*
X68256190Y-97468166D01*
X68218095Y-97368166D01*
X68218095Y-97201500D01*
X93408666Y-87273380D02*
X93742000Y-88273380D01*
X94075333Y-87273380D01*
X94980095Y-88178142D02*
X94932476Y-88225761D01*
X94789619Y-88273380D01*
X94694380Y-88273380D01*
X94551523Y-88225761D01*
X94456285Y-88130523D01*
X94408666Y-88035285D01*
X94361047Y-87844809D01*
X94361047Y-87701952D01*
X94408666Y-87511476D01*
X94456285Y-87416238D01*
X94551523Y-87321000D01*
X94694380Y-87273380D01*
X94789619Y-87273380D01*
X94932476Y-87321000D01*
X94980095Y-87368619D01*
X95980095Y-88178142D02*
X95932476Y-88225761D01*
X95789619Y-88273380D01*
X95694380Y-88273380D01*
X95551523Y-88225761D01*
X95456285Y-88130523D01*
X95408666Y-88035285D01*
X95361047Y-87844809D01*
X95361047Y-87701952D01*
X95408666Y-87511476D01*
X95456285Y-87416238D01*
X95551523Y-87321000D01*
X95694380Y-87273380D01*
X95789619Y-87273380D01*
X95932476Y-87321000D01*
X95980095Y-87368619D01*
X92575333Y-88923380D02*
X92575333Y-89637666D01*
X92527714Y-89780523D01*
X92432476Y-89875761D01*
X92289619Y-89923380D01*
X92194380Y-89923380D01*
X93480095Y-89256714D02*
X93480095Y-89923380D01*
X93051523Y-89256714D02*
X93051523Y-89780523D01*
X93099142Y-89875761D01*
X93194380Y-89923380D01*
X93337238Y-89923380D01*
X93432476Y-89875761D01*
X93480095Y-89828142D01*
X93956285Y-89923380D02*
X93956285Y-89256714D01*
X93956285Y-89351952D02*
X94003904Y-89304333D01*
X94099142Y-89256714D01*
X94242000Y-89256714D01*
X94337238Y-89304333D01*
X94384857Y-89399571D01*
X94384857Y-89923380D01*
X94384857Y-89399571D02*
X94432476Y-89304333D01*
X94527714Y-89256714D01*
X94670571Y-89256714D01*
X94765809Y-89304333D01*
X94813428Y-89399571D01*
X94813428Y-89923380D01*
X95289619Y-89256714D02*
X95289619Y-90256714D01*
X95289619Y-89304333D02*
X95384857Y-89256714D01*
X95575333Y-89256714D01*
X95670571Y-89304333D01*
X95718190Y-89351952D01*
X95765809Y-89447190D01*
X95765809Y-89732904D01*
X95718190Y-89828142D01*
X95670571Y-89875761D01*
X95575333Y-89923380D01*
X95384857Y-89923380D01*
X95289619Y-89875761D01*
X96575333Y-89875761D02*
X96480095Y-89923380D01*
X96289619Y-89923380D01*
X96194380Y-89875761D01*
X96146761Y-89780523D01*
X96146761Y-89399571D01*
X96194380Y-89304333D01*
X96289619Y-89256714D01*
X96480095Y-89256714D01*
X96575333Y-89304333D01*
X96622952Y-89399571D01*
X96622952Y-89494809D01*
X96146761Y-89590047D01*
X97051523Y-89923380D02*
X97051523Y-89256714D01*
X97051523Y-89447190D02*
X97099142Y-89351952D01*
X97146761Y-89304333D01*
X97242000Y-89256714D01*
X97337238Y-89256714D01*
X72931976Y-87991904D02*
X72931976Y-87191904D01*
X73198642Y-87763333D01*
X73465309Y-87191904D01*
X73465309Y-87991904D01*
X73998642Y-87191904D02*
X74151023Y-87191904D01*
X74227214Y-87230000D01*
X74303404Y-87306190D01*
X74341500Y-87458571D01*
X74341500Y-87725238D01*
X74303404Y-87877619D01*
X74227214Y-87953809D01*
X74151023Y-87991904D01*
X73998642Y-87991904D01*
X73922452Y-87953809D01*
X73846261Y-87877619D01*
X73808166Y-87725238D01*
X73808166Y-87458571D01*
X73846261Y-87306190D01*
X73922452Y-87230000D01*
X73998642Y-87191904D01*
X74646261Y-87953809D02*
X74760547Y-87991904D01*
X74951023Y-87991904D01*
X75027214Y-87953809D01*
X75065309Y-87915714D01*
X75103404Y-87839523D01*
X75103404Y-87763333D01*
X75065309Y-87687142D01*
X75027214Y-87649047D01*
X74951023Y-87610952D01*
X74798642Y-87572857D01*
X74722452Y-87534761D01*
X74684357Y-87496666D01*
X74646261Y-87420476D01*
X74646261Y-87344285D01*
X74684357Y-87268095D01*
X74722452Y-87230000D01*
X74798642Y-87191904D01*
X74989119Y-87191904D01*
X75103404Y-87230000D01*
X75446261Y-87991904D02*
X75446261Y-87191904D01*
X72893880Y-80333809D02*
X73008166Y-80371904D01*
X73198642Y-80371904D01*
X73274833Y-80333809D01*
X73312928Y-80295714D01*
X73351023Y-80219523D01*
X73351023Y-80143333D01*
X73312928Y-80067142D01*
X73274833Y-80029047D01*
X73198642Y-79990952D01*
X73046261Y-79952857D01*
X72970071Y-79914761D01*
X72931976Y-79876666D01*
X72893880Y-79800476D01*
X72893880Y-79724285D01*
X72931976Y-79648095D01*
X72970071Y-79610000D01*
X73046261Y-79571904D01*
X73236738Y-79571904D01*
X73351023Y-79610000D01*
X74151023Y-80295714D02*
X74112928Y-80333809D01*
X73998642Y-80371904D01*
X73922452Y-80371904D01*
X73808166Y-80333809D01*
X73731976Y-80257619D01*
X73693880Y-80181428D01*
X73655785Y-80029047D01*
X73655785Y-79914761D01*
X73693880Y-79762380D01*
X73731976Y-79686190D01*
X73808166Y-79610000D01*
X73922452Y-79571904D01*
X73998642Y-79571904D01*
X74112928Y-79610000D01*
X74151023Y-79648095D01*
X74493880Y-80371904D02*
X74493880Y-79571904D01*
X74951023Y-80371904D02*
X74608166Y-79914761D01*
X74951023Y-79571904D02*
X74493880Y-80029047D01*
X74405119Y-82911904D02*
X74138452Y-82530952D01*
X73947976Y-82911904D02*
X73947976Y-82111904D01*
X74252738Y-82111904D01*
X74328928Y-82150000D01*
X74367023Y-82188095D01*
X74405119Y-82264285D01*
X74405119Y-82378571D01*
X74367023Y-82454761D01*
X74328928Y-82492857D01*
X74252738Y-82530952D01*
X73947976Y-82530952D01*
X74709880Y-82873809D02*
X74824166Y-82911904D01*
X75014642Y-82911904D01*
X75090833Y-82873809D01*
X75128928Y-82835714D01*
X75167023Y-82759523D01*
X75167023Y-82683333D01*
X75128928Y-82607142D01*
X75090833Y-82569047D01*
X75014642Y-82530952D01*
X74862261Y-82492857D01*
X74786071Y-82454761D01*
X74747976Y-82416666D01*
X74709880Y-82340476D01*
X74709880Y-82264285D01*
X74747976Y-82188095D01*
X74786071Y-82150000D01*
X74862261Y-82111904D01*
X75052738Y-82111904D01*
X75167023Y-82150000D01*
X75395595Y-82111904D02*
X75852738Y-82111904D01*
X75624166Y-82911904D02*
X75624166Y-82111904D01*
X72931976Y-77831904D02*
X72931976Y-77031904D01*
X73198642Y-77603333D01*
X73465309Y-77031904D01*
X73465309Y-77831904D01*
X73846261Y-77831904D02*
X73846261Y-77031904D01*
X74189119Y-77793809D02*
X74303404Y-77831904D01*
X74493880Y-77831904D01*
X74570071Y-77793809D01*
X74608166Y-77755714D01*
X74646261Y-77679523D01*
X74646261Y-77603333D01*
X74608166Y-77527142D01*
X74570071Y-77489047D01*
X74493880Y-77450952D01*
X74341500Y-77412857D01*
X74265309Y-77374761D01*
X74227214Y-77336666D01*
X74189119Y-77260476D01*
X74189119Y-77184285D01*
X74227214Y-77108095D01*
X74265309Y-77070000D01*
X74341500Y-77031904D01*
X74531976Y-77031904D01*
X74646261Y-77070000D01*
X75141500Y-77031904D02*
X75293880Y-77031904D01*
X75370071Y-77070000D01*
X75446261Y-77146190D01*
X75484357Y-77298571D01*
X75484357Y-77565238D01*
X75446261Y-77717619D01*
X75370071Y-77793809D01*
X75293880Y-77831904D01*
X75141500Y-77831904D01*
X75065309Y-77793809D01*
X74989119Y-77717619D01*
X74951023Y-77565238D01*
X74951023Y-77298571D01*
X74989119Y-77146190D01*
X75065309Y-77070000D01*
X75141500Y-77031904D01*
X88076738Y-94448380D02*
X88410071Y-95448380D01*
X88743404Y-94448380D01*
X89076738Y-95448380D02*
X89076738Y-94781714D01*
X89076738Y-94448380D02*
X89029119Y-94496000D01*
X89076738Y-94543619D01*
X89124357Y-94496000D01*
X89076738Y-94448380D01*
X89076738Y-94543619D01*
X89552928Y-94781714D02*
X89552928Y-95448380D01*
X89552928Y-94876952D02*
X89600547Y-94829333D01*
X89695785Y-94781714D01*
X89838642Y-94781714D01*
X89933880Y-94829333D01*
X89981500Y-94924571D01*
X89981500Y-95448380D01*
X87965595Y-92908380D02*
X87965595Y-91908380D01*
X88394166Y-92860761D02*
X88537023Y-92908380D01*
X88775119Y-92908380D01*
X88870357Y-92860761D01*
X88917976Y-92813142D01*
X88965595Y-92717904D01*
X88965595Y-92622666D01*
X88917976Y-92527428D01*
X88870357Y-92479809D01*
X88775119Y-92432190D01*
X88584642Y-92384571D01*
X88489404Y-92336952D01*
X88441785Y-92289333D01*
X88394166Y-92194095D01*
X88394166Y-92098857D01*
X88441785Y-92003619D01*
X88489404Y-91956000D01*
X88584642Y-91908380D01*
X88822738Y-91908380D01*
X88965595Y-91956000D01*
X89394166Y-92908380D02*
X89394166Y-91908380D01*
X89775119Y-91908380D01*
X89870357Y-91956000D01*
X89917976Y-92003619D01*
X89965595Y-92098857D01*
X89965595Y-92241714D01*
X89917976Y-92336952D01*
X89870357Y-92384571D01*
X89775119Y-92432190D01*
X89394166Y-92432190D01*
X88298928Y-89844571D02*
X87965595Y-89844571D01*
X87965595Y-90368380D02*
X87965595Y-89368380D01*
X88441785Y-89368380D01*
X88679880Y-89368380D02*
X89251309Y-89368380D01*
X88965595Y-90368380D02*
X88965595Y-89368380D01*
X89584642Y-90368380D02*
X89584642Y-89368380D01*
X89822738Y-89368380D01*
X89965595Y-89416000D01*
X90060833Y-89511238D01*
X90108452Y-89606476D01*
X90156071Y-89796952D01*
X90156071Y-89939809D01*
X90108452Y-90130285D01*
X90060833Y-90225523D01*
X89965595Y-90320761D01*
X89822738Y-90368380D01*
X89584642Y-90368380D01*
X90584642Y-90368380D02*
X90584642Y-89368380D01*
D10*
X77926000Y-81550252D02*
X77926000Y-81027748D01*
X76506000Y-81550252D02*
X76506000Y-81027748D01*
X80772000Y-82864000D02*
X79442000Y-82864000D01*
X79442000Y-82864000D02*
X79442000Y-80204000D01*
X79442000Y-80204000D02*
X94802000Y-80204000D01*
X80532000Y-82864000D02*
X94802000Y-82864000D01*
X94802000Y-82864000D02*
X94802000Y-80204000D01*
X69850000Y-76140000D02*
X72450000Y-76140000D01*
X67270000Y-76140000D02*
X69850000Y-76140000D01*
X67250000Y-78740000D02*
X67250000Y-76150000D01*
X67250000Y-78740000D02*
X67250000Y-88960000D01*
X67250000Y-88960000D02*
X72450000Y-88960000D01*
X72450000Y-84240000D02*
X72450000Y-88960000D01*
X72450000Y-80800000D02*
X73460000Y-80800000D01*
X73460000Y-80800000D02*
X73460000Y-84240000D01*
X73460000Y-84240000D02*
X72450000Y-84240000D01*
X72450000Y-76140000D02*
X72450000Y-80800000D01*
X67564000Y-69850000D02*
X67310000Y-69850000D01*
X67564000Y-64770000D02*
X67310000Y-64770000D01*
X67564000Y-62230000D02*
X67310000Y-62230000D01*
X67564000Y-59690000D02*
X67310000Y-59690000D01*
X81026000Y-69850000D02*
X80772000Y-69850000D01*
X81026000Y-59690000D02*
X80772000Y-59690000D01*
X81026000Y-64770000D02*
X80772000Y-64770000D01*
X81026000Y-62230000D02*
X80772000Y-62230000D01*
X96774000Y-59690000D02*
X97028000Y-59690000D01*
X96774000Y-64770000D02*
X97028000Y-64770000D01*
X96774000Y-67310000D02*
X97028000Y-67310000D01*
X96774000Y-69850000D02*
X97028000Y-69850000D01*
X83312000Y-59690000D02*
X83566000Y-59690000D01*
X83312000Y-69850000D02*
X83566000Y-69850000D01*
X83312000Y-64770000D02*
X83566000Y-64770000D01*
X83312000Y-67310000D02*
X83566000Y-67310000D01*
X96326000Y-91126000D02*
X96326000Y-92456000D01*
X94996000Y-91126000D02*
X96326000Y-91126000D01*
X96326000Y-93726000D02*
X96326000Y-96326000D01*
X93726000Y-93726000D02*
X96326000Y-93726000D01*
X93726000Y-91126000D02*
X93726000Y-93726000D01*
X96326000Y-96326000D02*
X93666000Y-96326000D01*
X93726000Y-91126000D02*
X93666000Y-91126000D01*
X93666000Y-91126000D02*
X93666000Y-96326000D01*
X72450000Y-92396000D02*
X72450000Y-93726000D01*
X71120000Y-92396000D02*
X72450000Y-92396000D01*
X69850000Y-92396000D02*
X69850000Y-95056000D01*
X69850000Y-95056000D02*
X67250000Y-95056000D01*
X69850000Y-92396000D02*
X67250000Y-92396000D01*
X67250000Y-92396000D02*
X67250000Y-95056000D01*
X81619333Y-94361000D02*
X81619333Y-95631000D01*
X80266000Y-95561000D02*
X81619333Y-95561000D01*
X80266000Y-95441000D02*
X81619333Y-95441000D01*
X80266000Y-95321000D02*
X81619333Y-95321000D01*
X80266000Y-95201000D02*
X81619333Y-95201000D01*
X80266000Y-95081000D02*
X81619333Y-95081000D01*
X80266000Y-94961000D02*
X81619333Y-94961000D01*
X80266000Y-94841000D02*
X81619333Y-94841000D01*
X80266000Y-94721000D02*
X81619333Y-94721000D01*
X80266000Y-94601000D02*
X81619333Y-94601000D01*
X80266000Y-94481000D02*
X81619333Y-94481000D01*
X84326000Y-94361000D02*
X80266000Y-94361000D01*
X84326000Y-95631000D02*
X84326000Y-94361000D01*
X80266000Y-95631000D02*
X84326000Y-95631000D01*
X80266000Y-94361000D02*
X80266000Y-95631000D01*
X81619333Y-91821000D02*
X81619333Y-93091000D01*
X80266000Y-93021000D02*
X81619333Y-93021000D01*
X80266000Y-92901000D02*
X81619333Y-92901000D01*
X80266000Y-92781000D02*
X81619333Y-92781000D01*
X80266000Y-92661000D02*
X81619333Y-92661000D01*
X80266000Y-92541000D02*
X81619333Y-92541000D01*
X80266000Y-92421000D02*
X81619333Y-92421000D01*
X80266000Y-92301000D02*
X81619333Y-92301000D01*
X80266000Y-92181000D02*
X81619333Y-92181000D01*
X80266000Y-92061000D02*
X81619333Y-92061000D01*
X80266000Y-91941000D02*
X81619333Y-91941000D01*
X84326000Y-91821000D02*
X80266000Y-91821000D01*
X84326000Y-93091000D02*
X84326000Y-91821000D01*
X80266000Y-93091000D02*
X84326000Y-93091000D01*
X80266000Y-91821000D02*
X80266000Y-93091000D01*
X81619333Y-89281000D02*
X81619333Y-90551000D01*
X80266000Y-90481000D02*
X81619333Y-90481000D01*
X80266000Y-90361000D02*
X81619333Y-90361000D01*
X80266000Y-90241000D02*
X81619333Y-90241000D01*
X80266000Y-90121000D02*
X81619333Y-90121000D01*
X80266000Y-90001000D02*
X81619333Y-90001000D01*
X80266000Y-89881000D02*
X81619333Y-89881000D01*
X80266000Y-89761000D02*
X81619333Y-89761000D01*
X80266000Y-89641000D02*
X81619333Y-89641000D01*
X80266000Y-89521000D02*
X81619333Y-89521000D01*
X80266000Y-89401000D02*
X81619333Y-89401000D01*
X84326000Y-89281000D02*
X80266000Y-89281000D01*
X84326000Y-90551000D02*
X84326000Y-89281000D01*
X80266000Y-90551000D02*
X84326000Y-90551000D01*
X80266000Y-89281000D02*
X80266000Y-90551000D01*
X77106000Y-87256000D02*
X77106000Y-88639000D01*
X77106000Y-87256000D02*
X78490000Y-87256000D01*
X87246000Y-87496000D02*
X87246000Y-97416000D01*
X77346000Y-87496000D02*
X77346000Y-97416000D01*
X77346000Y-97416000D02*
X87246000Y-97416000D01*
X77346000Y-87496000D02*
X87246000Y-87496000D01*
D11*
X77049333Y-79097142D02*
X77001714Y-79144761D01*
X76858857Y-79192380D01*
X76763619Y-79192380D01*
X76620761Y-79144761D01*
X76525523Y-79049523D01*
X76477904Y-78954285D01*
X76430285Y-78763809D01*
X76430285Y-78620952D01*
X76477904Y-78430476D01*
X76525523Y-78335238D01*
X76620761Y-78240000D01*
X76763619Y-78192380D01*
X76858857Y-78192380D01*
X77001714Y-78240000D01*
X77049333Y-78287619D01*
X78001714Y-79192380D02*
X77430285Y-79192380D01*
X77716000Y-79192380D02*
X77716000Y-78192380D01*
X77620761Y-78335238D01*
X77525523Y-78430476D01*
X77430285Y-78478095D01*
X76231904Y-84308904D02*
X75774761Y-84308904D01*
X76003333Y-84308904D02*
X76003333Y-83508904D01*
X75927142Y-83623190D01*
X75850952Y-83699380D01*
X75774761Y-83737476D01*
X76727142Y-83508904D02*
X76803333Y-83508904D01*
X76879523Y-83547000D01*
X76917619Y-83585095D01*
X76955714Y-83661285D01*
X76993809Y-83813666D01*
X76993809Y-84004142D01*
X76955714Y-84156523D01*
X76917619Y-84232714D01*
X76879523Y-84270809D01*
X76803333Y-84308904D01*
X76727142Y-84308904D01*
X76650952Y-84270809D01*
X76612857Y-84232714D01*
X76574761Y-84156523D01*
X76536666Y-84004142D01*
X76536666Y-83813666D01*
X76574761Y-83661285D01*
X76612857Y-83585095D01*
X76650952Y-83547000D01*
X76727142Y-83508904D01*
X77489047Y-83508904D02*
X77565238Y-83508904D01*
X77641428Y-83547000D01*
X77679523Y-83585095D01*
X77717619Y-83661285D01*
X77755714Y-83813666D01*
X77755714Y-84004142D01*
X77717619Y-84156523D01*
X77679523Y-84232714D01*
X77641428Y-84270809D01*
X77565238Y-84308904D01*
X77489047Y-84308904D01*
X77412857Y-84270809D01*
X77374761Y-84232714D01*
X77336666Y-84156523D01*
X77298571Y-84004142D01*
X77298571Y-83813666D01*
X77336666Y-83661285D01*
X77374761Y-83585095D01*
X77412857Y-83547000D01*
X77489047Y-83508904D01*
X78098571Y-83775571D02*
X78098571Y-84308904D01*
X78098571Y-83851761D02*
X78136666Y-83813666D01*
X78212857Y-83775571D01*
X78327142Y-83775571D01*
X78403333Y-83813666D01*
X78441428Y-83889857D01*
X78441428Y-84308904D01*
X79089047Y-83889857D02*
X78822380Y-83889857D01*
X78822380Y-84308904D02*
X78822380Y-83508904D01*
X79203333Y-83508904D01*
X78684952Y-85812380D02*
X79018285Y-86812380D01*
X79351619Y-85812380D01*
X80256380Y-86717142D02*
X80208761Y-86764761D01*
X80065904Y-86812380D01*
X79970666Y-86812380D01*
X79827809Y-86764761D01*
X79732571Y-86669523D01*
X79684952Y-86574285D01*
X79637333Y-86383809D01*
X79637333Y-86240952D01*
X79684952Y-86050476D01*
X79732571Y-85955238D01*
X79827809Y-85860000D01*
X79970666Y-85812380D01*
X80065904Y-85812380D01*
X80208761Y-85860000D01*
X80256380Y-85907619D01*
X81256380Y-86717142D02*
X81208761Y-86764761D01*
X81065904Y-86812380D01*
X80970666Y-86812380D01*
X80827809Y-86764761D01*
X80732571Y-86669523D01*
X80684952Y-86574285D01*
X80637333Y-86383809D01*
X80637333Y-86240952D01*
X80684952Y-86050476D01*
X80732571Y-85955238D01*
X80827809Y-85860000D01*
X80970666Y-85812380D01*
X81065904Y-85812380D01*
X81208761Y-85860000D01*
X81256380Y-85907619D01*
X82399238Y-86764761D02*
X82542095Y-86812380D01*
X82780190Y-86812380D01*
X82875428Y-86764761D01*
X82923047Y-86717142D01*
X82970666Y-86621904D01*
X82970666Y-86526666D01*
X82923047Y-86431428D01*
X82875428Y-86383809D01*
X82780190Y-86336190D01*
X82589714Y-86288571D01*
X82494476Y-86240952D01*
X82446857Y-86193333D01*
X82399238Y-86098095D01*
X82399238Y-86002857D01*
X82446857Y-85907619D01*
X82494476Y-85860000D01*
X82589714Y-85812380D01*
X82827809Y-85812380D01*
X82970666Y-85860000D01*
X83304000Y-86145714D02*
X83494476Y-86812380D01*
X83684952Y-86336190D01*
X83875428Y-86812380D01*
X84065904Y-86145714D01*
X84446857Y-86812380D02*
X84446857Y-86145714D01*
X84446857Y-85812380D02*
X84399238Y-85860000D01*
X84446857Y-85907619D01*
X84494476Y-85860000D01*
X84446857Y-85812380D01*
X84446857Y-85907619D01*
X84780190Y-86145714D02*
X85161142Y-86145714D01*
X84923047Y-85812380D02*
X84923047Y-86669523D01*
X84970666Y-86764761D01*
X85065904Y-86812380D01*
X85161142Y-86812380D01*
X85923047Y-86764761D02*
X85827809Y-86812380D01*
X85637333Y-86812380D01*
X85542095Y-86764761D01*
X85494476Y-86717142D01*
X85446857Y-86621904D01*
X85446857Y-86336190D01*
X85494476Y-86240952D01*
X85542095Y-86193333D01*
X85637333Y-86145714D01*
X85827809Y-86145714D01*
X85923047Y-86193333D01*
X86351619Y-86812380D02*
X86351619Y-85812380D01*
X86780190Y-86812380D02*
X86780190Y-86288571D01*
X86732571Y-86193333D01*
X86637333Y-86145714D01*
X86494476Y-86145714D01*
X86399238Y-86193333D01*
X86351619Y-86240952D01*
M02*
