M48
; DRILL file {KiCad 5.1.5} date Mo 13 Apr 2020 15:16:19 CEST
; FORMAT={-:-/ absolute / inch / decimal}
; #@! TF.CreationDate,2020-04-13T15:16:19+02:00
; #@! TF.GenerationSoftware,Kicad,Pcbnew,5.1.5
FMAT,2
INCH
T1C0.0157
T2C0.0315
T3C0.0394
%
G90
G05
T1
X2.85Y-2.35
X2.85Y-2.45
X2.85Y-2.55
X2.85Y-2.75
X2.93Y-2.845
X3.52Y-2.655
X3.6Y-2.35
X3.6Y-2.55
T2
X3.09Y-3.54
X3.09Y-3.64
X3.09Y-3.74
X3.39Y-3.54
X3.39Y-3.64
X3.39Y-3.74
T3
X3.74Y-3.64
X3.74Y-3.74
X3.18Y-3.21
X3.28Y-3.21
X3.38Y-3.21
X3.48Y-3.21
X3.58Y-3.21
X3.68Y-3.21
X2.7Y-3.05
X2.7Y-3.15
X2.7Y-3.25
X2.7Y-3.35
X2.7Y-3.45
X2.8Y-3.05
X2.8Y-3.15
X2.8Y-3.25
X2.8Y-3.35
X2.8Y-3.45
X2.7Y-3.69
X2.8Y-3.69
T0
M30
