%TF.GenerationSoftware,KiCad,Pcbnew,5.1.5*%
%TF.CreationDate,2020-04-13T15:16:57+02:00*%
%TF.ProjectId,Flash-Station,466c6173-682d-4537-9461-74696f6e2e6b,rev?*%
%TF.SameCoordinates,Original*%
%TF.FileFunction,Copper,L1,Top*%
%TF.FilePolarity,Positive*%
%FSLAX46Y46*%
G04 Gerber Fmt 4.6, Leading zero omitted, Abs format (unit mm)*
G04 Created by KiCad (PCBNEW 5.1.5) date 2020-04-13 15:16:57*
%MOMM*%
%LPD*%
G04 APERTURE LIST*
%ADD10O,1.700000X1.700000*%
%ADD11R,1.700000X1.700000*%
%ADD12C,1.700000*%
%ADD13C,1.800000*%
%ADD14R,13.000000X1.600000*%
%ADD15O,1.600000X1.600000*%
%ADD16R,1.600000X1.600000*%
%ADD17C,0.100000*%
%ADD18C,0.800000*%
%ADD19C,0.250000*%
G04 APERTURE END LIST*
D10*
X93472000Y-81534000D03*
X90932000Y-81534000D03*
D11*
X88392000Y-81534000D03*
D10*
X85852000Y-81534000D03*
X83312000Y-81534000D03*
D12*
X80772000Y-81534000D03*
D10*
X71120000Y-87630000D03*
D11*
X68580000Y-87630000D03*
D10*
X71120000Y-85090000D03*
X68580000Y-85090000D03*
X71120000Y-82550000D03*
X68580000Y-82550000D03*
X71120000Y-80010000D03*
D13*
X68580000Y-80010000D03*
D10*
X71120000Y-77470000D03*
D12*
X68580000Y-77470000D03*
D14*
X74168000Y-69850000D03*
X74168000Y-64770000D03*
X74168000Y-59690000D03*
X74168000Y-62230000D03*
X90170000Y-59690000D03*
X90170000Y-64770000D03*
X90170000Y-69850000D03*
X90170000Y-67310000D03*
D11*
X94996000Y-94996000D03*
X94996000Y-92456000D03*
D10*
X68580000Y-93726000D03*
D11*
X71120000Y-93726000D03*
D15*
X86106000Y-89916000D03*
X78486000Y-94996000D03*
X86106000Y-92456000D03*
X78486000Y-92456000D03*
X86106000Y-94996000D03*
D16*
X78486000Y-89916000D03*
%TA.AperFunction,SMDPad,CuDef*%
D17*
G36*
X77944505Y-79681204D02*
G01*
X77968773Y-79684804D01*
X77992572Y-79690765D01*
X78015671Y-79699030D01*
X78037850Y-79709520D01*
X78058893Y-79722132D01*
X78078599Y-79736747D01*
X78096777Y-79753223D01*
X78113253Y-79771401D01*
X78127868Y-79791107D01*
X78140480Y-79812150D01*
X78150970Y-79834329D01*
X78159235Y-79857428D01*
X78165196Y-79881227D01*
X78168796Y-79905495D01*
X78170000Y-79929999D01*
X78170000Y-80580001D01*
X78168796Y-80604505D01*
X78165196Y-80628773D01*
X78159235Y-80652572D01*
X78150970Y-80675671D01*
X78140480Y-80697850D01*
X78127868Y-80718893D01*
X78113253Y-80738599D01*
X78096777Y-80756777D01*
X78078599Y-80773253D01*
X78058893Y-80787868D01*
X78037850Y-80800480D01*
X78015671Y-80810970D01*
X77992572Y-80819235D01*
X77968773Y-80825196D01*
X77944505Y-80828796D01*
X77920001Y-80830000D01*
X77019999Y-80830000D01*
X76995495Y-80828796D01*
X76971227Y-80825196D01*
X76947428Y-80819235D01*
X76924329Y-80810970D01*
X76902150Y-80800480D01*
X76881107Y-80787868D01*
X76861401Y-80773253D01*
X76843223Y-80756777D01*
X76826747Y-80738599D01*
X76812132Y-80718893D01*
X76799520Y-80697850D01*
X76789030Y-80675671D01*
X76780765Y-80652572D01*
X76774804Y-80628773D01*
X76771204Y-80604505D01*
X76770000Y-80580001D01*
X76770000Y-79929999D01*
X76771204Y-79905495D01*
X76774804Y-79881227D01*
X76780765Y-79857428D01*
X76789030Y-79834329D01*
X76799520Y-79812150D01*
X76812132Y-79791107D01*
X76826747Y-79771401D01*
X76843223Y-79753223D01*
X76861401Y-79736747D01*
X76881107Y-79722132D01*
X76902150Y-79709520D01*
X76924329Y-79699030D01*
X76947428Y-79690765D01*
X76971227Y-79684804D01*
X76995495Y-79681204D01*
X77019999Y-79680000D01*
X77920001Y-79680000D01*
X77944505Y-79681204D01*
G37*
%TD.AperFunction*%
%TA.AperFunction,SMDPad,CuDef*%
G36*
X77944505Y-81731204D02*
G01*
X77968773Y-81734804D01*
X77992572Y-81740765D01*
X78015671Y-81749030D01*
X78037850Y-81759520D01*
X78058893Y-81772132D01*
X78078599Y-81786747D01*
X78096777Y-81803223D01*
X78113253Y-81821401D01*
X78127868Y-81841107D01*
X78140480Y-81862150D01*
X78150970Y-81884329D01*
X78159235Y-81907428D01*
X78165196Y-81931227D01*
X78168796Y-81955495D01*
X78170000Y-81979999D01*
X78170000Y-82630001D01*
X78168796Y-82654505D01*
X78165196Y-82678773D01*
X78159235Y-82702572D01*
X78150970Y-82725671D01*
X78140480Y-82747850D01*
X78127868Y-82768893D01*
X78113253Y-82788599D01*
X78096777Y-82806777D01*
X78078599Y-82823253D01*
X78058893Y-82837868D01*
X78037850Y-82850480D01*
X78015671Y-82860970D01*
X77992572Y-82869235D01*
X77968773Y-82875196D01*
X77944505Y-82878796D01*
X77920001Y-82880000D01*
X77019999Y-82880000D01*
X76995495Y-82878796D01*
X76971227Y-82875196D01*
X76947428Y-82869235D01*
X76924329Y-82860970D01*
X76902150Y-82850480D01*
X76881107Y-82837868D01*
X76861401Y-82823253D01*
X76843223Y-82806777D01*
X76826747Y-82788599D01*
X76812132Y-82768893D01*
X76799520Y-82747850D01*
X76789030Y-82725671D01*
X76780765Y-82702572D01*
X76774804Y-82678773D01*
X76771204Y-82654505D01*
X76770000Y-82630001D01*
X76770000Y-81979999D01*
X76771204Y-81955495D01*
X76774804Y-81931227D01*
X76780765Y-81907428D01*
X76789030Y-81884329D01*
X76799520Y-81862150D01*
X76812132Y-81841107D01*
X76826747Y-81821401D01*
X76843223Y-81803223D01*
X76861401Y-81786747D01*
X76881107Y-81772132D01*
X76902150Y-81759520D01*
X76924329Y-81749030D01*
X76947428Y-81740765D01*
X76971227Y-81734804D01*
X76995495Y-81731204D01*
X77019999Y-81730000D01*
X77920001Y-81730000D01*
X77944505Y-81731204D01*
G37*
%TD.AperFunction*%
D18*
X91440000Y-59690000D03*
X74422000Y-72263000D03*
X72390000Y-59690000D03*
X72390000Y-62230000D03*
X72390000Y-64770000D03*
X72390000Y-69850000D03*
X91440000Y-64770000D03*
X89408000Y-67437000D03*
D19*
X68580000Y-78672081D02*
X68580000Y-80010000D01*
X68580000Y-77470000D02*
X68580000Y-78672081D01*
X68580000Y-77470000D02*
X68580000Y-76200000D01*
X68580000Y-76200000D02*
X72517000Y-72263000D01*
X72517000Y-72263000D02*
X74041000Y-72263000D01*
X71120000Y-93726000D02*
X75184000Y-93726000D01*
X76454000Y-94996000D02*
X78486000Y-94996000D01*
X75184000Y-93726000D02*
X76454000Y-94996000D01*
X71356000Y-82314000D02*
X71120000Y-82550000D01*
X77216000Y-82314000D02*
X71356000Y-82314000D01*
X86106000Y-89916000D02*
X86106000Y-94996000D01*
X86106000Y-94996000D02*
X94996000Y-94996000D01*
X96139000Y-70993000D02*
X94996000Y-69850000D01*
X94996000Y-92456000D02*
X96139000Y-91313000D01*
X96139000Y-91313000D02*
X96139000Y-70993000D01*
X80010000Y-89916000D02*
X88392000Y-81534000D01*
X78486000Y-89916000D02*
X80010000Y-89916000D01*
X78486000Y-92456000D02*
X74676000Y-92456000D01*
X74676000Y-92456000D02*
X73406000Y-91186000D01*
X68580000Y-88730000D02*
X68580000Y-87630000D01*
X71036000Y-91186000D02*
X68580000Y-88730000D01*
X73406000Y-91186000D02*
X71036000Y-91186000D01*
X80481795Y-81187795D02*
X80453795Y-81215795D01*
X79502000Y-80264000D02*
X77216000Y-80264000D01*
X80772000Y-81534000D02*
X79502000Y-80264000D01*
M02*
