G04 #@! TF.GenerationSoftware,KiCad,Pcbnew,5.1.5*
G04 #@! TF.CreationDate,2020-01-13T19:24:34+01:00*
G04 #@! TF.ProjectId,Flash-Station,466c6173-682d-4537-9461-74696f6e2e6b,rev?*
G04 #@! TF.SameCoordinates,Original*
G04 #@! TF.FileFunction,Copper,L1,Top*
G04 #@! TF.FilePolarity,Positive*
%FSLAX46Y46*%
G04 Gerber Fmt 4.6, Leading zero omitted, Abs format (unit mm)*
G04 Created by KiCad (PCBNEW 5.1.5) date 2020-01-13 19:24:34*
%MOMM*%
%LPD*%
G04 APERTURE LIST*
%ADD10O,1.700000X1.700000*%
%ADD11R,1.700000X1.700000*%
%ADD12C,1.700000*%
%ADD13C,1.800000*%
%ADD14R,13.000000X1.600000*%
%ADD15O,1.600000X1.600000*%
%ADD16R,1.600000X1.600000*%
%ADD17C,0.800000*%
%ADD18C,0.250000*%
G04 APERTURE END LIST*
D10*
X93472000Y-81534000D03*
X90932000Y-81534000D03*
D11*
X88392000Y-81534000D03*
D10*
X85852000Y-81534000D03*
X83312000Y-81534000D03*
D12*
X80772000Y-81534000D03*
D10*
X71120000Y-87630000D03*
D11*
X68580000Y-87630000D03*
D10*
X71120000Y-85090000D03*
X68580000Y-85090000D03*
X71120000Y-82550000D03*
X68580000Y-82550000D03*
X71120000Y-80010000D03*
D13*
X68580000Y-80010000D03*
D10*
X71120000Y-77470000D03*
D12*
X68580000Y-77470000D03*
D14*
X74168000Y-69850000D03*
X74168000Y-64770000D03*
X74168000Y-59690000D03*
X74168000Y-62230000D03*
X90170000Y-59690000D03*
X90170000Y-64770000D03*
X90170000Y-69850000D03*
X90170000Y-67310000D03*
D11*
X94996000Y-94996000D03*
X94996000Y-92456000D03*
D10*
X68580000Y-93726000D03*
D11*
X71120000Y-93726000D03*
D15*
X86106000Y-89916000D03*
X78486000Y-94996000D03*
X86106000Y-92456000D03*
X78486000Y-92456000D03*
X86106000Y-94996000D03*
D16*
X78486000Y-89916000D03*
D17*
X91440000Y-59690000D03*
X77470000Y-75692000D03*
X72390000Y-59690000D03*
X72390000Y-62230000D03*
X72390000Y-64770000D03*
X72390000Y-69850000D03*
X91440000Y-64770000D03*
X91440000Y-67310000D03*
D18*
X69088000Y-75692000D02*
X77470000Y-75692000D01*
X68580000Y-77470000D02*
X68580000Y-76200000D01*
X68580000Y-76200000D02*
X69088000Y-75692000D01*
X77470000Y-75692000D02*
X77470000Y-75692000D01*
X68580000Y-78672081D02*
X68580000Y-80010000D01*
X68580000Y-77470000D02*
X68580000Y-78672081D01*
X71120000Y-93726000D02*
X75184000Y-93726000D01*
X76454000Y-94996000D02*
X78486000Y-94996000D01*
X75184000Y-93726000D02*
X76454000Y-94996000D01*
X79756000Y-82550000D02*
X80772000Y-81534000D01*
X71120000Y-82550000D02*
X79756000Y-82550000D01*
X86106000Y-89916000D02*
X86106000Y-94996000D01*
X86106000Y-94996000D02*
X94996000Y-94996000D01*
X96139000Y-70993000D02*
X94996000Y-69850000D01*
X94996000Y-92456000D02*
X96139000Y-91313000D01*
X96139000Y-91313000D02*
X96139000Y-70993000D01*
X80010000Y-89916000D02*
X88392000Y-81534000D01*
X78486000Y-89916000D02*
X80010000Y-89916000D01*
X78486000Y-92456000D02*
X74676000Y-92456000D01*
X74676000Y-92456000D02*
X73406000Y-91186000D01*
X68580000Y-88730000D02*
X68580000Y-87630000D01*
X71036000Y-91186000D02*
X68580000Y-88730000D01*
X73406000Y-91186000D02*
X71036000Y-91186000D01*
M02*
