G04 #@! TF.GenerationSoftware,KiCad,Pcbnew,5.1.5*
G04 #@! TF.CreationDate,2020-03-08T11:02:30+01:00*
G04 #@! TF.ProjectId,Flash-Station,466c6173-682d-4537-9461-74696f6e2e6b,rev?*
G04 #@! TF.SameCoordinates,Original*
G04 #@! TF.FileFunction,Legend,Bot*
G04 #@! TF.FilePolarity,Positive*
%FSLAX46Y46*%
G04 Gerber Fmt 4.6, Leading zero omitted, Abs format (unit mm)*
G04 Created by KiCad (PCBNEW 5.1.5) date 2020-03-08 11:02:30*
%MOMM*%
%LPD*%
G04 APERTURE LIST*
%ADD10C,0.150000*%
G04 APERTURE END LIST*
D10*
X95113619Y-76753404D02*
X96113619Y-76753404D01*
X95637428Y-76753404D02*
X95637428Y-76181976D01*
X95113619Y-76181976D02*
X96113619Y-76181976D01*
X95113619Y-75705785D02*
X96113619Y-75705785D01*
X95399333Y-75372452D01*
X96113619Y-75039119D01*
X95113619Y-75039119D01*
X95161238Y-74610547D02*
X95113619Y-74467690D01*
X95113619Y-74229595D01*
X95161238Y-74134357D01*
X95208857Y-74086738D01*
X95304095Y-74039119D01*
X95399333Y-74039119D01*
X95494571Y-74086738D01*
X95542190Y-74134357D01*
X95589809Y-74229595D01*
X95637428Y-74420071D01*
X95685047Y-74515309D01*
X95732666Y-74562928D01*
X95827904Y-74610547D01*
X95923142Y-74610547D01*
X96018380Y-74562928D01*
X96066000Y-74515309D01*
X96113619Y-74420071D01*
X96113619Y-74181976D01*
X96066000Y-74039119D01*
X95161238Y-73229595D02*
X95113619Y-73324833D01*
X95113619Y-73515309D01*
X95161238Y-73610547D01*
X95256476Y-73658166D01*
X95637428Y-73658166D01*
X95732666Y-73610547D01*
X95780285Y-73515309D01*
X95780285Y-73324833D01*
X95732666Y-73229595D01*
X95637428Y-73181976D01*
X95542190Y-73181976D01*
X95446952Y-73658166D01*
X95780285Y-72753404D02*
X95113619Y-72753404D01*
X95685047Y-72753404D02*
X95732666Y-72705785D01*
X95780285Y-72610547D01*
X95780285Y-72467690D01*
X95732666Y-72372452D01*
X95637428Y-72324833D01*
X95113619Y-72324833D01*
X95161238Y-71896261D02*
X95113619Y-71801023D01*
X95113619Y-71610547D01*
X95161238Y-71515309D01*
X95256476Y-71467690D01*
X95304095Y-71467690D01*
X95399333Y-71515309D01*
X95446952Y-71610547D01*
X95446952Y-71753404D01*
X95494571Y-71848642D01*
X95589809Y-71896261D01*
X95637428Y-71896261D01*
X95732666Y-71848642D01*
X95780285Y-71753404D01*
X95780285Y-71610547D01*
X95732666Y-71515309D01*
X95113619Y-70896261D02*
X95161238Y-70991500D01*
X95208857Y-71039119D01*
X95304095Y-71086738D01*
X95589809Y-71086738D01*
X95685047Y-71039119D01*
X95732666Y-70991500D01*
X95780285Y-70896261D01*
X95780285Y-70753404D01*
X95732666Y-70658166D01*
X95685047Y-70610547D01*
X95589809Y-70562928D01*
X95304095Y-70562928D01*
X95208857Y-70610547D01*
X95161238Y-70658166D01*
X95113619Y-70753404D01*
X95113619Y-70896261D01*
X95113619Y-70134357D02*
X95780285Y-70134357D01*
X95589809Y-70134357D02*
X95685047Y-70086738D01*
X95732666Y-70039119D01*
X95780285Y-69943880D01*
X95780285Y-69848642D01*
X93987428Y-76420071D02*
X93987428Y-76753404D01*
X93463619Y-76753404D02*
X94463619Y-76753404D01*
X94463619Y-76277214D01*
X93463619Y-75753404D02*
X93511238Y-75848642D01*
X93606476Y-75896261D01*
X94463619Y-75896261D01*
X93463619Y-74943880D02*
X93987428Y-74943880D01*
X94082666Y-74991500D01*
X94130285Y-75086738D01*
X94130285Y-75277214D01*
X94082666Y-75372452D01*
X93511238Y-74943880D02*
X93463619Y-75039119D01*
X93463619Y-75277214D01*
X93511238Y-75372452D01*
X93606476Y-75420071D01*
X93701714Y-75420071D01*
X93796952Y-75372452D01*
X93844571Y-75277214D01*
X93844571Y-75039119D01*
X93892190Y-74943880D01*
X93511238Y-74515309D02*
X93463619Y-74420071D01*
X93463619Y-74229595D01*
X93511238Y-74134357D01*
X93606476Y-74086738D01*
X93654095Y-74086738D01*
X93749333Y-74134357D01*
X93796952Y-74229595D01*
X93796952Y-74372452D01*
X93844571Y-74467690D01*
X93939809Y-74515309D01*
X93987428Y-74515309D01*
X94082666Y-74467690D01*
X94130285Y-74372452D01*
X94130285Y-74229595D01*
X94082666Y-74134357D01*
X93463619Y-73658166D02*
X94463619Y-73658166D01*
X93463619Y-73229595D02*
X93987428Y-73229595D01*
X94082666Y-73277214D01*
X94130285Y-73372452D01*
X94130285Y-73515309D01*
X94082666Y-73610547D01*
X94035047Y-73658166D01*
X93511238Y-72801023D02*
X93463619Y-72658166D01*
X93463619Y-72420071D01*
X93511238Y-72324833D01*
X93558857Y-72277214D01*
X93654095Y-72229595D01*
X93749333Y-72229595D01*
X93844571Y-72277214D01*
X93892190Y-72324833D01*
X93939809Y-72420071D01*
X93987428Y-72610547D01*
X94035047Y-72705785D01*
X94082666Y-72753404D01*
X94177904Y-72801023D01*
X94273142Y-72801023D01*
X94368380Y-72753404D01*
X94416000Y-72705785D01*
X94463619Y-72610547D01*
X94463619Y-72372452D01*
X94416000Y-72229595D01*
X94130285Y-71943880D02*
X94130285Y-71562928D01*
X94463619Y-71801023D02*
X93606476Y-71801023D01*
X93511238Y-71753404D01*
X93463619Y-71658166D01*
X93463619Y-71562928D01*
X93463619Y-70801023D02*
X93987428Y-70801023D01*
X94082666Y-70848642D01*
X94130285Y-70943880D01*
X94130285Y-71134357D01*
X94082666Y-71229595D01*
X93511238Y-70801023D02*
X93463619Y-70896261D01*
X93463619Y-71134357D01*
X93511238Y-71229595D01*
X93606476Y-71277214D01*
X93701714Y-71277214D01*
X93796952Y-71229595D01*
X93844571Y-71134357D01*
X93844571Y-70896261D01*
X93892190Y-70801023D01*
X94130285Y-70467690D02*
X94130285Y-70086738D01*
X94463619Y-70324833D02*
X93606476Y-70324833D01*
X93511238Y-70277214D01*
X93463619Y-70181976D01*
X93463619Y-70086738D01*
X93463619Y-69753404D02*
X94130285Y-69753404D01*
X94463619Y-69753404D02*
X94416000Y-69801023D01*
X94368380Y-69753404D01*
X94416000Y-69705785D01*
X94463619Y-69753404D01*
X94368380Y-69753404D01*
X93463619Y-69134357D02*
X93511238Y-69229595D01*
X93558857Y-69277214D01*
X93654095Y-69324833D01*
X93939809Y-69324833D01*
X94035047Y-69277214D01*
X94082666Y-69229595D01*
X94130285Y-69134357D01*
X94130285Y-68991500D01*
X94082666Y-68896261D01*
X94035047Y-68848642D01*
X93939809Y-68801023D01*
X93654095Y-68801023D01*
X93558857Y-68848642D01*
X93511238Y-68896261D01*
X93463619Y-68991500D01*
X93463619Y-69134357D01*
X94130285Y-68372452D02*
X93463619Y-68372452D01*
X94035047Y-68372452D02*
X94082666Y-68324833D01*
X94130285Y-68229595D01*
X94130285Y-68086738D01*
X94082666Y-67991500D01*
X93987428Y-67943880D01*
X93463619Y-67943880D01*
X92480285Y-76848642D02*
X91813619Y-76610547D01*
X92480285Y-76372452D01*
X91813619Y-75467690D02*
X91813619Y-76039119D01*
X91813619Y-75753404D02*
X92813619Y-75753404D01*
X92670761Y-75848642D01*
X92575523Y-75943880D01*
X92527904Y-76039119D01*
X91908857Y-75039119D02*
X91861238Y-74991500D01*
X91813619Y-75039119D01*
X91861238Y-75086738D01*
X91908857Y-75039119D01*
X91813619Y-75039119D01*
X91813619Y-74039119D02*
X91813619Y-74610547D01*
X91813619Y-74324833D02*
X92813619Y-74324833D01*
X92670761Y-74420071D01*
X92575523Y-74515309D01*
X92527904Y-74610547D01*
X90163619Y-76753404D02*
X91163619Y-76753404D01*
X90782666Y-76753404D02*
X90830285Y-76658166D01*
X90830285Y-76467690D01*
X90782666Y-76372452D01*
X90735047Y-76324833D01*
X90639809Y-76277214D01*
X90354095Y-76277214D01*
X90258857Y-76324833D01*
X90211238Y-76372452D01*
X90163619Y-76467690D01*
X90163619Y-76658166D01*
X90211238Y-76753404D01*
X90830285Y-75943880D02*
X90163619Y-75705785D01*
X90830285Y-75467690D02*
X90163619Y-75705785D01*
X89925523Y-75801023D01*
X89877904Y-75848642D01*
X89830285Y-75943880D01*
X90258857Y-73753404D02*
X90211238Y-73801023D01*
X90163619Y-73943880D01*
X90163619Y-74039119D01*
X90211238Y-74181976D01*
X90306476Y-74277214D01*
X90401714Y-74324833D01*
X90592190Y-74372452D01*
X90735047Y-74372452D01*
X90925523Y-74324833D01*
X91020761Y-74277214D01*
X91116000Y-74181976D01*
X91163619Y-74039119D01*
X91163619Y-73943880D01*
X91116000Y-73801023D01*
X91068380Y-73753404D01*
X90163619Y-73324833D02*
X91163619Y-73324833D01*
X90163619Y-72896261D02*
X90687428Y-72896261D01*
X90782666Y-72943880D01*
X90830285Y-73039119D01*
X90830285Y-73181976D01*
X90782666Y-73277214D01*
X90735047Y-73324833D01*
X90163619Y-72420071D02*
X90830285Y-72420071D01*
X90639809Y-72420071D02*
X90735047Y-72372452D01*
X90782666Y-72324833D01*
X90830285Y-72229595D01*
X90830285Y-72134357D01*
X90163619Y-71801023D02*
X90830285Y-71801023D01*
X91163619Y-71801023D02*
X91116000Y-71848642D01*
X91068380Y-71801023D01*
X91116000Y-71753404D01*
X91163619Y-71801023D01*
X91068380Y-71801023D01*
X90211238Y-71372452D02*
X90163619Y-71277214D01*
X90163619Y-71086738D01*
X90211238Y-70991500D01*
X90306476Y-70943880D01*
X90354095Y-70943880D01*
X90449333Y-70991500D01*
X90496952Y-71086738D01*
X90496952Y-71229595D01*
X90544571Y-71324833D01*
X90639809Y-71372452D01*
X90687428Y-71372452D01*
X90782666Y-71324833D01*
X90830285Y-71229595D01*
X90830285Y-71086738D01*
X90782666Y-70991500D01*
X90830285Y-70658166D02*
X90830285Y-70277214D01*
X91163619Y-70515309D02*
X90306476Y-70515309D01*
X90211238Y-70467690D01*
X90163619Y-70372452D01*
X90163619Y-70277214D01*
X90163619Y-69801023D02*
X90211238Y-69896261D01*
X90258857Y-69943880D01*
X90354095Y-69991500D01*
X90639809Y-69991500D01*
X90735047Y-69943880D01*
X90782666Y-69896261D01*
X90830285Y-69801023D01*
X90830285Y-69658166D01*
X90782666Y-69562928D01*
X90735047Y-69515309D01*
X90639809Y-69467690D01*
X90354095Y-69467690D01*
X90258857Y-69515309D01*
X90211238Y-69562928D01*
X90163619Y-69658166D01*
X90163619Y-69801023D01*
X90830285Y-69039119D02*
X89830285Y-69039119D01*
X90782666Y-69039119D02*
X90830285Y-68943880D01*
X90830285Y-68753404D01*
X90782666Y-68658166D01*
X90735047Y-68610547D01*
X90639809Y-68562928D01*
X90354095Y-68562928D01*
X90258857Y-68610547D01*
X90211238Y-68658166D01*
X90163619Y-68753404D01*
X90163619Y-68943880D01*
X90211238Y-69039119D01*
X90163619Y-68134357D02*
X91163619Y-68134357D01*
X90163619Y-67705785D02*
X90687428Y-67705785D01*
X90782666Y-67753404D01*
X90830285Y-67848642D01*
X90830285Y-67991500D01*
X90782666Y-68086738D01*
X90735047Y-68134357D01*
X91163619Y-66562928D02*
X90163619Y-66324833D01*
X90877904Y-66134357D01*
X90163619Y-65943880D01*
X91163619Y-65705785D01*
X90163619Y-65324833D02*
X90830285Y-65324833D01*
X91163619Y-65324833D02*
X91116000Y-65372452D01*
X91068380Y-65324833D01*
X91116000Y-65277214D01*
X91163619Y-65324833D01*
X91068380Y-65324833D01*
X90211238Y-64467690D02*
X90163619Y-64562928D01*
X90163619Y-64753404D01*
X90211238Y-64848642D01*
X90306476Y-64896261D01*
X90687428Y-64896261D01*
X90782666Y-64848642D01*
X90830285Y-64753404D01*
X90830285Y-64562928D01*
X90782666Y-64467690D01*
X90687428Y-64420071D01*
X90592190Y-64420071D01*
X90496952Y-64896261D01*
X90211238Y-63562928D02*
X90163619Y-63658166D01*
X90163619Y-63848642D01*
X90211238Y-63943880D01*
X90258857Y-63991500D01*
X90354095Y-64039119D01*
X90639809Y-64039119D01*
X90735047Y-63991500D01*
X90782666Y-63943880D01*
X90830285Y-63848642D01*
X90830285Y-63658166D01*
X90782666Y-63562928D01*
X90163619Y-63134357D02*
X91163619Y-63134357D01*
X90163619Y-62705785D02*
X90687428Y-62705785D01*
X90782666Y-62753404D01*
X90830285Y-62848642D01*
X90830285Y-62991500D01*
X90782666Y-63086738D01*
X90735047Y-63134357D01*
X90211238Y-61848642D02*
X90163619Y-61943880D01*
X90163619Y-62134357D01*
X90211238Y-62229595D01*
X90306476Y-62277214D01*
X90687428Y-62277214D01*
X90782666Y-62229595D01*
X90830285Y-62134357D01*
X90830285Y-61943880D01*
X90782666Y-61848642D01*
X90687428Y-61801023D01*
X90592190Y-61801023D01*
X90496952Y-62277214D01*
X90163619Y-61372452D02*
X90830285Y-61372452D01*
X90639809Y-61372452D02*
X90735047Y-61324833D01*
X90782666Y-61277214D01*
X90830285Y-61181976D01*
X90830285Y-61086738D01*
X90830285Y-60896261D02*
X90830285Y-60515309D01*
X91163619Y-60753404D02*
X90306476Y-60753404D01*
X90211238Y-60705785D01*
X90163619Y-60610547D01*
X90163619Y-60515309D01*
M02*
