G04 #@! TF.GenerationSoftware,KiCad,Pcbnew,5.1.5*
G04 #@! TF.CreationDate,2020-03-08T11:02:30+01:00*
G04 #@! TF.ProjectId,Flash-Station,466c6173-682d-4537-9461-74696f6e2e6b,rev?*
G04 #@! TF.SameCoordinates,Original*
G04 #@! TF.FileFunction,Copper,L1,Top*
G04 #@! TF.FilePolarity,Positive*
%FSLAX46Y46*%
G04 Gerber Fmt 4.6, Leading zero omitted, Abs format (unit mm)*
G04 Created by KiCad (PCBNEW 5.1.5) date 2020-03-08 11:02:30*
%MOMM*%
%LPD*%
G04 APERTURE LIST*
%ADD10C,0.100000*%
%ADD11O,1.700000X1.700000*%
%ADD12R,1.700000X1.700000*%
%ADD13C,1.700000*%
%ADD14C,1.800000*%
%ADD15R,13.000000X1.600000*%
%ADD16O,1.600000X1.600000*%
%ADD17R,1.600000X1.600000*%
%ADD18C,0.800000*%
%ADD19C,0.250000*%
G04 APERTURE END LIST*
G04 #@! TA.AperFunction,SMDPad,CuDef*
D10*
G36*
X77690505Y-79690204D02*
G01*
X77714773Y-79693804D01*
X77738572Y-79699765D01*
X77761671Y-79708030D01*
X77783850Y-79718520D01*
X77804893Y-79731132D01*
X77824599Y-79745747D01*
X77842777Y-79762223D01*
X77859253Y-79780401D01*
X77873868Y-79800107D01*
X77886480Y-79821150D01*
X77896970Y-79843329D01*
X77905235Y-79866428D01*
X77911196Y-79890227D01*
X77914796Y-79914495D01*
X77916000Y-79938999D01*
X77916000Y-80589001D01*
X77914796Y-80613505D01*
X77911196Y-80637773D01*
X77905235Y-80661572D01*
X77896970Y-80684671D01*
X77886480Y-80706850D01*
X77873868Y-80727893D01*
X77859253Y-80747599D01*
X77842777Y-80765777D01*
X77824599Y-80782253D01*
X77804893Y-80796868D01*
X77783850Y-80809480D01*
X77761671Y-80819970D01*
X77738572Y-80828235D01*
X77714773Y-80834196D01*
X77690505Y-80837796D01*
X77666001Y-80839000D01*
X76765999Y-80839000D01*
X76741495Y-80837796D01*
X76717227Y-80834196D01*
X76693428Y-80828235D01*
X76670329Y-80819970D01*
X76648150Y-80809480D01*
X76627107Y-80796868D01*
X76607401Y-80782253D01*
X76589223Y-80765777D01*
X76572747Y-80747599D01*
X76558132Y-80727893D01*
X76545520Y-80706850D01*
X76535030Y-80684671D01*
X76526765Y-80661572D01*
X76520804Y-80637773D01*
X76517204Y-80613505D01*
X76516000Y-80589001D01*
X76516000Y-79938999D01*
X76517204Y-79914495D01*
X76520804Y-79890227D01*
X76526765Y-79866428D01*
X76535030Y-79843329D01*
X76545520Y-79821150D01*
X76558132Y-79800107D01*
X76572747Y-79780401D01*
X76589223Y-79762223D01*
X76607401Y-79745747D01*
X76627107Y-79731132D01*
X76648150Y-79718520D01*
X76670329Y-79708030D01*
X76693428Y-79699765D01*
X76717227Y-79693804D01*
X76741495Y-79690204D01*
X76765999Y-79689000D01*
X77666001Y-79689000D01*
X77690505Y-79690204D01*
G37*
G04 #@! TD.AperFunction*
G04 #@! TA.AperFunction,SMDPad,CuDef*
G36*
X77690505Y-81740204D02*
G01*
X77714773Y-81743804D01*
X77738572Y-81749765D01*
X77761671Y-81758030D01*
X77783850Y-81768520D01*
X77804893Y-81781132D01*
X77824599Y-81795747D01*
X77842777Y-81812223D01*
X77859253Y-81830401D01*
X77873868Y-81850107D01*
X77886480Y-81871150D01*
X77896970Y-81893329D01*
X77905235Y-81916428D01*
X77911196Y-81940227D01*
X77914796Y-81964495D01*
X77916000Y-81988999D01*
X77916000Y-82639001D01*
X77914796Y-82663505D01*
X77911196Y-82687773D01*
X77905235Y-82711572D01*
X77896970Y-82734671D01*
X77886480Y-82756850D01*
X77873868Y-82777893D01*
X77859253Y-82797599D01*
X77842777Y-82815777D01*
X77824599Y-82832253D01*
X77804893Y-82846868D01*
X77783850Y-82859480D01*
X77761671Y-82869970D01*
X77738572Y-82878235D01*
X77714773Y-82884196D01*
X77690505Y-82887796D01*
X77666001Y-82889000D01*
X76765999Y-82889000D01*
X76741495Y-82887796D01*
X76717227Y-82884196D01*
X76693428Y-82878235D01*
X76670329Y-82869970D01*
X76648150Y-82859480D01*
X76627107Y-82846868D01*
X76607401Y-82832253D01*
X76589223Y-82815777D01*
X76572747Y-82797599D01*
X76558132Y-82777893D01*
X76545520Y-82756850D01*
X76535030Y-82734671D01*
X76526765Y-82711572D01*
X76520804Y-82687773D01*
X76517204Y-82663505D01*
X76516000Y-82639001D01*
X76516000Y-81988999D01*
X76517204Y-81964495D01*
X76520804Y-81940227D01*
X76526765Y-81916428D01*
X76535030Y-81893329D01*
X76545520Y-81871150D01*
X76558132Y-81850107D01*
X76572747Y-81830401D01*
X76589223Y-81812223D01*
X76607401Y-81795747D01*
X76627107Y-81781132D01*
X76648150Y-81768520D01*
X76670329Y-81758030D01*
X76693428Y-81749765D01*
X76717227Y-81743804D01*
X76741495Y-81740204D01*
X76765999Y-81739000D01*
X77666001Y-81739000D01*
X77690505Y-81740204D01*
G37*
G04 #@! TD.AperFunction*
D11*
X93472000Y-81534000D03*
X90932000Y-81534000D03*
D12*
X88392000Y-81534000D03*
D11*
X85852000Y-81534000D03*
X83312000Y-81534000D03*
D13*
X80772000Y-81534000D03*
D11*
X71120000Y-87630000D03*
D12*
X68580000Y-87630000D03*
D11*
X71120000Y-85090000D03*
X68580000Y-85090000D03*
X71120000Y-82550000D03*
X68580000Y-82550000D03*
X71120000Y-80010000D03*
D14*
X68580000Y-80010000D03*
D11*
X71120000Y-77470000D03*
D13*
X68580000Y-77470000D03*
D15*
X74168000Y-69850000D03*
X74168000Y-64770000D03*
X74168000Y-59690000D03*
X74168000Y-62230000D03*
X90170000Y-59690000D03*
X90170000Y-64770000D03*
X90170000Y-69850000D03*
X90170000Y-67310000D03*
D12*
X94996000Y-94996000D03*
X94996000Y-92456000D03*
D11*
X68580000Y-93726000D03*
D12*
X71120000Y-93726000D03*
D16*
X86106000Y-89916000D03*
X78486000Y-94996000D03*
X86106000Y-92456000D03*
X78486000Y-92456000D03*
X86106000Y-94996000D03*
D17*
X78486000Y-89916000D03*
D18*
X91440000Y-59690000D03*
X74422000Y-72263000D03*
X72390000Y-59690000D03*
X72390000Y-62230000D03*
X72390000Y-64770000D03*
X72390000Y-69850000D03*
X91440000Y-64770000D03*
X89408000Y-67437000D03*
D19*
X68580000Y-78672081D02*
X68580000Y-80010000D01*
X68580000Y-77470000D02*
X68580000Y-78672081D01*
X68580000Y-77470000D02*
X68580000Y-76200000D01*
X68580000Y-76200000D02*
X72517000Y-72263000D01*
X72517000Y-72263000D02*
X74041000Y-72263000D01*
X71120000Y-93726000D02*
X75184000Y-93726000D01*
X76454000Y-94996000D02*
X78486000Y-94996000D01*
X75184000Y-93726000D02*
X76454000Y-94996000D01*
X71356000Y-82314000D02*
X71120000Y-82550000D01*
X77216000Y-82314000D02*
X71356000Y-82314000D01*
X86106000Y-89916000D02*
X86106000Y-94996000D01*
X86106000Y-94996000D02*
X94996000Y-94996000D01*
X96139000Y-70993000D02*
X94996000Y-69850000D01*
X94996000Y-92456000D02*
X96139000Y-91313000D01*
X96139000Y-91313000D02*
X96139000Y-70993000D01*
X80010000Y-89916000D02*
X88392000Y-81534000D01*
X78486000Y-89916000D02*
X80010000Y-89916000D01*
X78486000Y-92456000D02*
X74676000Y-92456000D01*
X74676000Y-92456000D02*
X73406000Y-91186000D01*
X68580000Y-88730000D02*
X68580000Y-87630000D01*
X71036000Y-91186000D02*
X68580000Y-88730000D01*
X73406000Y-91186000D02*
X71036000Y-91186000D01*
X80481795Y-81187795D02*
X80453795Y-81215795D01*
X79502000Y-80264000D02*
X77216000Y-80264000D01*
X80772000Y-81534000D02*
X79502000Y-80264000D01*
M02*
