G04 #@! TF.GenerationSoftware,KiCad,Pcbnew,5.1.5*
G04 #@! TF.CreationDate,2020-01-13T19:24:34+01:00*
G04 #@! TF.ProjectId,Flash-Station,466c6173-682d-4537-9461-74696f6e2e6b,rev?*
G04 #@! TF.SameCoordinates,Original*
G04 #@! TF.FileFunction,Legend,Top*
G04 #@! TF.FilePolarity,Positive*
%FSLAX46Y46*%
G04 Gerber Fmt 4.6, Leading zero omitted, Abs format (unit mm)*
G04 Created by KiCad (PCBNEW 5.1.5) date 2020-01-13 19:24:34*
%MOMM*%
%LPD*%
G04 APERTURE LIST*
%ADD10C,0.120000*%
%ADD11C,0.100000*%
%ADD12C,0.150000*%
G04 APERTURE END LIST*
D10*
X82169000Y-74168000D02*
X82169000Y-80137000D01*
D11*
X93072000Y-79081476D02*
X93033904Y-79157666D01*
X93033904Y-79271952D01*
X93072000Y-79386238D01*
X93148190Y-79462428D01*
X93224380Y-79500523D01*
X93376761Y-79538619D01*
X93491047Y-79538619D01*
X93643428Y-79500523D01*
X93719619Y-79462428D01*
X93795809Y-79386238D01*
X93833904Y-79271952D01*
X93833904Y-79195761D01*
X93795809Y-79081476D01*
X93757714Y-79043380D01*
X93491047Y-79043380D01*
X93491047Y-79195761D01*
X93833904Y-78700523D02*
X93033904Y-78700523D01*
X93833904Y-78243380D01*
X93033904Y-78243380D01*
X93833904Y-77862428D02*
X93033904Y-77862428D01*
X93033904Y-77671952D01*
X93072000Y-77557666D01*
X93148190Y-77481476D01*
X93224380Y-77443380D01*
X93376761Y-77405285D01*
X93491047Y-77405285D01*
X93643428Y-77443380D01*
X93719619Y-77481476D01*
X93795809Y-77557666D01*
X93833904Y-77671952D01*
X93833904Y-77862428D01*
X87953904Y-79614809D02*
X88753904Y-79348142D01*
X87953904Y-79081476D01*
X88677714Y-78357666D02*
X88715809Y-78395761D01*
X88753904Y-78510047D01*
X88753904Y-78586238D01*
X88715809Y-78700523D01*
X88639619Y-78776714D01*
X88563428Y-78814809D01*
X88411047Y-78852904D01*
X88296761Y-78852904D01*
X88144380Y-78814809D01*
X88068190Y-78776714D01*
X87992000Y-78700523D01*
X87953904Y-78586238D01*
X87953904Y-78510047D01*
X87992000Y-78395761D01*
X88030095Y-78357666D01*
X88677714Y-77557666D02*
X88715809Y-77595761D01*
X88753904Y-77710047D01*
X88753904Y-77786238D01*
X88715809Y-77900523D01*
X88639619Y-77976714D01*
X88563428Y-78014809D01*
X88411047Y-78052904D01*
X88296761Y-78052904D01*
X88144380Y-78014809D01*
X88068190Y-77976714D01*
X87992000Y-77900523D01*
X87953904Y-77786238D01*
X87953904Y-77710047D01*
X87992000Y-77595761D01*
X88030095Y-77557666D01*
X85413904Y-79614809D02*
X85413904Y-79157666D01*
X86213904Y-79386238D02*
X85413904Y-79386238D01*
X85413904Y-78967190D02*
X86213904Y-78433857D01*
X85413904Y-78433857D02*
X86213904Y-78967190D01*
X86213904Y-78129095D02*
X85413904Y-78129095D01*
X85413904Y-77938619D01*
X85452000Y-77824333D01*
X85528190Y-77748142D01*
X85604380Y-77710047D01*
X85756761Y-77671952D01*
X85871047Y-77671952D01*
X86023428Y-77710047D01*
X86099619Y-77748142D01*
X86175809Y-77824333D01*
X86213904Y-77938619D01*
X86213904Y-78129095D01*
X83673904Y-79043380D02*
X83292952Y-79310047D01*
X83673904Y-79500523D02*
X82873904Y-79500523D01*
X82873904Y-79195761D01*
X82912000Y-79119571D01*
X82950095Y-79081476D01*
X83026285Y-79043380D01*
X83140571Y-79043380D01*
X83216761Y-79081476D01*
X83254857Y-79119571D01*
X83292952Y-79195761D01*
X83292952Y-79500523D01*
X82873904Y-78776714D02*
X83673904Y-78243380D01*
X82873904Y-78243380D02*
X83673904Y-78776714D01*
X83673904Y-77938619D02*
X82873904Y-77938619D01*
X82873904Y-77748142D01*
X82912000Y-77633857D01*
X82988190Y-77557666D01*
X83064380Y-77519571D01*
X83216761Y-77481476D01*
X83331047Y-77481476D01*
X83483428Y-77519571D01*
X83559619Y-77557666D01*
X83635809Y-77633857D01*
X83673904Y-77748142D01*
X83673904Y-77938619D01*
X81133904Y-79043380D02*
X80752952Y-79310047D01*
X81133904Y-79500523D02*
X80333904Y-79500523D01*
X80333904Y-79195761D01*
X80372000Y-79119571D01*
X80410095Y-79081476D01*
X80486285Y-79043380D01*
X80600571Y-79043380D01*
X80676761Y-79081476D01*
X80714857Y-79119571D01*
X80752952Y-79195761D01*
X80752952Y-79500523D01*
X80714857Y-78700523D02*
X80714857Y-78433857D01*
X81133904Y-78319571D02*
X81133904Y-78700523D01*
X80333904Y-78700523D01*
X80333904Y-78319571D01*
X81095809Y-78014809D02*
X81133904Y-77900523D01*
X81133904Y-77710047D01*
X81095809Y-77633857D01*
X81057714Y-77595761D01*
X80981523Y-77557666D01*
X80905333Y-77557666D01*
X80829142Y-77595761D01*
X80791047Y-77633857D01*
X80752952Y-77710047D01*
X80714857Y-77862428D01*
X80676761Y-77938619D01*
X80638666Y-77976714D01*
X80562476Y-78014809D01*
X80486285Y-78014809D01*
X80410095Y-77976714D01*
X80372000Y-77938619D01*
X80333904Y-77862428D01*
X80333904Y-77671952D01*
X80372000Y-77557666D01*
X80714857Y-77214809D02*
X80714857Y-76948142D01*
X81133904Y-76833857D02*
X81133904Y-77214809D01*
X80333904Y-77214809D01*
X80333904Y-76833857D01*
X80333904Y-76605285D02*
X80333904Y-76148142D01*
X81133904Y-76376714D02*
X80333904Y-76376714D01*
X71558095Y-95669000D02*
X71558095Y-96102333D01*
X71253333Y-95869000D01*
X71253333Y-95969000D01*
X71215238Y-96035666D01*
X71177142Y-96069000D01*
X71100952Y-96102333D01*
X70910476Y-96102333D01*
X70834285Y-96069000D01*
X70796190Y-96035666D01*
X70758095Y-95969000D01*
X70758095Y-95769000D01*
X70796190Y-95702333D01*
X70834285Y-95669000D01*
X70834285Y-96402333D02*
X70796190Y-96435666D01*
X70758095Y-96402333D01*
X70796190Y-96369000D01*
X70834285Y-96402333D01*
X70758095Y-96402333D01*
X71558095Y-96669000D02*
X71558095Y-97102333D01*
X71253333Y-96869000D01*
X71253333Y-96969000D01*
X71215238Y-97035666D01*
X71177142Y-97069000D01*
X71100952Y-97102333D01*
X70910476Y-97102333D01*
X70834285Y-97069000D01*
X70796190Y-97035666D01*
X70758095Y-96969000D01*
X70758095Y-96769000D01*
X70796190Y-96702333D01*
X70834285Y-96669000D01*
X71558095Y-97302333D02*
X70758095Y-97535666D01*
X71558095Y-97769000D01*
X68980000Y-96102333D02*
X69018095Y-96035666D01*
X69018095Y-95935666D01*
X68980000Y-95835666D01*
X68903809Y-95769000D01*
X68827619Y-95735666D01*
X68675238Y-95702333D01*
X68560952Y-95702333D01*
X68408571Y-95735666D01*
X68332380Y-95769000D01*
X68256190Y-95835666D01*
X68218095Y-95935666D01*
X68218095Y-96002333D01*
X68256190Y-96102333D01*
X68294285Y-96135666D01*
X68560952Y-96135666D01*
X68560952Y-96002333D01*
X68218095Y-96435666D02*
X69018095Y-96435666D01*
X68218095Y-96835666D01*
X69018095Y-96835666D01*
X68218095Y-97169000D02*
X69018095Y-97169000D01*
X69018095Y-97335666D01*
X68980000Y-97435666D01*
X68903809Y-97502333D01*
X68827619Y-97535666D01*
X68675238Y-97569000D01*
X68560952Y-97569000D01*
X68408571Y-97535666D01*
X68332380Y-97502333D01*
X68256190Y-97435666D01*
X68218095Y-97335666D01*
X68218095Y-97169000D01*
D12*
X93408666Y-87273380D02*
X93742000Y-88273380D01*
X94075333Y-87273380D01*
X94980095Y-88178142D02*
X94932476Y-88225761D01*
X94789619Y-88273380D01*
X94694380Y-88273380D01*
X94551523Y-88225761D01*
X94456285Y-88130523D01*
X94408666Y-88035285D01*
X94361047Y-87844809D01*
X94361047Y-87701952D01*
X94408666Y-87511476D01*
X94456285Y-87416238D01*
X94551523Y-87321000D01*
X94694380Y-87273380D01*
X94789619Y-87273380D01*
X94932476Y-87321000D01*
X94980095Y-87368619D01*
X95980095Y-88178142D02*
X95932476Y-88225761D01*
X95789619Y-88273380D01*
X95694380Y-88273380D01*
X95551523Y-88225761D01*
X95456285Y-88130523D01*
X95408666Y-88035285D01*
X95361047Y-87844809D01*
X95361047Y-87701952D01*
X95408666Y-87511476D01*
X95456285Y-87416238D01*
X95551523Y-87321000D01*
X95694380Y-87273380D01*
X95789619Y-87273380D01*
X95932476Y-87321000D01*
X95980095Y-87368619D01*
X92575333Y-88923380D02*
X92575333Y-89637666D01*
X92527714Y-89780523D01*
X92432476Y-89875761D01*
X92289619Y-89923380D01*
X92194380Y-89923380D01*
X93480095Y-89256714D02*
X93480095Y-89923380D01*
X93051523Y-89256714D02*
X93051523Y-89780523D01*
X93099142Y-89875761D01*
X93194380Y-89923380D01*
X93337238Y-89923380D01*
X93432476Y-89875761D01*
X93480095Y-89828142D01*
X93956285Y-89923380D02*
X93956285Y-89256714D01*
X93956285Y-89351952D02*
X94003904Y-89304333D01*
X94099142Y-89256714D01*
X94242000Y-89256714D01*
X94337238Y-89304333D01*
X94384857Y-89399571D01*
X94384857Y-89923380D01*
X94384857Y-89399571D02*
X94432476Y-89304333D01*
X94527714Y-89256714D01*
X94670571Y-89256714D01*
X94765809Y-89304333D01*
X94813428Y-89399571D01*
X94813428Y-89923380D01*
X95289619Y-89256714D02*
X95289619Y-90256714D01*
X95289619Y-89304333D02*
X95384857Y-89256714D01*
X95575333Y-89256714D01*
X95670571Y-89304333D01*
X95718190Y-89351952D01*
X95765809Y-89447190D01*
X95765809Y-89732904D01*
X95718190Y-89828142D01*
X95670571Y-89875761D01*
X95575333Y-89923380D01*
X95384857Y-89923380D01*
X95289619Y-89875761D01*
X96575333Y-89875761D02*
X96480095Y-89923380D01*
X96289619Y-89923380D01*
X96194380Y-89875761D01*
X96146761Y-89780523D01*
X96146761Y-89399571D01*
X96194380Y-89304333D01*
X96289619Y-89256714D01*
X96480095Y-89256714D01*
X96575333Y-89304333D01*
X96622952Y-89399571D01*
X96622952Y-89494809D01*
X96146761Y-89590047D01*
X97051523Y-89923380D02*
X97051523Y-89256714D01*
X97051523Y-89447190D02*
X97099142Y-89351952D01*
X97146761Y-89304333D01*
X97242000Y-89256714D01*
X97337238Y-89256714D01*
D11*
X72899476Y-87991904D02*
X72899476Y-87191904D01*
X73166142Y-87763333D01*
X73432809Y-87191904D01*
X73432809Y-87991904D01*
X73966142Y-87191904D02*
X74118523Y-87191904D01*
X74194714Y-87230000D01*
X74270904Y-87306190D01*
X74309000Y-87458571D01*
X74309000Y-87725238D01*
X74270904Y-87877619D01*
X74194714Y-87953809D01*
X74118523Y-87991904D01*
X73966142Y-87991904D01*
X73889952Y-87953809D01*
X73813761Y-87877619D01*
X73775666Y-87725238D01*
X73775666Y-87458571D01*
X73813761Y-87306190D01*
X73889952Y-87230000D01*
X73966142Y-87191904D01*
X74613761Y-87953809D02*
X74728047Y-87991904D01*
X74918523Y-87991904D01*
X74994714Y-87953809D01*
X75032809Y-87915714D01*
X75070904Y-87839523D01*
X75070904Y-87763333D01*
X75032809Y-87687142D01*
X74994714Y-87649047D01*
X74918523Y-87610952D01*
X74766142Y-87572857D01*
X74689952Y-87534761D01*
X74651857Y-87496666D01*
X74613761Y-87420476D01*
X74613761Y-87344285D01*
X74651857Y-87268095D01*
X74689952Y-87230000D01*
X74766142Y-87191904D01*
X74956619Y-87191904D01*
X75070904Y-87230000D01*
X75413761Y-87991904D02*
X75413761Y-87191904D01*
X72861380Y-80333809D02*
X72975666Y-80371904D01*
X73166142Y-80371904D01*
X73242333Y-80333809D01*
X73280428Y-80295714D01*
X73318523Y-80219523D01*
X73318523Y-80143333D01*
X73280428Y-80067142D01*
X73242333Y-80029047D01*
X73166142Y-79990952D01*
X73013761Y-79952857D01*
X72937571Y-79914761D01*
X72899476Y-79876666D01*
X72861380Y-79800476D01*
X72861380Y-79724285D01*
X72899476Y-79648095D01*
X72937571Y-79610000D01*
X73013761Y-79571904D01*
X73204238Y-79571904D01*
X73318523Y-79610000D01*
X74118523Y-80295714D02*
X74080428Y-80333809D01*
X73966142Y-80371904D01*
X73889952Y-80371904D01*
X73775666Y-80333809D01*
X73699476Y-80257619D01*
X73661380Y-80181428D01*
X73623285Y-80029047D01*
X73623285Y-79914761D01*
X73661380Y-79762380D01*
X73699476Y-79686190D01*
X73775666Y-79610000D01*
X73889952Y-79571904D01*
X73966142Y-79571904D01*
X74080428Y-79610000D01*
X74118523Y-79648095D01*
X74461380Y-80371904D02*
X74461380Y-79571904D01*
X74918523Y-80371904D02*
X74575666Y-79914761D01*
X74918523Y-79571904D02*
X74461380Y-80029047D01*
X74372619Y-82911904D02*
X74105952Y-82530952D01*
X73915476Y-82911904D02*
X73915476Y-82111904D01*
X74220238Y-82111904D01*
X74296428Y-82150000D01*
X74334523Y-82188095D01*
X74372619Y-82264285D01*
X74372619Y-82378571D01*
X74334523Y-82454761D01*
X74296428Y-82492857D01*
X74220238Y-82530952D01*
X73915476Y-82530952D01*
X74677380Y-82873809D02*
X74791666Y-82911904D01*
X74982142Y-82911904D01*
X75058333Y-82873809D01*
X75096428Y-82835714D01*
X75134523Y-82759523D01*
X75134523Y-82683333D01*
X75096428Y-82607142D01*
X75058333Y-82569047D01*
X74982142Y-82530952D01*
X74829761Y-82492857D01*
X74753571Y-82454761D01*
X74715476Y-82416666D01*
X74677380Y-82340476D01*
X74677380Y-82264285D01*
X74715476Y-82188095D01*
X74753571Y-82150000D01*
X74829761Y-82111904D01*
X75020238Y-82111904D01*
X75134523Y-82150000D01*
X75363095Y-82111904D02*
X75820238Y-82111904D01*
X75591666Y-82911904D02*
X75591666Y-82111904D01*
X72899476Y-77831904D02*
X72899476Y-77031904D01*
X73166142Y-77603333D01*
X73432809Y-77031904D01*
X73432809Y-77831904D01*
X73813761Y-77831904D02*
X73813761Y-77031904D01*
X74156619Y-77793809D02*
X74270904Y-77831904D01*
X74461380Y-77831904D01*
X74537571Y-77793809D01*
X74575666Y-77755714D01*
X74613761Y-77679523D01*
X74613761Y-77603333D01*
X74575666Y-77527142D01*
X74537571Y-77489047D01*
X74461380Y-77450952D01*
X74309000Y-77412857D01*
X74232809Y-77374761D01*
X74194714Y-77336666D01*
X74156619Y-77260476D01*
X74156619Y-77184285D01*
X74194714Y-77108095D01*
X74232809Y-77070000D01*
X74309000Y-77031904D01*
X74499476Y-77031904D01*
X74613761Y-77070000D01*
X75109000Y-77031904D02*
X75261380Y-77031904D01*
X75337571Y-77070000D01*
X75413761Y-77146190D01*
X75451857Y-77298571D01*
X75451857Y-77565238D01*
X75413761Y-77717619D01*
X75337571Y-77793809D01*
X75261380Y-77831904D01*
X75109000Y-77831904D01*
X75032809Y-77793809D01*
X74956619Y-77717619D01*
X74918523Y-77565238D01*
X74918523Y-77298571D01*
X74956619Y-77146190D01*
X75032809Y-77070000D01*
X75109000Y-77031904D01*
D12*
X88076738Y-94448380D02*
X88410071Y-95448380D01*
X88743404Y-94448380D01*
X89076738Y-95448380D02*
X89076738Y-94781714D01*
X89076738Y-94448380D02*
X89029119Y-94496000D01*
X89076738Y-94543619D01*
X89124357Y-94496000D01*
X89076738Y-94448380D01*
X89076738Y-94543619D01*
X89552928Y-94781714D02*
X89552928Y-95448380D01*
X89552928Y-94876952D02*
X89600547Y-94829333D01*
X89695785Y-94781714D01*
X89838642Y-94781714D01*
X89933880Y-94829333D01*
X89981500Y-94924571D01*
X89981500Y-95448380D01*
X87965595Y-92908380D02*
X87965595Y-91908380D01*
X88394166Y-92860761D02*
X88537023Y-92908380D01*
X88775119Y-92908380D01*
X88870357Y-92860761D01*
X88917976Y-92813142D01*
X88965595Y-92717904D01*
X88965595Y-92622666D01*
X88917976Y-92527428D01*
X88870357Y-92479809D01*
X88775119Y-92432190D01*
X88584642Y-92384571D01*
X88489404Y-92336952D01*
X88441785Y-92289333D01*
X88394166Y-92194095D01*
X88394166Y-92098857D01*
X88441785Y-92003619D01*
X88489404Y-91956000D01*
X88584642Y-91908380D01*
X88822738Y-91908380D01*
X88965595Y-91956000D01*
X89394166Y-92908380D02*
X89394166Y-91908380D01*
X89775119Y-91908380D01*
X89870357Y-91956000D01*
X89917976Y-92003619D01*
X89965595Y-92098857D01*
X89965595Y-92241714D01*
X89917976Y-92336952D01*
X89870357Y-92384571D01*
X89775119Y-92432190D01*
X89394166Y-92432190D01*
X88298928Y-89844571D02*
X87965595Y-89844571D01*
X87965595Y-90368380D02*
X87965595Y-89368380D01*
X88441785Y-89368380D01*
X88679880Y-89368380D02*
X89251309Y-89368380D01*
X88965595Y-90368380D02*
X88965595Y-89368380D01*
X89584642Y-90368380D02*
X89584642Y-89368380D01*
X89822738Y-89368380D01*
X89965595Y-89416000D01*
X90060833Y-89511238D01*
X90108452Y-89606476D01*
X90156071Y-89796952D01*
X90156071Y-89939809D01*
X90108452Y-90130285D01*
X90060833Y-90225523D01*
X89965595Y-90320761D01*
X89822738Y-90368380D01*
X89584642Y-90368380D01*
X90584642Y-90368380D02*
X90584642Y-89368380D01*
D10*
X80772000Y-82864000D02*
X79442000Y-82864000D01*
X79442000Y-82864000D02*
X79442000Y-80204000D01*
X79442000Y-80204000D02*
X94802000Y-80204000D01*
X80532000Y-82864000D02*
X94802000Y-82864000D01*
X94802000Y-82864000D02*
X94802000Y-80204000D01*
X69850000Y-76140000D02*
X72450000Y-76140000D01*
X67270000Y-76140000D02*
X69850000Y-76140000D01*
X67250000Y-78740000D02*
X67250000Y-76150000D01*
X67250000Y-78740000D02*
X67250000Y-88960000D01*
X67250000Y-88960000D02*
X72450000Y-88960000D01*
X72450000Y-84240000D02*
X72450000Y-88960000D01*
X72450000Y-80800000D02*
X73460000Y-80800000D01*
X73460000Y-80800000D02*
X73460000Y-84240000D01*
X73460000Y-84240000D02*
X72450000Y-84240000D01*
X72450000Y-76140000D02*
X72450000Y-80800000D01*
X67564000Y-69850000D02*
X67310000Y-69850000D01*
X67564000Y-64770000D02*
X67310000Y-64770000D01*
X67564000Y-62230000D02*
X67310000Y-62230000D01*
X67564000Y-59690000D02*
X67310000Y-59690000D01*
X81026000Y-69850000D02*
X80772000Y-69850000D01*
X81026000Y-59690000D02*
X80772000Y-59690000D01*
X81026000Y-64770000D02*
X80772000Y-64770000D01*
X81026000Y-62230000D02*
X80772000Y-62230000D01*
X96774000Y-59690000D02*
X97028000Y-59690000D01*
X96774000Y-64770000D02*
X97028000Y-64770000D01*
X96774000Y-67310000D02*
X97028000Y-67310000D01*
X96774000Y-69850000D02*
X97028000Y-69850000D01*
X83312000Y-59690000D02*
X83566000Y-59690000D01*
X83312000Y-69850000D02*
X83566000Y-69850000D01*
X83312000Y-64770000D02*
X83566000Y-64770000D01*
X83312000Y-67310000D02*
X83566000Y-67310000D01*
X96326000Y-91126000D02*
X96326000Y-92456000D01*
X94996000Y-91126000D02*
X96326000Y-91126000D01*
X96326000Y-93726000D02*
X96326000Y-96326000D01*
X93726000Y-93726000D02*
X96326000Y-93726000D01*
X93726000Y-91126000D02*
X93726000Y-93726000D01*
X96326000Y-96326000D02*
X93666000Y-96326000D01*
X93726000Y-91126000D02*
X93666000Y-91126000D01*
X93666000Y-91126000D02*
X93666000Y-96326000D01*
X72450000Y-92396000D02*
X72450000Y-93726000D01*
X71120000Y-92396000D02*
X72450000Y-92396000D01*
X69850000Y-92396000D02*
X69850000Y-95056000D01*
X69850000Y-95056000D02*
X67250000Y-95056000D01*
X69850000Y-92396000D02*
X67250000Y-92396000D01*
X67250000Y-92396000D02*
X67250000Y-95056000D01*
X81619333Y-94361000D02*
X81619333Y-95631000D01*
X80266000Y-95561000D02*
X81619333Y-95561000D01*
X80266000Y-95441000D02*
X81619333Y-95441000D01*
X80266000Y-95321000D02*
X81619333Y-95321000D01*
X80266000Y-95201000D02*
X81619333Y-95201000D01*
X80266000Y-95081000D02*
X81619333Y-95081000D01*
X80266000Y-94961000D02*
X81619333Y-94961000D01*
X80266000Y-94841000D02*
X81619333Y-94841000D01*
X80266000Y-94721000D02*
X81619333Y-94721000D01*
X80266000Y-94601000D02*
X81619333Y-94601000D01*
X80266000Y-94481000D02*
X81619333Y-94481000D01*
X84326000Y-94361000D02*
X80266000Y-94361000D01*
X84326000Y-95631000D02*
X84326000Y-94361000D01*
X80266000Y-95631000D02*
X84326000Y-95631000D01*
X80266000Y-94361000D02*
X80266000Y-95631000D01*
X81619333Y-91821000D02*
X81619333Y-93091000D01*
X80266000Y-93021000D02*
X81619333Y-93021000D01*
X80266000Y-92901000D02*
X81619333Y-92901000D01*
X80266000Y-92781000D02*
X81619333Y-92781000D01*
X80266000Y-92661000D02*
X81619333Y-92661000D01*
X80266000Y-92541000D02*
X81619333Y-92541000D01*
X80266000Y-92421000D02*
X81619333Y-92421000D01*
X80266000Y-92301000D02*
X81619333Y-92301000D01*
X80266000Y-92181000D02*
X81619333Y-92181000D01*
X80266000Y-92061000D02*
X81619333Y-92061000D01*
X80266000Y-91941000D02*
X81619333Y-91941000D01*
X84326000Y-91821000D02*
X80266000Y-91821000D01*
X84326000Y-93091000D02*
X84326000Y-91821000D01*
X80266000Y-93091000D02*
X84326000Y-93091000D01*
X80266000Y-91821000D02*
X80266000Y-93091000D01*
X81619333Y-89281000D02*
X81619333Y-90551000D01*
X80266000Y-90481000D02*
X81619333Y-90481000D01*
X80266000Y-90361000D02*
X81619333Y-90361000D01*
X80266000Y-90241000D02*
X81619333Y-90241000D01*
X80266000Y-90121000D02*
X81619333Y-90121000D01*
X80266000Y-90001000D02*
X81619333Y-90001000D01*
X80266000Y-89881000D02*
X81619333Y-89881000D01*
X80266000Y-89761000D02*
X81619333Y-89761000D01*
X80266000Y-89641000D02*
X81619333Y-89641000D01*
X80266000Y-89521000D02*
X81619333Y-89521000D01*
X80266000Y-89401000D02*
X81619333Y-89401000D01*
X84326000Y-89281000D02*
X80266000Y-89281000D01*
X84326000Y-90551000D02*
X84326000Y-89281000D01*
X80266000Y-90551000D02*
X84326000Y-90551000D01*
X80266000Y-89281000D02*
X80266000Y-90551000D01*
X77106000Y-87256000D02*
X77106000Y-88639000D01*
X77106000Y-87256000D02*
X78490000Y-87256000D01*
X87246000Y-87496000D02*
X87246000Y-97416000D01*
X77346000Y-87496000D02*
X77346000Y-97416000D01*
X77346000Y-97416000D02*
X87246000Y-97416000D01*
X77346000Y-87496000D02*
X87246000Y-87496000D01*
D12*
X78684952Y-85812380D02*
X79018285Y-86812380D01*
X79351619Y-85812380D01*
X80256380Y-86717142D02*
X80208761Y-86764761D01*
X80065904Y-86812380D01*
X79970666Y-86812380D01*
X79827809Y-86764761D01*
X79732571Y-86669523D01*
X79684952Y-86574285D01*
X79637333Y-86383809D01*
X79637333Y-86240952D01*
X79684952Y-86050476D01*
X79732571Y-85955238D01*
X79827809Y-85860000D01*
X79970666Y-85812380D01*
X80065904Y-85812380D01*
X80208761Y-85860000D01*
X80256380Y-85907619D01*
X81256380Y-86717142D02*
X81208761Y-86764761D01*
X81065904Y-86812380D01*
X80970666Y-86812380D01*
X80827809Y-86764761D01*
X80732571Y-86669523D01*
X80684952Y-86574285D01*
X80637333Y-86383809D01*
X80637333Y-86240952D01*
X80684952Y-86050476D01*
X80732571Y-85955238D01*
X80827809Y-85860000D01*
X80970666Y-85812380D01*
X81065904Y-85812380D01*
X81208761Y-85860000D01*
X81256380Y-85907619D01*
X82399238Y-86764761D02*
X82542095Y-86812380D01*
X82780190Y-86812380D01*
X82875428Y-86764761D01*
X82923047Y-86717142D01*
X82970666Y-86621904D01*
X82970666Y-86526666D01*
X82923047Y-86431428D01*
X82875428Y-86383809D01*
X82780190Y-86336190D01*
X82589714Y-86288571D01*
X82494476Y-86240952D01*
X82446857Y-86193333D01*
X82399238Y-86098095D01*
X82399238Y-86002857D01*
X82446857Y-85907619D01*
X82494476Y-85860000D01*
X82589714Y-85812380D01*
X82827809Y-85812380D01*
X82970666Y-85860000D01*
X83304000Y-86145714D02*
X83494476Y-86812380D01*
X83684952Y-86336190D01*
X83875428Y-86812380D01*
X84065904Y-86145714D01*
X84446857Y-86812380D02*
X84446857Y-86145714D01*
X84446857Y-85812380D02*
X84399238Y-85860000D01*
X84446857Y-85907619D01*
X84494476Y-85860000D01*
X84446857Y-85812380D01*
X84446857Y-85907619D01*
X84780190Y-86145714D02*
X85161142Y-86145714D01*
X84923047Y-85812380D02*
X84923047Y-86669523D01*
X84970666Y-86764761D01*
X85065904Y-86812380D01*
X85161142Y-86812380D01*
X85923047Y-86764761D02*
X85827809Y-86812380D01*
X85637333Y-86812380D01*
X85542095Y-86764761D01*
X85494476Y-86717142D01*
X85446857Y-86621904D01*
X85446857Y-86336190D01*
X85494476Y-86240952D01*
X85542095Y-86193333D01*
X85637333Y-86145714D01*
X85827809Y-86145714D01*
X85923047Y-86193333D01*
X86351619Y-86812380D02*
X86351619Y-85812380D01*
X86780190Y-86812380D02*
X86780190Y-86288571D01*
X86732571Y-86193333D01*
X86637333Y-86145714D01*
X86494476Y-86145714D01*
X86399238Y-86193333D01*
X86351619Y-86240952D01*
M02*
