<?xml version="1.0" encoding="UTF-8" standalone="no"?>
<svg xmlns:dc="http://purl.org/dc/elements/1.1/" xmlns:cc="http://creativecommons.org/ns#" xmlns:rdf="http://www.w3.org/1999/02/22-rdf-syntax-ns#" xmlns:svg="http://www.w3.org/2000/svg" xmlns="http://www.w3.org/2000/svg" xmlns:xlink="http://www.w3.org/1999/xlink" xmlns:sodipodi="http://sodipodi.sourceforge.net/DTD/sodipodi-0.dtd" xmlns:inkscape="http://www.inkscape.org/namespaces/inkscape" version="1.1" id="bVvK2ArDHB4L35D8YgKq_bottom" viewBox="66548 -98044 1.302e+05 1.628e+05" width="492.3" height="615.1" class="w-100 h-100" sodipodi:docname="bottom.svg" inkscape:version="0.92.4 5da689c313, 2019-01-14" style="clip-rule:evenodd;fill-rule:evenodd;stroke-width:0;stroke-linecap:round;stroke-linejoin:round">
  <metadata id="metadata256">
    <rdf:RDF>
      <cc:Work rdf:about="">
        <dc:format>image/svg+xml</dc:format>
        <dc:type rdf:resource="http://purl.org/dc/dcmitype/StillImage" />
        <dc:title />
      </cc:Work>
    </rdf:RDF>
  </metadata>
  <sodipodi:namedview pagecolor="#ffffff" bordercolor="#666666" borderopacity="1" objecttolerance="10" gridtolerance="10" guidetolerance="10" inkscape:pageopacity="0" inkscape:pageshadow="2" inkscape:window-width="640" inkscape:window-height="480" id="namedview254" showgrid="false" inkscape:zoom="3.534" inkscape:cx="181.3" inkscape:cy="330.5" inkscape:current-layer="bVvK2ArDHB4L35D8YgKq_bottom" fit-margin-top="10" fit-margin-left="10" fit-margin-right="10" fit-margin-bottom="10" units="px" />
  <defs id="defs237">
    <inkscape:path-effect effect="bspline" id="path-effect970" is_visible="true" weight="33.33" steps="2" helper_size="0" apply_no_weight="true" apply_with_weight="true" only_selected="false" />
    <inkscape:perspective sodipodi:type="inkscape:persp3d" inkscape:vp_x="0 : 81400 : 1" inkscape:vp_y="0 : 1000 : 0" inkscape:vp_z="130200 : 81400 : 1" inkscape:persp3d-origin="65100 : 5.427e+04 : 1" id="perspective948" />
    <style id="style2">.bVvK2ArDHB4L35D8YgKq_fr4 {color: #666666;}
.bVvK2ArDHB4L35D8YgKq_cu {color: #cccccc;}
.bVvK2ArDHB4L35D8YgKq_cf {color: #cc9933;}
.bVvK2ArDHB4L35D8YgKq_sm {color: #004200; opacity: 0.75;}
.bVvK2ArDHB4L35D8YgKq_ss {color: #ffffff;}
.bVvK2ArDHB4L35D8YgKq_sp {color: #999999;}
.bVvK2ArDHB4L35D8YgKq_out {color: #000000;}</style>
    <rect x="-850" y="-850" width="1700" height="1700" rx="850" ry="850" id="W82G8ydRPPU2zdyZYk7g_pad-10" />
    <rect x="-850" y="-850" width="1700" height="1700" id="W82G8ydRPPU2zdyZYk7g_pad-11" />
    <circle cx="0" cy="0" r="850" id="W82G8ydRPPU2zdyZYk7g_pad-12" />
    <circle cx="0" cy="0" r="900" id="W82G8ydRPPU2zdyZYk7g_pad-13" />
    <rect x="-800" y="-800" width="1600" height="1600" rx="800" ry="800" id="W82G8ydRPPU2zdyZYk7g_pad-14" />
    <rect x="-800" y="-800" width="1600" height="1600" id="W82G8ydRPPU2zdyZYk7g_pad-15" />
    <circle cx="0" cy="0" r="400" id="W82G8ydRPPU2zdyZYk7g_pad-16" />
    <circle cx="0" cy="0" r="7.85" id="i_BfHeVigi7uFCeXzRdo_pad-1" />
    <circle cx="0" cy="0" r="15.75" id="i_BfHeVigi7uFCeXzRdo_pad-2" />
    <circle cx="0" cy="0" r="19.7" id="i_BfHeVigi7uFCeXzRdo_pad-3" />
    <g id="bVvK2ArDHB4L35D8YgKq_bottom_soldermask">
      <path d="m 95900,-95900 h -1800 v 1800 h 1800 v -1800" id="path14" inkscape:connector-curvature="0" />
      <path d="m 86350,-94180 160,-60 140,-100 120,-110 90,-140 60,-160 40,-160 v -170 l -40,-160 -60,-160 -90,-140 -120,-120 -140,-90 -160,-60 -160,-40 h -170 l -160,40 -160,60 -140,90 -110,120 -100,140 -60,160 -30,160 v 170 l 30,160 60,160 100,140 110,110 140,100 160,60 160,30 h 170 l 160,-30" id="path16" inkscape:connector-curvature="0" />
      <path d="m 78730,-94180 160,-60 140,-100 120,-110 90,-140 60,-160 40,-160 v -170 l -40,-160 -60,-160 -90,-140 -120,-120 -140,-90 -160,-60 -160,-40 h -170 l -160,40 -160,60 -140,90 -110,120 -100,140 -60,160 -30,160 v 170 l 30,160 60,160 100,140 110,110 140,100 160,60 160,30 h 170 l 160,-30" id="path18" inkscape:connector-curvature="0" />
      <path d="m 68690,-92830 150,-30 170,-70 140,-100 130,-120 100,-150 70,-160 30,-180 v -180 l -30,-170 -70,-160 -100,-150 -130,-130 -140,-90 -170,-70 -150,-30 -20,-10 h -180 l -20,10 -150,30 -170,70 -140,90 -130,130 -100,150 -70,160 -30,170 v 180 l 30,180 70,160 100,150 130,120 140,100 170,70 150,30 h 20 180 20" id="path20" inkscape:connector-curvature="0" />
      <path d="m 72020,-94630 h -1800 v 1800 h 1800 v -1800" id="path22" inkscape:connector-curvature="0" />
      <path d="m 95900,-93360 h -1800 v 1800 h 1800 v -1800" id="path24" inkscape:connector-curvature="0" />
      <path d="m 86350,-91640 160,-60 140,-100 120,-110 90,-140 60,-160 40,-160 v -170 l -40,-160 -60,-160 -90,-140 -120,-120 -140,-90 -160,-60 -160,-40 h -170 l -160,40 -160,60 -140,90 -110,120 -100,140 -60,160 -30,160 v 170 l 30,160 60,160 100,140 110,110 140,100 160,60 160,30 h 170 l 160,-30" id="path26" inkscape:connector-curvature="0" />
      <path d="m 78730,-91640 160,-60 140,-100 120,-110 90,-140 60,-160 40,-160 v -170 l -40,-160 -60,-160 -90,-140 -120,-120 -140,-90 -160,-60 -160,-40 h -170 l -160,40 -160,60 -140,90 -110,120 -100,140 -60,160 -30,160 v 170 l 30,160 60,160 100,140 110,110 140,100 160,60 160,30 h 170 l 160,-30" id="path28" inkscape:connector-curvature="0" />
      <path d="m 79340,-90770 h -1700 v 1700 h 1700 v -1700" id="path30" inkscape:connector-curvature="0" />
      <path d="m 86350,-89100 160,-60 140,-100 120,-110 90,-140 60,-160 40,-160 v -170 l -40,-160 -60,-160 -90,-140 -120,-120 -140,-90 -160,-60 -160,-40 h -170 l -160,40 -160,60 -140,90 -110,120 -100,140 -60,160 -30,160 v 170 l 30,160 60,160 100,140 110,110 140,100 160,60 160,30 h 170 l 160,-30" id="path32" inkscape:connector-curvature="0" />
      <path d="m 71230,-86730 150,-30 170,-70 140,-100 130,-130 100,-140 70,-170 30,-170 v -180 l -30,-170 -70,-170 -100,-140 -130,-130 -140,-100 -170,-70 -150,-30 h -20 -180 -20 l -150,30 -170,70 -140,100 -130,130 -100,140 -70,170 -30,170 v 180 l 30,170 70,170 100,140 130,130 140,100 170,70 150,30 h 20 180 20" id="path34" inkscape:connector-curvature="0" />
      <path d="m 69480,-88530 h -1800 v 1800 h 1800 v -1800" id="path36" inkscape:connector-curvature="0" />
      <path d="m 71230,-84190 150,-30 170,-70 140,-100 130,-130 100,-140 70,-170 30,-170 v -180 l -30,-170 -70,-170 -100,-140 -130,-130 -140,-100 -170,-70 -150,-30 h -20 -180 -20 l -150,30 -170,70 -140,100 -130,130 -100,140 -70,170 -30,170 v 180 l 30,170 70,170 100,140 130,130 140,100 170,70 150,30 h 20 180 20" id="path38" inkscape:connector-curvature="0" />
      <path d="m 68690,-84190 150,-30 170,-70 140,-100 130,-130 100,-140 70,-170 30,-170 v -180 l -30,-170 -70,-170 -100,-140 -130,-130 -140,-100 -170,-70 -150,-30 h -20 -180 -20 l -150,30 -170,70 -140,100 -130,130 -100,140 -70,170 -30,170 v 180 l 30,170 70,170 100,140 130,130 140,100 170,70 150,30 h 20 180 20" id="path40" inkscape:connector-curvature="0" />
      <path d="m 71230,-81650 150,-30 170,-70 140,-100 130,-130 100,-140 70,-170 30,-170 v -180 l -30,-170 -70,-170 -100,-140 -130,-130 -140,-100 -170,-70 -150,-30 h -20 -180 -20 l -150,30 -170,70 -140,100 -130,130 -100,140 -70,170 -30,170 v 180 l 30,170 70,170 100,140 130,130 140,100 170,70 150,30 h 20 180 20" id="path42" inkscape:connector-curvature="0" />
      <path d="m 68690,-81650 150,-30 170,-70 140,-100 130,-130 100,-140 70,-170 30,-170 v -180 l -30,-170 -70,-170 -100,-140 -130,-130 -140,-100 -170,-70 -150,-30 h -20 -180 -20 l -150,30 -170,70 -140,100 -130,130 -100,140 -70,170 -30,170 v 180 l 30,170 70,170 100,140 130,130 140,100 170,70 150,30 h 20 180 20" id="path44" inkscape:connector-curvature="0" />
      <path d="m 85970,-80640 150,-30 160,-70 150,-90 120,-130 100,-150 70,-160 30,-180 v -170 l -30,-180 -70,-160 -100,-150 -120,-120 -150,-100 -160,-70 -150,-30 -30,-10 h -180 l -20,10 -150,30 -160,70 -150,100 -130,120 -100,150 -60,160 -40,180 v 170 l 40,180 60,160 100,150 130,130 150,90 160,70 150,30 20,10 h 180 l 30,-10" id="path46" inkscape:connector-curvature="0" />
      <path d="m 83430,-80640 150,-30 160,-70 150,-90 120,-130 100,-150 70,-160 30,-180 v -170 l -30,-180 -70,-160 -100,-150 -120,-120 -150,-100 -160,-70 -150,-30 -30,-10 h -180 l -20,10 -150,30 -160,70 -150,100 -130,120 -100,150 -60,160 -40,180 v 170 l 40,180 60,160 100,150 130,130 150,90 160,70 150,30 20,10 h 180 l 30,-10" id="path48" inkscape:connector-curvature="0" />
      <path d="m 80890,-80640 150,-30 160,-70 150,-90 120,-130 100,-150 70,-160 30,-180 v -170 l -30,-180 -70,-160 -100,-150 -120,-120 -150,-100 -160,-70 -150,-30 -30,-10 h -180 l -20,10 -150,30 -160,70 -150,100 -130,120 -100,150 -60,160 -40,180 v 170 l 40,180 60,160 100,150 130,130 150,90 160,70 150,30 20,10 h 180 l 30,-10" id="path50" inkscape:connector-curvature="0" />
      <path d="m 93590,-80640 150,-30 160,-70 150,-90 120,-130 100,-150 70,-160 30,-180 v -170 l -30,-180 -70,-160 -100,-150 -120,-120 -150,-100 -160,-70 -150,-30 -30,-10 h -180 l -20,10 -150,30 -160,70 -150,100 -130,120 -100,150 -60,160 -40,180 v 170 l 40,180 60,160 100,150 130,130 150,90 160,70 150,30 20,10 h 180 l 30,-10" id="path52" inkscape:connector-curvature="0" />
      <path d="m 91050,-80640 150,-30 160,-70 150,-90 120,-130 100,-150 70,-160 30,-180 v -170 l -30,-180 -70,-160 -100,-150 -120,-120 -150,-100 -160,-70 -150,-30 -30,-10 h -180 l -20,10 -150,30 -160,70 -150,100 -130,120 -100,150 -60,160 -40,180 v 170 l 40,180 60,160 100,150 130,130 150,90 160,70 150,30 20,10 h 180 l 30,-10" id="path54" inkscape:connector-curvature="0" />
      <path d="m 89290,-82440 h -1800 v 1810 h 1800 v -1810" id="path56" inkscape:connector-curvature="0" />
      <path d="m 68860,-79100 170,-70 v 0 l 160,-100 130,-130 v 0 l 100,-160 70,-170 40,-190 v -180 l -40,-190 -70,-170 v 0 l -100,-160 -130,-130 -80,-50 -80,-50 -170,-70 -190,-40 h -180 l -190,40 -170,70 -80,50 -80,50 -130,130 -100,160 v 0 l -70,170 -40,190 v 180 l 40,190 70,170 100,160 v 0 l 130,130 160,100 v 0 l 170,70 190,40 h 180 l 190,-40" id="path58" inkscape:connector-curvature="0" />
      <path d="m 71230,-79110 150,-30 170,-70 140,-100 130,-130 100,-140 70,-170 30,-170 v -180 l -30,-170 -70,-170 -100,-140 -130,-130 -140,-100 -170,-70 -150,-30 h -20 -180 -20 l -150,30 -170,70 -140,100 -130,130 -100,140 -70,170 -30,170 v 180 l 30,170 70,170 100,140 130,130 140,100 170,70 150,30 h 20 180 20" id="path60" inkscape:connector-curvature="0" />
      <path d="m 71230,-76570 150,-30 170,-70 140,-100 130,-130 100,-140 70,-170 30,-170 v -180 l -30,-170 -70,-170 -100,-140 -130,-130 -140,-100 -170,-70 -150,-30 h -20 -180 -20 l -150,30 -170,70 -140,100 -130,130 -100,140 -70,170 -30,170 v 180 l 30,170 70,170 100,140 130,130 140,100 170,70 150,30 h 20 180 20" id="path62" inkscape:connector-curvature="0" />
      <path d="m 68690,-76570 150,-30 170,-70 140,-100 130,-130 100,-140 70,-170 30,-170 v -180 l -30,-170 -70,-170 -100,-140 -130,-130 -140,-100 -170,-70 -150,-30 h -20 -180 -20 l -150,30 -170,70 -140,100 -130,130 -100,140 -70,170 -30,170 v 180 l 30,170 70,170 100,140 130,130 140,100 170,70 150,30 h 20 180 20" id="path64" inkscape:connector-curvature="0" />
    </g>
    <g id="bVvK2ArDHB4L35D8YgKq_bottom_copper">
      <use xlink:href="#W82G8ydRPPU2zdyZYk7g_pad-10" x="93472" y="-81534" id="use67" width="100%" height="100%" />
      <use xlink:href="#W82G8ydRPPU2zdyZYk7g_pad-10" x="90932" y="-81534" id="use69" width="100%" height="100%" />
      <use xlink:href="#W82G8ydRPPU2zdyZYk7g_pad-11" x="88392" y="-81534" id="use71" width="100%" height="100%" />
      <use xlink:href="#W82G8ydRPPU2zdyZYk7g_pad-10" x="85852" y="-81534" id="use73" width="100%" height="100%" />
      <use xlink:href="#W82G8ydRPPU2zdyZYk7g_pad-10" x="83312" y="-81534" id="use75" width="100%" height="100%" />
      <use xlink:href="#W82G8ydRPPU2zdyZYk7g_pad-12" x="80772" y="-81534" id="use77" width="100%" height="100%" />
      <use xlink:href="#W82G8ydRPPU2zdyZYk7g_pad-10" x="71120" y="-87630" id="use79" width="100%" height="100%" />
      <use xlink:href="#W82G8ydRPPU2zdyZYk7g_pad-11" x="68580" y="-87630" id="use81" width="100%" height="100%" />
      <use xlink:href="#W82G8ydRPPU2zdyZYk7g_pad-10" x="71120" y="-85090" id="use83" width="100%" height="100%" />
      <use xlink:href="#W82G8ydRPPU2zdyZYk7g_pad-10" x="68580" y="-85090" id="use85" width="100%" height="100%" />
      <use xlink:href="#W82G8ydRPPU2zdyZYk7g_pad-10" x="71120" y="-82550" id="use87" width="100%" height="100%" />
      <use xlink:href="#W82G8ydRPPU2zdyZYk7g_pad-10" x="68580" y="-82550" id="use89" width="100%" height="100%" />
      <use xlink:href="#W82G8ydRPPU2zdyZYk7g_pad-10" x="71120" y="-80010" id="use91" width="100%" height="100%" />
      <use xlink:href="#W82G8ydRPPU2zdyZYk7g_pad-13" x="68580" y="-80010" id="use93" width="100%" height="100%" />
      <use xlink:href="#W82G8ydRPPU2zdyZYk7g_pad-10" x="71120" y="-77470" id="use95" width="100%" height="100%" />
      <use xlink:href="#W82G8ydRPPU2zdyZYk7g_pad-12" x="68580" y="-77470" id="use97" width="100%" height="100%" />
      <use xlink:href="#W82G8ydRPPU2zdyZYk7g_pad-11" x="94996" y="-94996" id="use99" width="100%" height="100%" />
      <use xlink:href="#W82G8ydRPPU2zdyZYk7g_pad-11" x="94996" y="-92456" id="use101" width="100%" height="100%" />
      <use xlink:href="#W82G8ydRPPU2zdyZYk7g_pad-10" x="68580" y="-93726" id="use103" width="100%" height="100%" />
      <use xlink:href="#W82G8ydRPPU2zdyZYk7g_pad-11" x="71120" y="-93726" id="use105" width="100%" height="100%" />
      <use xlink:href="#W82G8ydRPPU2zdyZYk7g_pad-14" x="86106" y="-89916" id="use107" width="100%" height="100%" />
      <use xlink:href="#W82G8ydRPPU2zdyZYk7g_pad-14" x="78486" y="-94996" id="use109" width="100%" height="100%" />
      <use xlink:href="#W82G8ydRPPU2zdyZYk7g_pad-14" x="86106" y="-92456" id="use111" width="100%" height="100%" />
      <use xlink:href="#W82G8ydRPPU2zdyZYk7g_pad-14" x="78486" y="-92456" id="use113" width="100%" height="100%" />
      <use xlink:href="#W82G8ydRPPU2zdyZYk7g_pad-14" x="86106" y="-94996" id="use115" width="100%" height="100%" />
      <use xlink:href="#W82G8ydRPPU2zdyZYk7g_pad-15" x="78486" y="-89916" id="use117" width="100%" height="100%" />
      <use xlink:href="#W82G8ydRPPU2zdyZYk7g_pad-16" x="91440" y="-59690" id="use119" width="100%" height="100%" />
      <use xlink:href="#W82G8ydRPPU2zdyZYk7g_pad-16" x="77470" y="-75692" id="use121" width="100%" height="100%" />
      <use xlink:href="#W82G8ydRPPU2zdyZYk7g_pad-16" x="72390" y="-59690" id="use123" width="100%" height="100%" />
      <use xlink:href="#W82G8ydRPPU2zdyZYk7g_pad-16" x="72390" y="-62230" id="use125" width="100%" height="100%" />
      <use xlink:href="#W82G8ydRPPU2zdyZYk7g_pad-16" x="72390" y="-64770" id="use127" width="100%" height="100%" />
      <use xlink:href="#W82G8ydRPPU2zdyZYk7g_pad-16" x="72390" y="-69850" id="use129" width="100%" height="100%" />
      <use xlink:href="#W82G8ydRPPU2zdyZYk7g_pad-16" x="91440" y="-64770" id="use131" width="100%" height="100%" />
      <use xlink:href="#W82G8ydRPPU2zdyZYk7g_pad-16" x="91440" y="-67310" id="use133" width="100%" height="100%" />
      <path d="m 72390,-59690 -4060,-4060 v -8640 l 2790,-2790 v -2290 m 1020,-2540 h -1020 m 1270,17780 -2540,-2540 v -7620 l 3300,-3300 v -3300 l -1010,-1020 m 1270,-2540 h -2290 m 3300,6860 v -5840 m -2430,16360 v -1270 l -870,-870 m 1270,2540 -400,-400 m 2430,-16360 -1010,-1020 m -2290,15240 v -5080 l 3300,-3300 m -510,-11940 h -2790 m 4570,1780 -1780,-1780 m 1780,11940 v -10160 m -3300,16000 v -2540 l 3300,-3300 m 13720,250 -6100,-6090 m 8130,16760 -2030,-2030 v -8640 m 2030,-510 -5590,-5580 m 5590,14220 v -8640" id="path135" inkscape:connector-curvature="0" style="fill:none;stroke-width:250" />
      <path d="m 80620,-70460 h -4390 -30 -30 l -100,-10 -120,-40 -120,-60 -100,-80 -80,-100 -60,-120 -40,-120 -10,-130 v -30 -2990 -30 l 10,-130 40,-120 60,-120 80,-100 100,-80 120,-60 120,-40 130,-10 h 30 11880 30 30 l 100,10 120,40 120,60 100,80 40,50 v -530 l -4970,-4970 -220,40 h -290 l -290,-60 -270,-110 -240,-160 -210,-210 -120,-170 -110,170 -210,210 -240,160 -270,110 -290,60 h -290 l -290,-60 -270,-110 -240,-160 -210,-210 -160,-240 -120,-270 -50,-290 v -290 l 50,-290 120,-270 160,-240 210,-210 240,-160 270,-110 290,-60 h 290 l 290,60 270,110 240,160 210,210 110,170 120,-170 210,-210 240,-160 270,-110 290,-60 h 290 l 290,60 270,110 240,160 210,210 110,170 120,-170 210,-210 240,-160 270,-110 290,-60 h 290 l 290,60 270,110 240,160 130,130 20,-70 60,-110 80,-100 100,-80 110,-50 120,-40 120,-10 h 1700 l 130,10 120,40 110,50 90,80 80,100 60,110 20,70 140,-130 240,-160 270,-110 290,-60 h 290 l 290,60 270,110 240,160 210,210 120,180 70,-120 190,-210 240,-180 260,-120 150,-50 230,130 v 1190 h 250 v -1190 l 230,-130 150,50 260,120 230,180 200,210 150,250 90,280 -120,230 h -1190 -250 -20 v 250 h 20 v 1200 h 250 v -1200 h 1190 l 120,230 -90,280 -150,250 -200,210 -230,180 -260,120 -150,50 -230,-120 h -250 l -230,120 -150,-50 -260,-120 -240,-180 -190,-210 -70,-120 -120,180 -210,210 -240,160 -270,110 -290,60 h -290 l -290,-60 -270,-110 -240,-160 -140,-130 -20,70 -60,110 -80,100 -90,80 -110,60 -120,30 -130,10 h -820 l 3530,3540 30,20 20,30 v 0 l 80,90 20,40 50,90 40,140 10,120 v 0 30 40 7900 l 40,40 120,170 80,190 40,200 v 200 l -40,200 -80,190 -120,170 -140,140 -170,120 -190,70 -200,40 h -200 l -200,-40 -190,-70 -170,-120 -140,-140 -120,-170 -70,-190 -40,-200 v -200 l 40,-200 70,-190 120,-170 40,-40 v -7620 l -4460,-4460 -220,40 h -130 l 4050,4050 30,20 40,50 50,70 70,130 30,70 20,70 10,110 v 0 40 40 8280 l 1310,1310 h 60 l 200,40 190,80 170,120 140,140 120,170 80,190 40,200 v 200 l -40,200 -80,190 -120,170 -140,140 -170,120 -190,70 -200,40 h -200 l -200,-40 -190,-70 -170,-120 -140,-140 -120,-170 -70,-190 -40,-200 v -60 l -1510,-1510 -30,-20 -40,-60 -60,-60 -30,-60 -40,-70 -40,-140 -10,-120 v 0 l -10,-30 10,-40 v -3860 l -40,50 -100,80 -120,60 -120,40 -100,10 h -30 -30 -4390 v 11130 H 97130 V -97380 H 67210 v 3100 l 30,-80 150,-250 190,-210 230,-180 270,-120 140,-50 230,120 v 1200 h -20 v 250 h 20 v 1190 h 260 v -1190 h 20 v -250 h -20 v -1200 l 230,-120 140,50 270,120 230,180 80,80 20,-80 60,-110 80,-100 100,-80 110,-60 120,-30 120,-10 h 1700 l 120,10 120,30 110,60 100,80 80,100 60,110 40,120 10,120 v 1700 l -10,130 -40,120 -60,110 -80,90 -100,80 -110,60 -120,40 -120,10 h -1700 l -120,-10 -120,-40 -110,-60 -100,-80 -80,-90 -60,-110 -20,-80 -80,80 -230,180 -270,120 -140,40 -230,-120 h -260 l -230,120 -140,-40 -270,-120 -230,-180 -190,-220 -150,-250 -30,-70 v 4320 l 70,-80 100,-80 110,-60 120,-40 120,-10 h 1700 20 7600 v -1600 l 10,-120 40,-120 60,-110 80,-100 90,-80 110,-60 120,-30 h 10 l -200,-200 -160,-240 -100,-260 -60,-280 v -280 l 60,-280 100,-260 160,-230 200,-200 230,-160 -230,-150 -200,-200 -160,-240 -100,-260 -60,-280 v -280 l 60,-280 100,-260 160,-230 200,-200 240,-160 260,-110 280,-50 h 280 l 280,50 260,110 230,160 200,200 160,230 110,260 50,280 v 280 l -50,280 -110,260 -160,240 -200,200 -230,150 230,160 200,200 160,230 110,260 50,280 v 280 l -50,280 -110,260 -160,240 -200,200 h 10 l 120,30 110,60 100,80 80,100 60,110 30,120 10,120 v 940 h 4750 v -280 l 60,-280 100,-260 160,-230 200,-200 230,-160 -230,-150 -200,-200 -160,-240 -100,-260 -60,-280 v -280 l 60,-280 100,-260 160,-230 200,-200 230,-160 -230,-150 -200,-200 -160,-240 -100,-260 -60,-280 v -280 l 60,-280 100,-260 160,-230 200,-200 240,-160 260,-110 280,-50 h 280 l 280,50 260,110 230,160 200,200 160,230 110,260 50,280 v 280 l -50,280 -110,260 -160,240 -200,200 -230,150 230,160 200,200 160,230 110,260 50,280 v 280 l -50,280 -110,260 -120,170 h 6250 v -1700 l 10,-120 40,-120 60,-110 50,-70 -50,-60 -60,-110 -40,-120 -10,-130 v -1700 l 10,-120 40,-120 60,-110 80,-100 90,-80 110,-60 120,-30 130,-10 h 1700 l 120,10 120,30 110,60 100,80 80,100 60,110 30,120 10,120 v 1700 l -10,130 -30,120 -60,110 -60,60 60,70 60,110 30,120 10,120 v 1700 l -10,130 -30,120 -60,110 -80,90 -100,80 -110,60 -120,40 -120,10 h -1700 l -130,-10 -120,-40 -110,-60 -90,-80 -80,-90 -60,-110 -40,-120 -10,-130 h -6250 l -40,70 -200,200 -230,150 230,160 200,200 160,230 110,260 50,280 v 280 l -50,280 -110,260 -160,240 -200,200 -230,160 -260,100 -280,60 h -280 l -280,-60 -260,-100 -240,-160 -200,-200 -160,-240 -100,-260 -60,-280 h -4750 v 660 l -10,130 -30,120 -60,110 -80,90 -100,80 -110,60 -120,40 -120,10 h -1600 l -130,-10 -120,-40 -110,-60 -90,-80 -80,-90 -60,-110 -40,-120 -10,-130 h -7600 l 100,10 120,40 110,60 100,80 80,100 60,110 20,70 130,-130 250,-170 270,-110 280,-60 h 300 l 280,60 270,110 250,170 200,200 130,190 h 1480 30 40 v 0 l 110,10 150,40 130,70 110,100 30,30 1720,1720 30,30 100,110 70,140 40,140 10,110 v 0 l 10,40 -10,30 v 10090 l 10,40 -10,30 v 0 l -10,120 -40,140 -70,130 -100,120 -30,20 -3050,3050 v 1530 l 40,40 120,170 80,190 40,200 v 200 l -40,200 -80,190 -120,170 -140,140 -170,120 -190,70 -200,40 h -200 l -200,-40 -190,-70 -20,-20 v 1320 l 620,630 30,20 100,120 70,130 40,140 10,110 v 0 40 40 660 l 130,50 170,120 140,140 120,170 80,190 40,200 v 200 l -40,200 -80,190 -120,170 -140,140 -170,120 -190,70 -200,40 h -200 l -200,-40 -190,-70 -170,-120 -140,-140 -120,-170 -70,-190 -40,-200 v -80 l -20,-20 -60,-110 -40,-140 -10,-110 v 0 -40 -40 -920 l -620,-620 v 1660 l 1820,1820 h 60 l 200,40 190,80 170,120 140,140 120,170 80,190 40,200 v 200 l -40,200 -80,190 -120,170 -140,140 -170,120 -190,70 -200,40 h -200 l -200,-40 -190,-70 -170,-120 -140,-140 -120,-170 -70,-190 -40,-200 v -60 l -2020,-2020 -30,-20 -40,-50 -50,-70 -70,-110 -10,-20 -40,-140 -10,-110 v 0 -40 -40 -7270 0 8010 l 3340,3340 h 60 l 200,40 190,80 170,120 140,140 120,170 80,190 40,200 v 200 l -40,200 -30,60 h 7260 v -11130" id="path137" inkscape:connector-curvature="0" />
      <path d="m 80620,-70460 h -4390 -30 -30 l -100,-10 -120,-40 -120,-60 -100,-80 -80,-100 -60,-120 -40,-120 -10,-130 v -30 -2990 -30 l 10,-130 40,-120 60,-120 80,-100 100,-80 120,-60 120,-40 130,-10 h 30 11880 30 30 l 100,10 120,40 120,60 100,80 40,50 v -530 l -4970,-4970 -220,40 h -290 l -290,-60 -270,-110 -240,-160 -210,-210 -120,-170 -110,170 -210,210 -240,160 -270,110 -290,60 h -290 l -290,-60 -270,-110 -240,-160 -210,-210 -160,-240 -120,-270 -50,-290 v -290 l 50,-290 120,-270 160,-240 210,-210 240,-160 270,-110 290,-60 h 290 l 290,60 270,110 240,160 210,210 110,170 120,-170 210,-210 240,-160 270,-110 290,-60 h 290 l 290,60 270,110 240,160 210,210 110,170 120,-170 210,-210 240,-160 270,-110 290,-60 h 290 l 290,60 270,110 240,160 130,130 20,-70 60,-110 80,-100 100,-80 110,-50 120,-40 120,-10 h 1700 l 130,10 120,40 110,50 90,80 80,100 60,110 20,70 140,-130 240,-160 270,-110 290,-60 h 290 l 290,60 270,110 240,160 210,210 120,180 70,-120 190,-210 240,-180 260,-120 150,-50 230,130 v 1190 h 250 v -1190 l 230,-130 150,50 260,120 230,180 200,210 150,250 90,280 -120,230 h -1190 -250 -20 v 250 h 20 v 1200 h 250 v -1200 h 1190 l 120,230 -90,280 -150,250 -200,210 -230,180 -260,120 -150,50 -230,-120 h -250 l -230,120 -150,-50 -260,-120 -240,-180 -190,-210 -70,-120 -120,180 -210,210 -240,160 -270,110 -290,60 h -290 l -290,-60 -270,-110 -240,-160 -140,-130 -20,70 -60,110 -80,100 -90,80 -110,60 -120,30 -130,10 h -820 l 3530,3540 30,20 20,30 v 0 l 80,90 20,40 50,90 40,140 10,120 v 0 30 40 7900 l 40,40 120,170 80,190 40,200 v 200 l -40,200 -80,190 -120,170 -140,140 -170,120 -190,70 -200,40 h -200 l -200,-40 -190,-70 -170,-120 -140,-140 -120,-170 -70,-190 -40,-200 v -200 l 40,-200 70,-190 120,-170 40,-40 v -7620 l -4460,-4460 -220,40 h -130 l 4050,4050 30,20 40,50 50,70 70,130 30,70 20,70 10,110 v 0 40 40 8280 l 1310,1310 h 60 l 200,40 190,80 170,120 140,140 120,170 80,190 40,200 v 200 l -40,200 -80,190 -120,170 -140,140 -170,120 -190,70 -200,40 h -200 l -200,-40 -190,-70 -170,-120 -140,-140 -120,-170 -70,-190 -40,-200 v -60 l -1510,-1510 -30,-20 -40,-60 -60,-60 -30,-60 -40,-70 -40,-140 -10,-120 v 0 l -10,-30 10,-40 v -3860 l -40,50 -100,80 -120,60 -120,40 -100,10 h -30 -30 -4390 v 11130 H 97130 V -97380 H 67210 v 3100 l 30,-80 150,-250 190,-210 230,-180 270,-120 140,-50 230,120 v 1200 h -20 v 250 h 20 v 1190 h 260 v -1190 h 20 v -250 h -20 v -1200 l 230,-120 140,50 270,120 230,180 80,80 20,-80 60,-110 80,-100 100,-80 110,-60 120,-30 120,-10 h 1700 l 120,10 120,30 110,60 100,80 80,100 60,110 40,120 10,120 v 1700 l -10,130 -40,120 -60,110 -80,90 -100,80 -110,60 -120,40 -120,10 h -1700 l -120,-10 -120,-40 -110,-60 -100,-80 -80,-90 -60,-110 -20,-80 -80,80 -230,180 -270,120 -140,40 -230,-120 h -260 l -230,120 -140,-40 -270,-120 -230,-180 -190,-220 -150,-250 -30,-70 v 4320 l 70,-80 100,-80 110,-60 120,-40 120,-10 h 1700 20 7600 v -1600 l 10,-120 40,-120 60,-110 80,-100 90,-80 110,-60 120,-30 h 10 l -200,-200 -160,-240 -100,-260 -60,-280 v -280 l 60,-280 100,-260 160,-230 200,-200 230,-160 -230,-150 -200,-200 -160,-240 -100,-260 -60,-280 v -280 l 60,-280 100,-260 160,-230 200,-200 240,-160 260,-110 280,-50 h 280 l 280,50 260,110 230,160 200,200 160,230 110,260 50,280 v 280 l -50,280 -110,260 -160,240 -200,200 -230,150 230,160 200,200 160,230 110,260 50,280 v 280 l -50,280 -110,260 -160,240 -200,200 h 10 l 120,30 110,60 100,80 80,100 60,110 30,120 10,120 v 940 h 4750 v -280 l 60,-280 100,-260 160,-230 200,-200 230,-160 -230,-150 -200,-200 -160,-240 -100,-260 -60,-280 v -280 l 60,-280 100,-260 160,-230 200,-200 230,-160 -230,-150 -200,-200 -160,-240 -100,-260 -60,-280 v -280 l 60,-280 100,-260 160,-230 200,-200 240,-160 260,-110 280,-50 h 280 l 280,50 260,110 230,160 200,200 160,230 110,260 50,280 v 280 l -50,280 -110,260 -160,240 -200,200 -230,150 230,160 200,200 160,230 110,260 50,280 v 280 l -50,280 -110,260 -120,170 h 6250 v -1700 l 10,-120 40,-120 60,-110 50,-70 -50,-60 -60,-110 -40,-120 -10,-130 v -1700 l 10,-120 40,-120 60,-110 80,-100 90,-80 110,-60 120,-30 130,-10 h 1700 l 120,10 120,30 110,60 100,80 80,100 60,110 30,120 10,120 v 1700 l -10,130 -30,120 -60,110 -60,60 60,70 60,110 30,120 10,120 v 1700 l -10,130 -30,120 -60,110 -80,90 -100,80 -110,60 -120,40 -120,10 h -1700 l -130,-10 -120,-40 -110,-60 -90,-80 -80,-90 -60,-110 -40,-120 -10,-130 h -6250 l -40,70 -200,200 -230,150 230,160 200,200 160,230 110,260 50,280 v 280 l -50,280 -110,260 -160,240 -200,200 -230,160 -260,100 -280,60 h -280 l -280,-60 -260,-100 -240,-160 -200,-200 -160,-240 -100,-260 -60,-280 h -4750 v 660 l -10,130 -30,120 -60,110 -80,90 -100,80 -110,60 -120,40 -120,10 h -1600 l -130,-10 -120,-40 -110,-60 -90,-80 -80,-90 -60,-110 -40,-120 -10,-130 h -7600 l 100,10 120,40 110,60 100,80 80,100 60,110 20,70 130,-130 250,-170 270,-110 280,-60 h 300 l 280,60 270,110 250,170 200,200 130,190 h 1480 30 40 v 0 l 110,10 150,40 130,70 110,100 30,30 1720,1720 30,30 100,110 70,140 40,140 10,110 v 0 l 10,40 -10,30 v 10090 l 10,40 -10,30 v 0 l -10,120 -40,140 -70,130 -100,120 -30,20 -3050,3050 v 1530 l 40,40 120,170 80,190 40,200 v 200 l -40,200 -80,190 -120,170 -140,140 -170,120 -190,70 -200,40 h -200 l -200,-40 -190,-70 -20,-20 v 1320 l 620,630 30,20 100,120 70,130 40,140 10,110 v 0 40 40 660 l 130,50 170,120 140,140 120,170 80,190 40,200 v 200 l -40,200 -80,190 -120,170 -140,140 -170,120 -190,70 -200,40 h -200 l -200,-40 -190,-70 -170,-120 -140,-140 -120,-170 -70,-190 -40,-200 v -80 l -20,-20 -60,-110 -40,-140 -10,-110 v 0 -40 -40 -920 l -620,-620 v 1660 l 1820,1820 h 60 l 200,40 190,80 170,120 140,140 120,170 80,190 40,200 v 200 l -40,200 -80,190 -120,170 -140,140 -170,120 -190,70 -200,40 h -200 l -200,-40 -190,-70 -170,-120 -140,-140 -120,-170 -70,-190 -40,-200 v -60 l -2020,-2020 -30,-20 -40,-50 -50,-70 -70,-110 -10,-20 -40,-140 -10,-110 v 0 -40 -40 -7270 0 8010 l 3340,3340 h 60 l 200,40 190,80 170,120 140,140 120,170 80,190 40,200 v 200 l -40,200 -30,60 h 7260 v -11130" id="path139" inkscape:connector-curvature="0" style="fill:none;stroke-width:254" />
      <path d="m 71400,-59390 -40,-200 v -60 l -3540,-3540 -30,-20 -50,-60 -50,-60 -70,-130 v 0 l -40,-150 -10,-110 v 0 l -10,-30 10,-40 v -8560 l -10,-40 20,-150 40,-140 70,-130 70,-90 30,-30 30,-20 2540,-2550 v -690 l -190,-130 -200,-200 -120,-180 -240,80 -850,-850 850,-850 240,80 120,-180 200,-200 180,-120 -180,-120 -200,-200 -100,-140 -230,70 -880,-880 880,-880 230,70 100,-140 200,-200 180,-120 -180,-120 -200,-200 -120,-180 -120,180 -200,200 -140,100 70,230 -880,880 -880,-880 70,-230 -140,-100 -200,-200 -170,-250 -50,-130 v 1270 l 50,-100 260,-80 880,880 -880,880 -260,-80 -50,-110 v 370 h 490 l 880,-880 880,880 -80,260 h -10 l 60,190 -850,850 -850,-850 60,-190 h -10 l -80,-260 h -490 v 910 l 20,-60 70,-140 250,-80 850,850 -850,850 -250,-80 -90,-200 v 460 h 520 l 850,-850 850,850 -80,250 -260,120 -290,70 -290,20 -290,-40 -270,-100 -140,-70 -80,-250 h -520 v 17110 h 4210 l -20,-60" id="path141" inkscape:connector-curvature="0" />
      <path d="m 71400,-59390 -40,-200 v -60 l -3540,-3540 -30,-20 -50,-60 -50,-60 -70,-130 v 0 l -40,-150 -10,-110 v 0 l -10,-30 10,-40 v -8560 l -10,-40 20,-150 40,-140 70,-130 70,-90 30,-30 30,-20 2540,-2550 v -690 l -190,-130 -200,-200 -120,-180 -240,80 -850,-850 850,-850 240,80 120,-180 200,-200 180,-120 -180,-120 -200,-200 -100,-140 -230,70 -880,-880 880,-880 230,70 100,-140 200,-200 180,-120 -180,-120 -200,-200 -120,-180 -120,180 -200,200 -140,100 70,230 -880,880 -880,-880 70,-230 -140,-100 -200,-200 -170,-250 -50,-130 v 1270 l 50,-100 260,-80 880,880 -880,880 -260,-80 -50,-110 v 370 h 490 l 880,-880 880,880 -80,260 h -10 l 60,190 -850,850 -850,-850 60,-190 h -10 l -80,-260 h -490 v 910 l 20,-60 70,-140 250,-80 850,850 -850,850 -250,-80 -90,-200 v 460 h 520 l 850,-850 850,850 -80,250 -260,120 -290,70 -290,20 -290,-40 -270,-100 -140,-70 -80,-250 h -520 v 17110 h 4210 l -20,-60" id="path143" inkscape:connector-curvature="0" style="fill:none;stroke-width:254" />
    </g>
    <g id="bVvK2ArDHB4L35D8YgKq_bottom_drill1" transform="scale(25.4)">
      <use xlink:href="#i_BfHeVigi7uFCeXzRdo_pad-1" x="2850" y="-2350" id="use146" width="100%" height="100%" />
      <use xlink:href="#i_BfHeVigi7uFCeXzRdo_pad-1" x="2850" y="-2450" id="use148" width="100%" height="100%" />
      <use xlink:href="#i_BfHeVigi7uFCeXzRdo_pad-1" x="2850" y="-2550" id="use150" width="100%" height="100%" />
      <use xlink:href="#i_BfHeVigi7uFCeXzRdo_pad-1" x="2850" y="-2750" id="use152" width="100%" height="100%" />
      <use xlink:href="#i_BfHeVigi7uFCeXzRdo_pad-1" x="3050" y="-2980" id="use154" width="100%" height="100%" />
      <use xlink:href="#i_BfHeVigi7uFCeXzRdo_pad-1" x="3600" y="-2350" id="use156" width="100%" height="100%" />
      <use xlink:href="#i_BfHeVigi7uFCeXzRdo_pad-1" x="3600" y="-2550" id="use158" width="100%" height="100%" />
      <use xlink:href="#i_BfHeVigi7uFCeXzRdo_pad-1" x="3600" y="-2650" id="use160" width="100%" height="100%" />
      <use xlink:href="#i_BfHeVigi7uFCeXzRdo_pad-2" x="3090" y="-3540" id="use162" width="100%" height="100%" />
      <use xlink:href="#i_BfHeVigi7uFCeXzRdo_pad-2" x="3090" y="-3640" id="use164" width="100%" height="100%" />
      <use xlink:href="#i_BfHeVigi7uFCeXzRdo_pad-2" x="3090" y="-3740" id="use166" width="100%" height="100%" />
      <use xlink:href="#i_BfHeVigi7uFCeXzRdo_pad-2" x="3390" y="-3540" id="use168" width="100%" height="100%" />
      <use xlink:href="#i_BfHeVigi7uFCeXzRdo_pad-2" x="3390" y="-3640" id="use170" width="100%" height="100%" />
      <use xlink:href="#i_BfHeVigi7uFCeXzRdo_pad-2" x="3390" y="-3740" id="use172" width="100%" height="100%" />
      <use xlink:href="#i_BfHeVigi7uFCeXzRdo_pad-3" x="2700" y="-3690" id="use174" width="100%" height="100%" />
      <use xlink:href="#i_BfHeVigi7uFCeXzRdo_pad-3" x="2800" y="-3690" id="use176" width="100%" height="100%" />
      <use xlink:href="#i_BfHeVigi7uFCeXzRdo_pad-3" x="2700" y="-3050" id="use178" width="100%" height="100%" />
      <use xlink:href="#i_BfHeVigi7uFCeXzRdo_pad-3" x="2700" y="-3150" id="use180" width="100%" height="100%" />
      <use xlink:href="#i_BfHeVigi7uFCeXzRdo_pad-3" x="2700" y="-3250" id="use182" width="100%" height="100%" />
      <use xlink:href="#i_BfHeVigi7uFCeXzRdo_pad-3" x="2700" y="-3350" id="use184" width="100%" height="100%" />
      <use xlink:href="#i_BfHeVigi7uFCeXzRdo_pad-3" x="2700" y="-3450" id="use186" width="100%" height="100%" />
      <use xlink:href="#i_BfHeVigi7uFCeXzRdo_pad-3" x="2800" y="-3050" id="use188" width="100%" height="100%" />
      <use xlink:href="#i_BfHeVigi7uFCeXzRdo_pad-3" x="2800" y="-3150" id="use190" width="100%" height="100%" />
      <use xlink:href="#i_BfHeVigi7uFCeXzRdo_pad-3" x="2800" y="-3250" id="use192" width="100%" height="100%" />
      <use xlink:href="#i_BfHeVigi7uFCeXzRdo_pad-3" x="2800" y="-3350" id="use194" width="100%" height="100%" />
      <use xlink:href="#i_BfHeVigi7uFCeXzRdo_pad-3" x="2800" y="-3450" id="use196" width="100%" height="100%" />
      <use xlink:href="#i_BfHeVigi7uFCeXzRdo_pad-3" x="3180" y="-3210" id="use198" width="100%" height="100%" />
      <use xlink:href="#i_BfHeVigi7uFCeXzRdo_pad-3" x="3280" y="-3210" id="use200" width="100%" height="100%" />
      <use xlink:href="#i_BfHeVigi7uFCeXzRdo_pad-3" x="3380" y="-3210" id="use202" width="100%" height="100%" />
      <use xlink:href="#i_BfHeVigi7uFCeXzRdo_pad-3" x="3480" y="-3210" id="use204" width="100%" height="100%" />
      <use xlink:href="#i_BfHeVigi7uFCeXzRdo_pad-3" x="3580" y="-3210" id="use206" width="100%" height="100%" />
      <use xlink:href="#i_BfHeVigi7uFCeXzRdo_pad-3" x="3680" y="-3210" id="use208" width="100%" height="100%" />
      <use xlink:href="#i_BfHeVigi7uFCeXzRdo_pad-3" x="3740" y="-3640" id="use210" width="100%" height="100%" />
      <use xlink:href="#i_BfHeVigi7uFCeXzRdo_pad-3" x="3740" y="-3740" id="use212" width="100%" height="100%" />
    </g>
    <clipPath id="bVvK2ArDHB4L35D8YgKq_bottom_outline">
      <path d="M 81280,-58670 H 66550 v -39370 h 31240 v 39370 H 83060 v -12450 h 5080 v -3050 H 76200 v 3050 h 5080 v 12450" id="path215" inkscape:connector-curvature="0" style="fill:none;stroke-width:50" />
    </clipPath>
    <mask id="bVvK2ArDHB4L35D8YgKq_bottom_mech-mask">
      <g id="g222" style="fill:#000000;stroke:#000000">
        <rect x="66548" y="-98044" width="31242" height="39370" id="rect218" style="fill:#ffffff" />
        <use xlink:href="#bVvK2ArDHB4L35D8YgKq_bottom_drill1" id="use220" x="0" y="0" width="100%" height="100%" />
      </g>
    </mask>
    <mask id="bVvK2ArDHB4L35D8YgKq_bottom_cf-mask">
      <g id="g227" style="fill:#ffffff;stroke:#ffffff">
        <use xlink:href="#bVvK2ArDHB4L35D8YgKq_bottom_soldermask" id="use225" x="0" y="0" width="100%" height="100%" />
      </g>
    </mask>
    <mask id="bVvK2ArDHB4L35D8YgKq_bottom_sm-mask">
      <g id="g234" style="fill:#000000;stroke:#000000">
        <rect x="66548" y="-98044" width="31242" height="39370" id="rect230" style="fill:#ffffff" />
        <use xlink:href="#bVvK2ArDHB4L35D8YgKq_bottom_soldermask" id="use232" x="0" y="0" width="100%" height="100%" />
      </g>
    </mask>
  </defs>
  <g transform="matrix(4,0,0,-4,-196800,-330100)" id="g251">
    <g mask="url(#bVvK2ArDHB4L35D8YgKq_bottom_mech-mask)" clip-path="url(#bVvK2ArDHB4L35D8YgKq_bottom_outline)" transform="matrix(-1,0,0,1,164300,0)" id="g249">
      <rect x="66548" y="-98044" width="31242" height="39370" class="bVvK2ArDHB4L35D8YgKq_fr4" id="rect239" style="color:#666666;fill:currentColor" />
      <use xlink:href="#bVvK2ArDHB4L35D8YgKq_bottom_copper" class="bVvK2ArDHB4L35D8YgKq_cu" id="use241" style="color:#cccccc;fill:currentColor;stroke:currentColor" x="0" y="0" width="100%" height="100%" />
      <use xlink:href="#bVvK2ArDHB4L35D8YgKq_bottom_copper" class="bVvK2ArDHB4L35D8YgKq_cf" mask="url(#bVvK2ArDHB4L35D8YgKq_bottom_cf-mask)" id="use243" style="color:#cc9933;fill:currentColor;stroke:currentColor" x="0" y="0" width="100%" height="100%" />
      <g mask="url(#bVvK2ArDHB4L35D8YgKq_bottom_sm-mask)" id="g247">
        <rect x="66548" y="-98044" width="31242" height="39370" class="bVvK2ArDHB4L35D8YgKq_sm" id="rect245" style="color:#004200;opacity:0.75;fill:currentColor" />
      </g>
    </g>
  </g>
  <g aria-label="x" transform="matrix(1.016,0,0,0.9843,19.72,-9.861)" style="font-style:normal;font-variant:normal;font-weight:bold;font-stretch:normal;font-size:6491.0737px;line-height:1.2;font-family:sans-serif;-inkscape-font-specification:'sans-serif Bold';letter-spacing:0px;word-spacing:0px;fill:#ff0000;fill-opacity:1;stroke:none;stroke-width:0" id="text1065">
    <path d="m 92450,-38980 -1280,-1730 h 1200 l 730,1050 730,-1050 h 1210 l -1280,1730 1340,1820 h -1200 l -800,-1120 -790,1120 h -1200 z" style="fill:#ff0000;stroke-width:0" id="path1067" inkscape:connector-curvature="0" />
  </g>
  <g id="g1072" style="font-style:normal;font-variant:normal;font-weight:bold;font-stretch:normal;font-size:6491.0737px;line-height:1.2;font-family:sans-serif;-inkscape-font-specification:'sans-serif Bold';letter-spacing:0px;word-spacing:0px;fill:#ff0000;fill-opacity:1;stroke:none;stroke-width:0" transform="matrix(1.016,0,0,0.9843,8157,0)" aria-label="x">
    <path inkscape:connector-curvature="0" id="path1070" style="fill:#ff0000;stroke-width:0" d="m 92450,-38980 -1280,-1730 h 1200 l 730,1050 730,-1050 h 1210 l -1280,1730 1340,1820 h -1200 l -800,-1120 -790,1120 h -1200 z" />
  </g>
  <rect style="opacity:1;vector-effect:none;fill:#a05a2c;fill-opacity:1;stroke:#ff00ff;stroke-width:794.1;stroke-linecap:butt;stroke-linejoin:round;stroke-miterlimit:4;stroke-dasharray:none;stroke-dashoffset:0;stroke-opacity:1;paint-order:normal" id="rect964" width="7119" height="3594" x="1.405e+05" y="-5695" />
  <path style="fill:#ffff00;stroke:#ff00ff;stroke-width:926.3535;stroke-linecap:butt;stroke-linejoin:miter;stroke-opacity:1;stroke-miterlimit:4;stroke-dasharray:none" d="m 147700,-3674 c 0,0 25400,3731.82 25400,3731.82" id="path968" inkscape:connector-curvature="0" inkscape:path-effect="#path-effect970" inkscape:original-d="M 147700,-3674 173100,57.82" />
  <text xml:space="preserve" style="font-style:normal;font-variant:normal;font-weight:bold;font-stretch:normal;font-size:5294px;line-height:1.2;font-family:sans-serif;-inkscape-font-specification:'sans-serif Bold';letter-spacing:0px;word-spacing:0px;fill:#ffff00;fill-opacity:1;stroke:#ffff00;stroke-width:0" x="1.396e+05" y="1555" id="text974"><tspan sodipodi:role="line" id="tspan972" x="1.396e+05" y="1555" style="font-size:3705.9697px;fill:#ffff00;stroke:#ffff00;stroke-width:0">100nF</tspan></text>
</svg>
