<?xml version="1.0" encoding="UTF-8" standalone="no"?>
<svg xmlns:dc="http://purl.org/dc/elements/1.1/" xmlns:cc="http://creativecommons.org/ns#" xmlns:rdf="http://www.w3.org/1999/02/22-rdf-syntax-ns#" xmlns:svg="http://www.w3.org/2000/svg" xmlns="http://www.w3.org/2000/svg" xmlns:xlink="http://www.w3.org/1999/xlink" xmlns:sodipodi="http://sodipodi.sourceforge.net/DTD/sodipodi-0.dtd" xmlns:inkscape="http://www.inkscape.org/namespaces/inkscape" version="1.1" id="bVvK2ArDHB4L35D8YgKq_top" viewBox="66548 -98044 1.303e+05 1.627e+05" width="492.3" height="615.1" class="w-100 h-100" sodipodi:docname="top.svg" style="clip-rule:evenodd;fill-rule:evenodd;stroke-width:0;stroke-linecap:round;stroke-linejoin:round" inkscape:version="0.92.4 5da689c313, 2019-01-14">
  <metadata id="metadata318">
    <rdf:RDF>
      <cc:Work rdf:about="">
        <dc:format>image/svg+xml</dc:format>
        <dc:type rdf:resource="http://purl.org/dc/dcmitype/StillImage" />
        <dc:title></dc:title>
      </cc:Work>
    </rdf:RDF>
  </metadata>
  <sodipodi:namedview pagecolor="#ffffff" bordercolor="#666666" borderopacity="1" objecttolerance="10" gridtolerance="10" guidetolerance="10" inkscape:pageopacity="0" inkscape:pageshadow="2" inkscape:window-width="640" inkscape:window-height="480" id="namedview316" showgrid="false" fit-margin-left="10" fit-margin-right="10" fit-margin-bottom="10" fit-margin-top="10" inkscape:zoom="2.356" inkscape:cx="449.6" inkscape:cy="203.1" inkscape:current-layer="bVvK2ArDHB4L35D8YgKq_top" units="px" />
  <defs id="defs295">
    <style id="style2">.bVvK2ArDHB4L35D8YgKq_fr4 {color: #666666;}
.bVvK2ArDHB4L35D8YgKq_cu {color: #cccccc;}
.bVvK2ArDHB4L35D8YgKq_cf {color: #cc9933;}
.bVvK2ArDHB4L35D8YgKq_sm {color: #004200; opacity: 0.75;}
.bVvK2ArDHB4L35D8YgKq_ss {color: #ffffff;}
.bVvK2ArDHB4L35D8YgKq_sp {color: #999999;}
.bVvK2ArDHB4L35D8YgKq_out {color: #000000;}</style>
    <rect x="-850" y="-850" width="1700" height="1700" rx="850" ry="850" id="ExfWBgeKDlS0q3nALHRm_pad-10" />
    <rect x="-850" y="-850" width="1700" height="1700" id="ExfWBgeKDlS0q3nALHRm_pad-11" />
    <circle cx="0" cy="0" r="850" id="ExfWBgeKDlS0q3nALHRm_pad-12" />
    <circle cx="0" cy="0" r="900" id="ExfWBgeKDlS0q3nALHRm_pad-13" />
    <rect x="-6500" y="-800" width="13000" height="1600" id="ExfWBgeKDlS0q3nALHRm_pad-14" />
    <rect x="-800" y="-800" width="1600" height="1600" rx="800" ry="800" id="ExfWBgeKDlS0q3nALHRm_pad-15" />
    <rect x="-800" y="-800" width="1600" height="1600" id="ExfWBgeKDlS0q3nALHRm_pad-16" />
    <circle cx="0" cy="0" r="400" id="ExfWBgeKDlS0q3nALHRm_pad-17" />
    <rect x="-6500" y="-800" width="13000" height="1600" id="RFglrU3BelRLo4qX72k2_pad-10" />
    <circle cx="0" cy="0" r="7.85" id="i_BfHeVigi7uFCeXzRdo_pad-1" />
    <circle cx="0" cy="0" r="15.75" id="i_BfHeVigi7uFCeXzRdo_pad-2" />
    <circle cx="0" cy="0" r="19.7" id="i_BfHeVigi7uFCeXzRdo_pad-3" />
    <g id="bVvK2ArDHB4L35D8YgKq_top_soldermask">
      <path d="m 95900,-95900 h -1800 v 1800 h 1800 v -1800" id="path16" inkscape:connector-curvature="0" />
      <path d="m 86350,-94180 160,-60 140,-100 120,-110 90,-140 60,-160 40,-160 v -170 l -40,-160 -60,-160 -90,-140 -120,-120 -140,-90 -160,-60 -160,-40 h -170 l -160,40 -160,60 -140,90 -110,120 -100,140 -60,160 -30,160 v 170 l 30,160 60,160 100,140 110,110 140,100 160,60 160,30 h 170 l 160,-30" id="path18" inkscape:connector-curvature="0" />
      <path d="m 78730,-94180 160,-60 140,-100 120,-110 90,-140 60,-160 40,-160 v -170 l -40,-160 -60,-160 -90,-140 -120,-120 -140,-90 -160,-60 -160,-40 h -170 l -160,40 -160,60 -140,90 -110,120 -100,140 -60,160 -30,160 v 170 l 30,160 60,160 100,140 110,110 140,100 160,60 160,30 h 170 l 160,-30" id="path20" inkscape:connector-curvature="0" />
      <path d="m 68690,-92830 150,-30 170,-70 140,-100 130,-120 100,-150 70,-160 30,-180 v -180 l -30,-170 -70,-160 -100,-150 -130,-130 -140,-90 -170,-70 -150,-30 -20,-10 h -180 l -20,10 -150,30 -170,70 -140,90 -130,130 -100,150 -70,160 -30,170 v 180 l 30,180 70,160 100,150 130,120 140,100 170,70 150,30 h 20 180 20" id="path22" inkscape:connector-curvature="0" />
      <path d="m 72020,-94630 h -1800 v 1800 h 1800 v -1800" id="path24" inkscape:connector-curvature="0" />
      <path d="m 95900,-93360 h -1800 v 1800 h 1800 v -1800" id="path26" inkscape:connector-curvature="0" />
      <path d="m 86350,-91640 160,-60 140,-100 120,-110 90,-140 60,-160 40,-160 v -170 l -40,-160 -60,-160 -90,-140 -120,-120 -140,-90 -160,-60 -160,-40 h -170 l -160,40 -160,60 -140,90 -110,120 -100,140 -60,160 -30,160 v 170 l 30,160 60,160 100,140 110,110 140,100 160,60 160,30 h 170 l 160,-30" id="path28" inkscape:connector-curvature="0" />
      <path d="m 78730,-91640 160,-60 140,-100 120,-110 90,-140 60,-160 40,-160 v -170 l -40,-160 -60,-160 -90,-140 -120,-120 -140,-90 -160,-60 -160,-40 h -170 l -160,40 -160,60 -140,90 -110,120 -100,140 -60,160 -30,160 v 170 l 30,160 60,160 100,140 110,110 140,100 160,60 160,30 h 170 l 160,-30" id="path30" inkscape:connector-curvature="0" />
      <path d="m 86350,-89100 160,-60 140,-100 120,-110 90,-140 60,-160 40,-160 v -170 l -40,-160 -60,-160 -90,-140 -120,-120 -140,-90 -160,-60 -160,-40 h -170 l -160,40 -160,60 -140,90 -110,120 -100,140 -60,160 -30,160 v 170 l 30,160 60,160 100,140 110,110 140,100 160,60 160,30 h 170 l 160,-30" id="path32" inkscape:connector-curvature="0" />
      <path d="m 79340,-90770 h -1700 v 1700 h 1700 v -1700" id="path34" inkscape:connector-curvature="0" />
      <path d="m 71230,-86730 150,-30 170,-70 140,-100 130,-130 100,-140 70,-170 30,-170 v -180 l -30,-170 -70,-170 -100,-140 -130,-130 -140,-100 -170,-70 -150,-30 h -20 -180 -20 l -150,30 -170,70 -140,100 -130,130 -100,140 -70,170 -30,170 v 180 l 30,170 70,170 100,140 130,130 140,100 170,70 150,30 h 20 180 20" id="path36" inkscape:connector-curvature="0" />
      <path d="m 69480,-88530 h -1800 v 1800 h 1800 v -1800" id="path38" inkscape:connector-curvature="0" />
      <path d="m 68690,-84190 150,-30 170,-70 140,-100 130,-130 100,-140 70,-170 30,-170 v -180 l -30,-170 -70,-170 -100,-140 -130,-130 -140,-100 -170,-70 -150,-30 h -20 -180 -20 l -150,30 -170,70 -140,100 -130,130 -100,140 -70,170 -30,170 v 180 l 30,170 70,170 100,140 130,130 140,100 170,70 150,30 h 20 180 20" id="path40" inkscape:connector-curvature="0" />
      <path d="m 71230,-84190 150,-30 170,-70 140,-100 130,-130 100,-140 70,-170 30,-170 v -180 l -30,-170 -70,-170 -100,-140 -130,-130 -140,-100 -170,-70 -150,-30 h -20 -180 -20 l -150,30 -170,70 -140,100 -130,130 -100,140 -70,170 -30,170 v 180 l 30,170 70,170 100,140 130,130 140,100 170,70 150,30 h 20 180 20" id="path42" inkscape:connector-curvature="0" />
      <path d="m 68690,-81650 150,-30 170,-70 140,-100 130,-130 100,-140 70,-170 30,-170 v -180 l -30,-170 -70,-170 -100,-140 -130,-130 -140,-100 -170,-70 -150,-30 h -20 -180 -20 l -150,30 -170,70 -140,100 -130,130 -100,140 -70,170 -30,170 v 180 l 30,170 70,170 100,140 130,130 140,100 170,70 150,30 h 20 180 20" id="path44" inkscape:connector-curvature="0" />
      <path d="m 71230,-81650 150,-30 170,-70 140,-100 130,-130 100,-140 70,-170 30,-170 v -180 l -30,-170 -70,-170 -100,-140 -130,-130 -140,-100 -170,-70 -150,-30 h -20 -180 -20 l -150,30 -170,70 -140,100 -130,130 -100,140 -70,170 -30,170 v 180 l 30,170 70,170 100,140 130,130 140,100 170,70 150,30 h 20 180 20" id="path46" inkscape:connector-curvature="0" />
      <path d="m 91050,-80640 150,-30 160,-70 150,-90 120,-130 100,-150 70,-160 30,-180 v -170 l -30,-180 -70,-160 -100,-150 -120,-120 -150,-100 -160,-70 -150,-30 -30,-10 h -180 l -20,10 -150,30 -160,70 -150,100 -130,120 -100,150 -60,160 -40,180 v 170 l 40,180 60,160 100,150 130,130 150,90 160,70 150,30 20,10 h 180 l 30,-10" id="path48" inkscape:connector-curvature="0" />
      <path d="m 85970,-80640 150,-30 160,-70 150,-90 120,-130 100,-150 70,-160 30,-180 v -170 l -30,-180 -70,-160 -100,-150 -120,-120 -150,-100 -160,-70 -150,-30 -30,-10 h -180 l -20,10 -150,30 -160,70 -150,100 -130,120 -100,150 -60,160 -40,180 v 170 l 40,180 60,160 100,150 130,130 150,90 160,70 150,30 20,10 h 180 l 30,-10" id="path50" inkscape:connector-curvature="0" />
      <path d="m 83430,-80640 150,-30 160,-70 150,-90 120,-130 100,-150 70,-160 30,-180 v -170 l -30,-180 -70,-160 -100,-150 -120,-120 -150,-100 -160,-70 -150,-30 -30,-10 h -180 l -20,10 -150,30 -160,70 -150,100 -130,120 -100,150 -60,160 -40,180 v 170 l 40,180 60,160 100,150 130,130 150,90 160,70 150,30 20,10 h 180 l 30,-10" id="path52" inkscape:connector-curvature="0" />
      <path d="m 89290,-82440 h -1800 v 1810 h 1800 v -1810" id="path54" inkscape:connector-curvature="0" />
      <path d="m 93590,-80640 150,-30 160,-70 150,-90 120,-130 100,-150 70,-160 30,-180 v -170 l -30,-180 -70,-160 -100,-150 -120,-120 -150,-100 -160,-70 -150,-30 -30,-10 h -180 l -20,10 -150,30 -160,70 -150,100 -130,120 -100,150 -60,160 -40,180 v 170 l 40,180 60,160 100,150 130,130 150,90 160,70 150,30 20,10 h 180 l 30,-10" id="path56" inkscape:connector-curvature="0" />
      <path d="m 80890,-80640 150,-30 160,-70 150,-90 120,-130 100,-150 70,-160 30,-180 v -170 l -30,-180 -70,-160 -100,-150 -120,-120 -150,-100 -160,-70 -150,-30 -30,-10 h -180 l -20,10 -150,30 -160,70 -150,100 -130,120 -100,150 -60,160 -40,180 v 170 l 40,180 60,160 100,150 130,130 150,90 160,70 150,30 20,10 h 180 l 30,-10" id="path58" inkscape:connector-curvature="0" />
      <path d="m 68860,-79100 170,-70 v 0 l 160,-100 130,-130 v 0 l 100,-160 70,-170 40,-190 v -180 l -40,-190 -70,-170 v 0 l -100,-160 -130,-130 -80,-50 -80,-50 -170,-70 -190,-40 h -180 l -190,40 -170,70 -80,50 -80,50 -130,130 -100,160 v 0 l -70,170 -40,190 v 180 l 40,190 70,170 100,160 v 0 l 130,130 160,100 v 0 l 170,70 190,40 h 180 l 190,-40" id="path60" inkscape:connector-curvature="0" />
      <path d="m 71230,-79110 150,-30 170,-70 140,-100 130,-130 100,-140 70,-170 30,-170 v -180 l -30,-170 -70,-170 -100,-140 -130,-130 -140,-100 -170,-70 -150,-30 h -20 -180 -20 l -150,30 -170,70 -140,100 -130,130 -100,140 -70,170 -30,170 v 180 l 30,170 70,170 100,140 130,130 140,100 170,70 150,30 h 20 180 20" id="path62" inkscape:connector-curvature="0" />
      <path d="m 71230,-76570 150,-30 170,-70 140,-100 130,-130 100,-140 70,-170 30,-170 v -180 l -30,-170 -70,-170 -100,-140 -130,-130 -140,-100 -170,-70 -150,-30 h -20 -180 -20 l -150,30 -170,70 -140,100 -130,130 -100,140 -70,170 -30,170 v 180 l 30,170 70,170 100,140 130,130 140,100 170,70 150,30 h 20 180 20" id="path64" inkscape:connector-curvature="0" />
      <path d="m 68690,-76570 150,-30 170,-70 140,-100 130,-130 100,-140 70,-170 30,-170 v -180 l -30,-170 -70,-170 -100,-140 -130,-130 -140,-100 -170,-70 -150,-30 h -20 -180 -20 l -150,30 -170,70 -140,100 -130,130 -100,140 -70,170 -30,170 v 180 l 30,170 70,170 100,140 130,130 140,100 170,70 150,30 h 20 180 20" id="path66" inkscape:connector-curvature="0" />
      <path d="M 80720,-70700 H 67620 v 1700 h 13100 v -1700" id="path68" inkscape:connector-curvature="0" />
      <path d="M 96720,-70700 H 83620 v 1700 h 13100 v -1700" id="path70" inkscape:connector-curvature="0" />
      <path d="M 96720,-68160 H 83620 v 1700 h 13100 v -1700" id="path72" inkscape:connector-curvature="0" />
      <path d="M 96720,-65620 H 83620 v 1700 h 13100 v -1700" id="path74" inkscape:connector-curvature="0" />
      <path d="M 80720,-65620 H 67620 v 1700 h 13100 v -1700" id="path76" inkscape:connector-curvature="0" />
      <path d="M 80720,-63080 H 67620 v 1700 h 13100 v -1700" id="path78" inkscape:connector-curvature="0" />
      <path d="M 96720,-60540 H 83620 v 1700 h 13100 v -1700" id="path80" inkscape:connector-curvature="0" />
      <path d="M 80720,-60540 H 67620 v 1700 h 13100 v -1700" id="path82" inkscape:connector-curvature="0" />
    </g>
    <g id="bVvK2ArDHB4L35D8YgKq_top_copper">
      <use xlink:href="#ExfWBgeKDlS0q3nALHRm_pad-10" x="93472" y="-81534" id="use85" width="100%" height="100%" />
      <use xlink:href="#ExfWBgeKDlS0q3nALHRm_pad-10" x="90932" y="-81534" id="use87" width="100%" height="100%" />
      <use xlink:href="#ExfWBgeKDlS0q3nALHRm_pad-11" x="88392" y="-81534" id="use89" width="100%" height="100%" />
      <use xlink:href="#ExfWBgeKDlS0q3nALHRm_pad-10" x="85852" y="-81534" id="use91" width="100%" height="100%" />
      <use xlink:href="#ExfWBgeKDlS0q3nALHRm_pad-10" x="83312" y="-81534" id="use93" width="100%" height="100%" />
      <use xlink:href="#ExfWBgeKDlS0q3nALHRm_pad-12" x="80772" y="-81534" id="use95" width="100%" height="100%" />
      <use xlink:href="#ExfWBgeKDlS0q3nALHRm_pad-10" x="71120" y="-87630" id="use97" width="100%" height="100%" />
      <use xlink:href="#ExfWBgeKDlS0q3nALHRm_pad-11" x="68580" y="-87630" id="use99" width="100%" height="100%" />
      <use xlink:href="#ExfWBgeKDlS0q3nALHRm_pad-10" x="71120" y="-85090" id="use101" width="100%" height="100%" />
      <use xlink:href="#ExfWBgeKDlS0q3nALHRm_pad-10" x="68580" y="-85090" id="use103" width="100%" height="100%" />
      <use xlink:href="#ExfWBgeKDlS0q3nALHRm_pad-10" x="71120" y="-82550" id="use105" width="100%" height="100%" />
      <use xlink:href="#ExfWBgeKDlS0q3nALHRm_pad-10" x="68580" y="-82550" id="use107" width="100%" height="100%" />
      <use xlink:href="#ExfWBgeKDlS0q3nALHRm_pad-10" x="71120" y="-80010" id="use109" width="100%" height="100%" />
      <use xlink:href="#ExfWBgeKDlS0q3nALHRm_pad-13" x="68580" y="-80010" id="use111" width="100%" height="100%" />
      <use xlink:href="#ExfWBgeKDlS0q3nALHRm_pad-10" x="71120" y="-77470" id="use113" width="100%" height="100%" />
      <use xlink:href="#ExfWBgeKDlS0q3nALHRm_pad-12" x="68580" y="-77470" id="use115" width="100%" height="100%" />
      <use xlink:href="#ExfWBgeKDlS0q3nALHRm_pad-14" x="74168" y="-69850" id="use117" width="100%" height="100%" />
      <use xlink:href="#ExfWBgeKDlS0q3nALHRm_pad-14" x="74168" y="-64770" id="use119" width="100%" height="100%" />
      <use xlink:href="#ExfWBgeKDlS0q3nALHRm_pad-14" x="74168" y="-59690" id="use121" width="100%" height="100%" />
      <use xlink:href="#ExfWBgeKDlS0q3nALHRm_pad-14" x="74168" y="-62230" id="use123" width="100%" height="100%" />
      <use xlink:href="#ExfWBgeKDlS0q3nALHRm_pad-14" x="90170" y="-59690" id="use125" width="100%" height="100%" />
      <use xlink:href="#ExfWBgeKDlS0q3nALHRm_pad-14" x="90170" y="-64770" id="use127" width="100%" height="100%" />
      <use xlink:href="#ExfWBgeKDlS0q3nALHRm_pad-14" x="90170" y="-69850" id="use129" width="100%" height="100%" />
      <use xlink:href="#ExfWBgeKDlS0q3nALHRm_pad-14" x="90170" y="-67310" id="use131" width="100%" height="100%" />
      <use xlink:href="#ExfWBgeKDlS0q3nALHRm_pad-11" x="94996" y="-94996" id="use133" width="100%" height="100%" />
      <use xlink:href="#ExfWBgeKDlS0q3nALHRm_pad-11" x="94996" y="-92456" id="use135" width="100%" height="100%" />
      <use xlink:href="#ExfWBgeKDlS0q3nALHRm_pad-10" x="68580" y="-93726" id="use137" width="100%" height="100%" />
      <use xlink:href="#ExfWBgeKDlS0q3nALHRm_pad-11" x="71120" y="-93726" id="use139" width="100%" height="100%" />
      <use xlink:href="#ExfWBgeKDlS0q3nALHRm_pad-15" x="86106" y="-89916" id="use141" width="100%" height="100%" />
      <use xlink:href="#ExfWBgeKDlS0q3nALHRm_pad-15" x="78486" y="-94996" id="use143" width="100%" height="100%" />
      <use xlink:href="#ExfWBgeKDlS0q3nALHRm_pad-15" x="86106" y="-92456" id="use145" width="100%" height="100%" />
      <use xlink:href="#ExfWBgeKDlS0q3nALHRm_pad-15" x="78486" y="-92456" id="use147" width="100%" height="100%" />
      <use xlink:href="#ExfWBgeKDlS0q3nALHRm_pad-15" x="86106" y="-94996" id="use149" width="100%" height="100%" />
      <use xlink:href="#ExfWBgeKDlS0q3nALHRm_pad-16" x="78486" y="-89916" id="use151" width="100%" height="100%" />
      <use xlink:href="#ExfWBgeKDlS0q3nALHRm_pad-17" x="91440" y="-59690" id="use153" width="100%" height="100%" />
      <use xlink:href="#ExfWBgeKDlS0q3nALHRm_pad-17" x="77470" y="-75692" id="use155" width="100%" height="100%" />
      <use xlink:href="#ExfWBgeKDlS0q3nALHRm_pad-17" x="72390" y="-59690" id="use157" width="100%" height="100%" />
      <use xlink:href="#ExfWBgeKDlS0q3nALHRm_pad-17" x="72390" y="-62230" id="use159" width="100%" height="100%" />
      <use xlink:href="#ExfWBgeKDlS0q3nALHRm_pad-17" x="72390" y="-64770" id="use161" width="100%" height="100%" />
      <use xlink:href="#ExfWBgeKDlS0q3nALHRm_pad-17" x="72390" y="-69850" id="use163" width="100%" height="100%" />
      <use xlink:href="#ExfWBgeKDlS0q3nALHRm_pad-17" x="91440" y="-64770" id="use165" width="100%" height="100%" />
      <use xlink:href="#ExfWBgeKDlS0q3nALHRm_pad-17" x="91440" y="-67310" id="use167" width="100%" height="100%" />
      <path d="m 69090,-75690 h 8380 m -8890,-1780 v 1270 l 510,510 m 8380,0 v 0 m -8890,-2980 v -1340 m 0,2540 v -1200 m 2540,-15060 h 4060 m 1270,-1270 h 2040 m -3310,1270 1270,-1270 m 3310,12450 1010,1020 m -9650,-1020 h 8640 m 6350,-7370 v -5080 h 8890 m 1140,24010 -1140,1140 m 0,-22610 1140,1150 v 20320 m -16130,-18930 8380,8390 m -9900,-8390 h 1520 m -1520,-2540 h -3810 l -1270,1270 m -4830,2460 v 1100 m 2460,-3560 -2460,2460 m 4830,-2460 h -2370" id="path169" inkscape:connector-curvature="0" style="fill:none;stroke-width:250" />
    </g>
    <g id="bVvK2ArDHB4L35D8YgKq_top_solderpaste">
      <use xlink:href="#RFglrU3BelRLo4qX72k2_pad-10" x="74168" y="-69850" id="use172" width="100%" height="100%" />
      <use xlink:href="#RFglrU3BelRLo4qX72k2_pad-10" x="74168" y="-64770" id="use174" width="100%" height="100%" />
      <use xlink:href="#RFglrU3BelRLo4qX72k2_pad-10" x="74168" y="-59690" id="use176" width="100%" height="100%" />
      <use xlink:href="#RFglrU3BelRLo4qX72k2_pad-10" x="74168" y="-62230" id="use178" width="100%" height="100%" />
      <use xlink:href="#RFglrU3BelRLo4qX72k2_pad-10" x="90170" y="-59690" id="use180" width="100%" height="100%" />
      <use xlink:href="#RFglrU3BelRLo4qX72k2_pad-10" x="90170" y="-64770" id="use182" width="100%" height="100%" />
      <use xlink:href="#RFglrU3BelRLo4qX72k2_pad-10" x="90170" y="-69850" id="use184" width="100%" height="100%" />
      <use xlink:href="#RFglrU3BelRLo4qX72k2_pad-10" x="90170" y="-67310" id="use186" width="100%" height="100%" />
    </g>
    <g id="bVvK2ArDHB4L35D8YgKq_top_silkscreen">
      <path d="m 82170,-74170 v -5970" id="path189" inkscape:connector-curvature="0" style="fill:none;stroke-width:120" />
      <path d="m 93070,-79080 -40,-80 v -110 l 40,-120 80,-70 70,-40 160,-40 h 110 l 150,40 80,40 80,70 30,120 v 70 l -30,120 -40,40 h -270 v -160 m 340,500 h -800 l 800,460 h -800 m 800,380 h -800 v 190 l 40,110 80,80 70,40 160,30 h 110 l 150,-30 80,-40 80,-80 30,-110 v -190 m -5880,-1760 800,270 -800,270 m 730,720 40,-40 30,-110 v -80 l -30,-110 -80,-80 -80,-40 -150,-30 h -110 l -160,30 -70,40 -80,80 -40,110 v 80 l 40,110 40,40 m 650,800 40,-40 30,-110 v -80 l -30,-110 -80,-80 -80,-40 -150,-30 h -110 l -160,30 -70,40 -80,80 -40,110 v 80 l 40,110 40,40 m -2620,-2060 v 460 m 800,-230 h -800 m 0,420 800,540 m -800,0 800,-540 m 0,840 h -800 v 190 l 40,120 80,70 70,40 160,40 h 110 l 150,-40 80,-40 80,-70 30,-120 v -190 m -2540,-910 -380,-270 m 380,-190 h -800 v 300 l 40,80 40,40 80,40 h 110 l 80,-40 40,-40 30,-80 v -300 m -420,720 800,540 m -800,0 800,-540 m 0,840 h -800 v 190 l 40,120 80,70 70,40 160,40 h 110 l 150,-40 80,-40 80,-70 30,-120 v -190 m -2540,-1100 -380,-270 m 380,-190 h -800 v 300 l 40,80 40,40 80,40 h 110 l 80,-40 40,-40 30,-80 v -300 m -30,800 v 270 m 410,110 v -380 h -800 v 380 m 770,300 30,120 v 190 l -30,80 -40,30 -80,40 h -70 l -80,-40 -40,-30 -40,-80 -30,-150 -40,-80 -40,-40 -80,-40 h -70 l -80,40 -40,40 -40,80 v 190 l 40,110 m 350,340 v 270 m 410,120 v -390 h -800 v 390 m 0,220 v 460 m 800,-230 h -800 m -8770,-19290 v -430 l -310,230 v -100 l -30,-70 -40,-30 -80,-30 h -190 l -80,30 -30,30 -40,70 v 200 l 40,70 30,30 m 0,-730 -30,-40 -40,40 40,30 30,-30 h -70 m 800,-270 v -430 l -310,230 v -100 l -30,-70 -40,-30 -80,-30 h -190 l -80,30 -30,30 -40,70 v 200 l 40,70 30,30 m 730,-630 -800,-240 800,-230 m -2580,1670 40,60 v 100 l -40,100 -80,70 -70,30 -150,40 h -120 l -150,-40 -80,-30 -70,-70 -40,-100 v -60 l 40,-100 30,-40 h 270 v 140 m -340,-440 h 800 l -800,-400 h 800 m -800,-330 h 800 v -170 l -40,-100 -80,-60 -70,-40 -150,-30 h -120 l -150,30 -80,40 -70,60 -40,100 v 170" id="path191" inkscape:connector-curvature="0" style="fill:none;stroke-width:100" />
      <path d="m 93410,-87270 330,-1000 340,1000 m 900,-910 -50,-50 -140,-40 h -100 l -140,40 -90,100 -50,90 -50,190 v 150 l 50,190 50,90 90,100 140,50 h 100 l 140,-50 50,-50 m 1000,-810 -50,-50 -140,-40 h -100 l -140,40 -90,100 -50,90 -50,190 v 150 l 50,190 50,90 90,100 140,50 h 100 l 140,-50 50,-50 m -3400,-1550 v -720 l -50,-140 -100,-100 -140,-40 h -100 m 1290,660 v -660 m -430,660 v -520 l 50,-100 90,-40 h 150 l 90,40 50,50 m 480,-90 v 660 m 0,-90 40,50 100,40 h 140 l 100,-40 50,-100 v -520 m 0,520 40,100 100,40 h 140 l 100,-40 40,-100 v -520 m 480,660 v -1000 m 0,960 100,40 h 190 l 90,-40 50,-50 50,-100 v -280 l -50,-100 -50,-50 -90,-40 h -190 l -100,40 m 1290,0 -100,-40 h -190 l -100,40 -40,100 v 380 l 40,100 100,40 h 190 l 100,-40 40,-100 v -100 l -470,-90 m 900,-330 v 660 m 0,-190 50,100 50,50 90,40 h 100" id="path193" inkscape:connector-curvature="0" style="fill:none;stroke-width:150" />
      <path d="m 72900,-87990 v 800 l 270,-570 260,570 v -800 m 540,800 h 150 l 80,-40 70,-80 40,-150 v -270 l -40,-150 -70,-70 -80,-40 h -150 l -80,40 -80,70 -30,150 v 270 l 30,150 80,80 80,40 m 640,-760 120,-40 h 190 l 80,40 30,30 40,80 v 80 l -40,70 -30,40 -80,40 -150,40 -80,30 -40,40 -40,80 v 80 l 40,70 40,40 80,40 h 190 l 110,-40 m 340,-760 v 800 m -2550,6860 120,-40 h 190 l 70,40 40,30 40,80 v 80 l -40,70 -40,40 -70,40 -160,40 -70,30 -40,40 -40,80 v 80 l 40,70 40,40 70,40 h 190 l 120,-40 m 800,-690 -40,-30 -110,-40 h -80 l -110,40 -80,70 -40,80 -40,150 v 110 l 40,160 40,70 80,80 110,40 h 80 l 110,-40 40,-40 m 340,-720 v 800 m 460,-800 -340,450 m 340,350 -460,-460 m -90,-2880 -260,380 m -190,-380 v 800 h 300 l 80,-40 40,-40 30,-70 v -120 l -30,-80 -40,-30 -80,-40 h -300 m 760,-340 110,-40 h 190 l 80,40 40,30 40,80 v 80 l -40,70 -40,40 -80,40 -150,40 -80,30 -30,40 -40,80 v 80 l 40,70 30,40 80,40 h 190 l 120,-40 m 220,40 h 460 m -230,-800 v 800 m -2690,4280 v 800 l 270,-570 260,570 v -800 m 380,0 v 800 m 350,-760 110,-40 h 190 l 80,40 40,30 30,80 v 80 l -30,70 -40,40 -80,40 -150,40 -80,30 -30,40 -40,80 v 80 l 40,70 30,40 80,40 h 190 l 110,-40 m 500,40 h 150 l 80,-40 70,-80 40,-150 v -270 l -40,-150 -70,-70 -80,-40 h -150 l -80,40 -70,70 -40,150 v 270 l 40,150 70,80 80,40" id="path195" inkscape:connector-curvature="0" style="fill:none;stroke-width:100" />
      <path d="m 88080,-94450 330,-1000 330,1000 m 340,-1000 v 670 m 0,330 -50,-50 50,-40 40,40 -40,50 v -90 m 470,-240 v -670 m 0,570 50,50 100,50 h 140 l 90,-50 50,-100 v -520 m -2010,2540 v 1000 m 420,-950 150,-50 h 240 l 90,50 50,50 50,90 v 100 l -50,90 -50,50 -90,50 -190,40 -100,50 -50,50 -50,100 v 90 l 50,100 50,40 100,50 h 230 l 150,-50 m 420,-950 v 1000 h 390 l 90,-50 50,-40 50,-100 v -140 l -50,-100 -50,-50 -90,-40 h -390 m -1090,2580 h -330 m 0,-520 v 1000 h 470 m 240,0 h 570 m -280,-1000 v 1000 m 620,-1000 v 1000 h 230 l 150,-50 90,-90 50,-100 50,-190 v -140 l -50,-190 -50,-100 -90,-90 -150,-50 h -230 m 1000,0 v 1000" id="path197" inkscape:connector-curvature="0" style="fill:none;stroke-width:150" />
      <path d="m 80770,-82860 h -1330 v 2660 h 15360 m -14270,-2660 h 14270 v 2660 m -24950,4060 h 2600 m -5180,0 h 2580 m -2600,-2600 v 2590 m 0,-2590 v -10220 h 5200 m 0,4720 v -4720 m 0,8160 h 1010 v -3440 h -1010 m 0,8100 v -4660 m -4890,10950 h -250 m 250,5080 h -250 m 250,2540 h -250 m 250,2540 h -250 m 13720,-10160 h -260 m 260,10160 h -260 m 260,-5080 h -260 m 260,2540 h -260 m 16000,2540 h 260 m -260,-5080 h 260 m -260,-2540 h 260 m -260,-2540 h 260 m -13720,10160 h 260 m -260,-10160 h 260 m -260,5080 h 260 m -260,-2540 h 260 m 12760,-23820 v -1330 m -1330,1330 h 1330 m 0,-2600 v -2600 m -2600,2600 h 2600 m -2600,2600 v -2600 m 2600,-2600 h -2660 m 60,5200 h -60 v -5200 m -21220,3930 v -1330 m -1330,1330 h 1330 m -2600,0 v -2660 h -2600 m 2600,2660 h -2600 v -2660 m 14370,700 v -1270 m -1350,70 h 1350 m -1350,120 h 1350 m -1350,120 h 1350 m -1350,120 h 1350 m -1350,120 h 1350 m -1350,120 h 1350 m -1350,120 h 1350 m -1350,120 h 1350 m -1350,120 h 1350 m -1350,120 h 1350 m 2710,120 h -4060 m 4060,-1270 v 1270 m -4060,-1270 h 4060 m -4060,1270 v -1270 m 1350,3810 v -1270 m -1350,70 h 1350 m -1350,120 h 1350 m -1350,120 h 1350 m -1350,120 h 1350 m -1350,120 h 1350 m -1350,120 h 1350 m -1350,120 h 1350 m -1350,120 h 1350 m -1350,120 h 1350 m -1350,120 h 1350 m 2710,120 h -4060 m 4060,-1270 v 1270 m -4060,-1270 h 4060 m -4060,1270 v -1270 m 1350,3810 v -1270 m -1350,70 h 1350 m -1350,120 h 1350 m -1350,120 h 1350 m -1350,120 h 1350 m -1350,120 h 1350 m -1350,120 h 1350 m -1350,120 h 1350 m -1350,120 h 1350 m -1350,120 h 1350 m -1350,120 h 1350 m 2710,120 h -4060 m 4060,-1270 v 1270 m -4060,-1270 h 4060 m -4060,1270 v -1270 m -3160,3290 v -1380 m 0,1380 h 1380 m 8760,-240 v -9920 m -9900,9920 v -9920 h 9900 m -9900,9920 h 9900" id="path199" inkscape:connector-curvature="0" style="fill:none;stroke-width:120" />
      <path d="m 78690,-85810 330,-1000 330,1000 m 910,-910 -50,-50 -140,-40 h -100 l -140,40 -100,100 -40,100 -50,190 v 140 l 50,190 40,90 100,100 140,50 h 100 l 140,-50 50,-50 m 1000,-810 -50,-50 -140,-40 h -100 l -140,40 -100,100 -40,100 -50,190 v 140 l 50,190 40,90 100,100 140,50 h 100 l 140,-50 50,-50 m 1140,-860 140,-40 h 240 l 100,40 40,50 50,100 v 90 l -50,100 -40,50 -100,40 -190,50 -100,50 -40,50 -50,90 v 100 l 50,90 40,50 100,50 h 240 l 140,-50 m 330,-290 190,-660 200,470 190,-470 190,660 m 380,-660 v 660 m 0,340 -50,-50 50,-50 40,50 -40,50 v -100 m 330,-240 h 380 m -240,340 v -860 l 50,-100 100,-40 h 90 m 760,40 -90,-40 h -190 l -100,40 -50,50 -40,100 v 280 l 40,100 50,50 100,40 h 190 l 90,-40 m 430,-620 v 1000 m 430,-1000 v 520 l -50,100 -90,40 h -150 l -90,-40 -50,-50" id="path201" inkscape:connector-curvature="0" style="fill:none;stroke-width:150" />
    </g>
    <g id="bVvK2ArDHB4L35D8YgKq_top_drill1" transform="scale(25.4)">
      <use xlink:href="#i_BfHeVigi7uFCeXzRdo_pad-1" x="2850" y="-2350" id="use204" width="100%" height="100%" />
      <use xlink:href="#i_BfHeVigi7uFCeXzRdo_pad-1" x="2850" y="-2450" id="use206" width="100%" height="100%" />
      <use xlink:href="#i_BfHeVigi7uFCeXzRdo_pad-1" x="2850" y="-2550" id="use208" width="100%" height="100%" />
      <use xlink:href="#i_BfHeVigi7uFCeXzRdo_pad-1" x="2850" y="-2750" id="use210" width="100%" height="100%" />
      <use xlink:href="#i_BfHeVigi7uFCeXzRdo_pad-1" x="3050" y="-2980" id="use212" width="100%" height="100%" />
      <use xlink:href="#i_BfHeVigi7uFCeXzRdo_pad-1" x="3600" y="-2350" id="use214" width="100%" height="100%" />
      <use xlink:href="#i_BfHeVigi7uFCeXzRdo_pad-1" x="3600" y="-2550" id="use216" width="100%" height="100%" />
      <use xlink:href="#i_BfHeVigi7uFCeXzRdo_pad-1" x="3600" y="-2650" id="use218" width="100%" height="100%" />
      <use xlink:href="#i_BfHeVigi7uFCeXzRdo_pad-2" x="3090" y="-3540" id="use220" width="100%" height="100%" />
      <use xlink:href="#i_BfHeVigi7uFCeXzRdo_pad-2" x="3090" y="-3640" id="use222" width="100%" height="100%" />
      <use xlink:href="#i_BfHeVigi7uFCeXzRdo_pad-2" x="3090" y="-3740" id="use224" width="100%" height="100%" />
      <use xlink:href="#i_BfHeVigi7uFCeXzRdo_pad-2" x="3390" y="-3540" id="use226" width="100%" height="100%" />
      <use xlink:href="#i_BfHeVigi7uFCeXzRdo_pad-2" x="3390" y="-3640" id="use228" width="100%" height="100%" />
      <use xlink:href="#i_BfHeVigi7uFCeXzRdo_pad-2" x="3390" y="-3740" id="use230" width="100%" height="100%" />
      <use xlink:href="#i_BfHeVigi7uFCeXzRdo_pad-3" x="2700" y="-3690" id="use232" width="100%" height="100%" />
      <use xlink:href="#i_BfHeVigi7uFCeXzRdo_pad-3" x="2800" y="-3690" id="use234" width="100%" height="100%" />
      <use xlink:href="#i_BfHeVigi7uFCeXzRdo_pad-3" x="2700" y="-3050" id="use236" width="100%" height="100%" />
      <use xlink:href="#i_BfHeVigi7uFCeXzRdo_pad-3" x="2700" y="-3150" id="use238" width="100%" height="100%" />
      <use xlink:href="#i_BfHeVigi7uFCeXzRdo_pad-3" x="2700" y="-3250" id="use240" width="100%" height="100%" />
      <use xlink:href="#i_BfHeVigi7uFCeXzRdo_pad-3" x="2700" y="-3350" id="use242" width="100%" height="100%" />
      <use xlink:href="#i_BfHeVigi7uFCeXzRdo_pad-3" x="2700" y="-3450" id="use244" width="100%" height="100%" />
      <use xlink:href="#i_BfHeVigi7uFCeXzRdo_pad-3" x="2800" y="-3050" id="use246" width="100%" height="100%" />
      <use xlink:href="#i_BfHeVigi7uFCeXzRdo_pad-3" x="2800" y="-3150" id="use248" width="100%" height="100%" />
      <use xlink:href="#i_BfHeVigi7uFCeXzRdo_pad-3" x="2800" y="-3250" id="use250" width="100%" height="100%" />
      <use xlink:href="#i_BfHeVigi7uFCeXzRdo_pad-3" x="2800" y="-3350" id="use252" width="100%" height="100%" />
      <use xlink:href="#i_BfHeVigi7uFCeXzRdo_pad-3" x="2800" y="-3450" id="use254" width="100%" height="100%" />
      <use xlink:href="#i_BfHeVigi7uFCeXzRdo_pad-3" x="3180" y="-3210" id="use256" width="100%" height="100%" />
      <use xlink:href="#i_BfHeVigi7uFCeXzRdo_pad-3" x="3280" y="-3210" id="use258" width="100%" height="100%" />
      <use xlink:href="#i_BfHeVigi7uFCeXzRdo_pad-3" x="3380" y="-3210" id="use260" width="100%" height="100%" />
      <use xlink:href="#i_BfHeVigi7uFCeXzRdo_pad-3" x="3480" y="-3210" id="use262" width="100%" height="100%" />
      <use xlink:href="#i_BfHeVigi7uFCeXzRdo_pad-3" x="3580" y="-3210" id="use264" width="100%" height="100%" />
      <use xlink:href="#i_BfHeVigi7uFCeXzRdo_pad-3" x="3680" y="-3210" id="use266" width="100%" height="100%" />
      <use xlink:href="#i_BfHeVigi7uFCeXzRdo_pad-3" x="3740" y="-3640" id="use268" width="100%" height="100%" />
      <use xlink:href="#i_BfHeVigi7uFCeXzRdo_pad-3" x="3740" y="-3740" id="use270" width="100%" height="100%" />
    </g>
    <clipPath id="bVvK2ArDHB4L35D8YgKq_top_outline">
      <path d="M 81280,-58670 H 66550 v -39370 h 31240 v 39370 H 83060 v -12450 h 5080 v -3050 H 76200 v 3050 h 5080 v 12450" id="path273" inkscape:connector-curvature="0" style="fill:none;stroke-width:50" />
    </clipPath>
    <mask id="bVvK2ArDHB4L35D8YgKq_top_mech-mask">
      <g id="g280" style="fill:#000000;stroke:#000000">
        <rect x="66548" y="-98044" width="31242" height="39370" id="rect276" style="fill:#ffffff" />
        <use xlink:href="#bVvK2ArDHB4L35D8YgKq_top_drill1" id="use278" x="0" y="0" width="100%" height="100%" />
      </g>
    </mask>
    <mask id="bVvK2ArDHB4L35D8YgKq_top_cf-mask">
      <g id="g285" style="fill:#ffffff;stroke:#ffffff">
        <use xlink:href="#bVvK2ArDHB4L35D8YgKq_top_soldermask" id="use283" x="0" y="0" width="100%" height="100%" />
      </g>
    </mask>
    <mask id="bVvK2ArDHB4L35D8YgKq_top_sm-mask">
      <g id="g292" style="fill:#000000;stroke:#000000">
        <rect x="66548" y="-98044" width="31242" height="39370" id="rect288" style="fill:#ffffff" />
        <use xlink:href="#bVvK2ArDHB4L35D8YgKq_top_soldermask" id="use290" x="0" y="0" width="100%" height="100%" />
      </g>
    </mask>
  </defs>
  <g transform="matrix(4,0,0,-4,-197000,-330100)" id="g313">
    <g mask="url(#bVvK2ArDHB4L35D8YgKq_top_mech-mask)" clip-path="url(#bVvK2ArDHB4L35D8YgKq_top_outline)" id="g311">
      <rect x="66548" y="-98044" width="31242" height="39370" class="bVvK2ArDHB4L35D8YgKq_fr4" id="rect297" style="color:#666666;fill:currentColor" />
      <use xlink:href="#bVvK2ArDHB4L35D8YgKq_top_copper" class="bVvK2ArDHB4L35D8YgKq_cu" id="use299" style="color:#cccccc;fill:currentColor;stroke:currentColor" x="0" y="0" width="100%" height="100%" />
      <use xlink:href="#bVvK2ArDHB4L35D8YgKq_top_copper" class="bVvK2ArDHB4L35D8YgKq_cf" mask="url(#bVvK2ArDHB4L35D8YgKq_top_cf-mask)" id="use301" style="color:#cc9933;fill:currentColor;stroke:currentColor" x="0" y="0" width="100%" height="100%" />
      <g mask="url(#bVvK2ArDHB4L35D8YgKq_top_sm-mask)" id="g307">
        <rect x="66548" y="-98044" width="31242" height="39370" class="bVvK2ArDHB4L35D8YgKq_sm" id="rect303" style="color:#004200;opacity:0.75;fill:currentColor" />
        <use xlink:href="#bVvK2ArDHB4L35D8YgKq_top_silkscreen" class="bVvK2ArDHB4L35D8YgKq_ss" id="use305" style="color:#ffffff;fill:currentColor;stroke:currentColor" x="0" y="0" width="100%" height="100%" />
      </g>
      <use xlink:href="#bVvK2ArDHB4L35D8YgKq_top_solderpaste" class="bVvK2ArDHB4L35D8YgKq_sp" id="use309" style="color:#999999;fill:currentColor;stroke:currentColor" x="0" y="0" width="100%" height="100%" />
    </g>
  </g>
  <g aria-label="X" transform="scale(1.076,0.9295)" style="font-style:normal;font-variant:normal;font-weight:bold;font-stretch:normal;font-size:8347.5625px;line-height:1.2;font-family:sans-serif;-inkscape-font-specification:'sans-serif Bold';letter-spacing:0px;word-spacing:0px;fill:#000000;fill-opacity:1;stroke:none;stroke-width:0" id="text4836">
    <path d="M 105900,-79.88 108000,3026 h -1700 L 104900,947.3 103500,3026 h -1600 L 104000,-79.88 101900,-3059 h 1700 l 1300,1960 1300,-1960 h 1700 z" style="fill:#ff0000;stroke:#ff0000;stroke-width:0" id="path4838" inkscape:connector-curvature="0" />
  </g>
</svg>
