<?xml version="1.0" encoding="UTF-8" standalone="no"?>
<svg
   xmlns:dc="http://purl.org/dc/elements/1.1/"
   xmlns:cc="http://creativecommons.org/ns#"
   xmlns:rdf="http://www.w3.org/1999/02/22-rdf-syntax-ns#"
   xmlns:svg="http://www.w3.org/2000/svg"
   xmlns="http://www.w3.org/2000/svg"
   xmlns:xlink="http://www.w3.org/1999/xlink"
   xmlns:sodipodi="http://sodipodi.sourceforge.net/DTD/sodipodi-0.dtd"
   xmlns:inkscape="http://www.inkscape.org/namespaces/inkscape"
   version="1.1"
   id="eVFSkVl1_-71bN0rO4Zg_top"
   viewBox="66548 -98044 130259.67 162771.67"
   width="492.32001"
   height="615.20001"
   class="w-100 h-100"
   sodipodi:docname="top.svg"
   inkscape:version="0.92.4 5da689c313, 2019-01-14"
   style="clip-rule:evenodd;fill-rule:evenodd;stroke-width:0;stroke-linecap:round;stroke-linejoin:round">
  <metadata
     id="metadata318">
    <rdf:RDF>
      <cc:Work
         rdf:about="">
        <dc:format>image/svg+xml</dc:format>
        <dc:type
           rdf:resource="http://purl.org/dc/dcmitype/StillImage" />
        <dc:title></dc:title>
      </cc:Work>
    </rdf:RDF>
  </metadata>
  <sodipodi:namedview
     pagecolor="#ffffff"
     bordercolor="#666666"
     borderopacity="1"
     objecttolerance="10"
     gridtolerance="10"
     guidetolerance="10"
     inkscape:pageopacity="0"
     inkscape:pageshadow="2"
     inkscape:window-width="2880"
     inkscape:window-height="1517"
     id="namedview316"
     showgrid="false"
     inkscape:zoom="1.5860215"
     inkscape:cx="352.05556"
     inkscape:cy="336.72301"
     inkscape:window-x="0"
     inkscape:window-y="0"
     inkscape:window-maximized="1"
     inkscape:current-layer="g313"
     units="px"
     fit-margin-top="10"
     fit-margin-left="10"
     fit-margin-right="10"
     fit-margin-bottom="10" />
  <defs
     id="defs295">
    <style
       id="style2">.eVFSkVl1_-71bN0rO4Zg_fr4 {color: #666666;}
.eVFSkVl1_-71bN0rO4Zg_cu {color: #cccccc;}
.eVFSkVl1_-71bN0rO4Zg_cf {color: #cc9933;}
.eVFSkVl1_-71bN0rO4Zg_sm {color: #004200; opacity: 0.75;}
.eVFSkVl1_-71bN0rO4Zg_ss {color: #ffffff;}
.eVFSkVl1_-71bN0rO4Zg_sp {color: #999999;}
.eVFSkVl1_-71bN0rO4Zg_out {color: #000000;}</style>
    <rect
       x="-6500"
       y="-800"
       width="13000"
       height="1600"
       id="MK1P_aduKlscbZJn8YK9_pad-10" />
    <rect
       x="-850"
       y="-850"
       width="1700"
       height="1700"
       rx="850"
       ry="850"
       id="O1HkIjRpp5RhWKMVNt1n_pad-10" />
    <rect
       x="-850"
       y="-850"
       width="1700"
       height="1700"
       id="O1HkIjRpp5RhWKMVNt1n_pad-11" />
    <circle
       cx="0"
       cy="0"
       r="850"
       id="O1HkIjRpp5RhWKMVNt1n_pad-12" />
    <circle
       cx="0"
       cy="0"
       r="900"
       id="O1HkIjRpp5RhWKMVNt1n_pad-13" />
    <rect
       x="-6500"
       y="-800"
       width="13000"
       height="1600"
       id="O1HkIjRpp5RhWKMVNt1n_pad-14" />
    <rect
       x="-800"
       y="-800"
       width="1600"
       height="1600"
       rx="800"
       ry="800"
       id="O1HkIjRpp5RhWKMVNt1n_pad-15" />
    <rect
       x="-800"
       y="-800"
       width="1600"
       height="1600"
       id="O1HkIjRpp5RhWKMVNt1n_pad-16" />
    <circle
       cx="0"
       cy="0"
       r="400"
       id="O1HkIjRpp5RhWKMVNt1n_pad-17" />
    <circle
       cx="0"
       cy="0"
       r="7.8499999"
       id="KdB6Ayrr0znscObpQysC_pad-1" />
    <circle
       cx="0"
       cy="0"
       r="15.75"
       id="KdB6Ayrr0znscObpQysC_pad-2" />
    <circle
       cx="0"
       cy="0"
       r="19.700001"
       id="KdB6Ayrr0znscObpQysC_pad-3" />
    <g
       id="eVFSkVl1_-71bN0rO4Zg_top_silkscreen">
      <path
         d="m 82169,-74168 v -5969"
         id="path16"
         inkscape:connector-curvature="0"
         style="fill:none;stroke-width:120" />
      <path
         d="m 93072,-79081.476 -38.096,-76.19 v -114.286 l 38.096,-114.286 76.19,-76.19 76.19,-38.095 152.381,-38.096 h 114.286 l 152.381,38.096 76.191,38.095 76.19,76.19 38.095,114.286 v 76.191 l -38.095,114.285 -38.095,38.096 h -266.667 v -152.381 m 342.857,495.238 h -800 l 800,457.143 h -800 m 800,380.952 h -800 v 190.476 l 38.096,114.286 76.19,76.19 76.19,38.096 152.381,38.095 h 114.286 l 152.381,-38.095 76.191,-38.096 76.19,-76.19 38.095,-114.286 v -190.476 m -5880,-1752.381 800,266.667 -800,266.666 m 723.81,723.81 38.095,-38.095 38.095,-114.286 v -76.191 l -38.095,-114.285 -76.19,-76.191 -76.191,-38.095 -152.381,-38.095 h -114.286 l -152.381,38.095 -76.19,38.095 -76.19,76.191 -38.096,114.285 v 76.191 l 38.096,114.286 38.095,38.095 m 647.619,800 38.095,-38.095 38.095,-114.286 v -76.191 l -38.095,-114.285 -76.19,-76.191 -76.191,-38.095 -152.381,-38.095 h -114.286 l -152.381,38.095 -76.19,38.095 -76.19,76.191 -38.096,114.285 v 76.191 l 38.096,114.286 38.095,38.095 m -2616.191,-2057.143 v 457.143 m 800,-228.572 h -800 m 0,419.048 800,533.333 m -800,0 800,-533.333 m 0,838.095 h -800 v 190.476 l 38.096,114.286 76.19,76.191 76.19,38.095 152.381,38.095 h 114.286 l 152.381,-38.095 76.191,-38.095 76.19,-76.191 38.095,-114.286 v -190.476 m -2540,-914.285 -380.952,-266.667 m 380.952,-190.476 h -800 v 304.762 l 38.096,76.19 38.095,38.095 76.19,38.096 h 114.286 l 76.19,-38.096 38.096,-38.095 38.095,-76.19 v -304.762 m -419.048,723.809 800,533.334 m -800,0 800,-533.334 m 0,838.095 h -800 v 190.477 l 38.096,114.285 76.19,76.191 76.19,38.095 152.381,38.095 h 114.286 l 152.381,-38.095 76.191,-38.095 76.19,-76.191 38.095,-114.285 v -190.477 m -2540,-1104.761 -380.952,-266.667 m 380.952,-190.476 h -800 v 304.762 l 38.096,76.19 38.095,38.095 76.19,38.096 h 114.286 l 76.19,-38.096 38.096,-38.095 38.095,-76.19 v -304.762 m -38.095,800 v 266.666 m 419.047,114.286 v -380.952 h -800 v 380.952 m 761.905,304.762 38.095,114.286 v 190.476 l -38.095,76.19 -38.095,38.096 -76.191,38.095 h -76.19 l -76.191,-38.095 -38.095,-38.096 -38.095,-76.19 -38.095,-152.381 -38.096,-76.191 -38.095,-38.095 -76.19,-38.095 h -76.191 l -76.19,38.095 -38.095,38.095 -38.096,76.191 v 190.476 l 38.096,114.286 m 342.857,342.857 v 266.667 m 419.047,114.285 v -380.952 h -800 v 380.952 m 0,228.572 v 457.143 m 800,-228.572 h -800 M 71558.095,-95669 v -433.333 l -304.762,233.333 v -100 l -38.095,-66.666 -38.096,-33.334 -76.19,-33.333 h -190.476 l -76.191,33.333 -38.095,33.334 -38.095,66.666 v 200 l 38.095,66.667 38.095,33.333 m 0,-733.333 -38.095,-33.333 -38.095,33.333 38.095,33.333 38.095,-33.333 h -76.19 m 800,-266.667 v -433.333 l -304.762,233.333 v -100 l -38.095,-66.666 -38.096,-33.334 -76.19,-33.333 h -190.476 l -76.191,33.333 -38.095,33.334 -38.095,66.666 v 200 l 38.095,66.667 38.095,33.333 m 723.81,-633.333 -800,-233.333 800,-233.334 m -2578.095,1666.667 38.095,66.667 v 100 l -38.095,100 -76.191,66.666 -76.19,33.334 -152.381,33.333 h -114.286 l -152.381,-33.333 -76.191,-33.334 -76.19,-66.666 -38.095,-100 v -66.667 l 38.095,-100 38.095,-33.333 h 266.667 v 133.333 m -342.857,-433.333 h 800 l -800,-400 h 800 m -800,-333.334 h 800 v -166.666 l -38.095,-100 -76.191,-66.667 -76.19,-33.333 -152.381,-33.334 h -114.286 l -152.381,33.334 -76.191,33.333 -76.19,66.667 -38.095,100 V -97169"
         id="path18"
         inkscape:connector-curvature="0"
         style="fill:none;stroke-width:100" />
      <path
         d="m 93408.666,-87273.38 333.334,-1000 333.333,1000 m 904.762,-904.762 -47.619,-47.619 -142.857,-47.619 h -95.239 l -142.857,47.619 -95.238,95.238 -47.619,95.238 -47.619,190.476 v 142.857 l 47.619,190.476 47.619,95.238 95.238,95.238 142.857,47.62 h 95.239 l 142.857,-47.62 47.619,-47.619 m 1000,-809.523 -47.619,-47.619 -142.857,-47.619 h -95.239 l -142.857,47.619 -95.238,95.238 -47.619,95.238 -47.619,190.476 v 142.857 l 47.619,190.476 47.619,95.238 95.238,95.238 142.857,47.62 h 95.239 l 142.857,-47.62 47.619,-47.619 m -3404.762,-1554.761 v -714.286 l -47.619,-142.857 -95.238,-95.238 -142.857,-47.619 h -95.239 m 1285.715,666.666 v -666.666 m -428.572,666.666 v -523.809 l 47.619,-95.238 95.238,-47.619 h 142.858 l 95.238,47.619 47.619,47.619 m 476.19,-95.238 v 666.666 m 0,-95.238 47.619,47.619 95.238,47.619 H 94242 l 95.238,-47.619 47.619,-95.238 v -523.809 m 0,523.809 47.619,95.238 95.238,47.619 h 142.857 l 95.238,-47.619 47.619,-95.238 v -523.809 m 476.191,666.666 v -1000 m 0,952.381 95.238,47.619 h 190.476 l 95.238,-47.619 47.619,-47.619 47.619,-95.238 v -285.714 l -47.619,-95.238 -47.619,-47.619 -95.238,-47.619 h -190.476 l -95.238,47.619 m 1285.714,0 -95.238,-47.619 h -190.476 l -95.239,47.619 -47.619,95.238 v 380.952 l 47.619,95.238 95.239,47.619 h 190.476 l 95.238,-47.619 47.619,-95.238 v -95.238 l -476.191,-95.238 m 904.762,-333.333 v 666.666 m 0,-190.476 47.619,95.238 47.619,47.619 95.239,47.619 h 95.238"
         id="path20"
         inkscape:connector-curvature="0"
         style="fill:none;stroke-width:150" />
      <path
         d="m 72899.476,-87991.904 v 800 l 266.666,-571.429 266.667,571.429 v -800 m 533.333,800 h 152.381 l 76.191,-38.096 76.19,-76.19 38.096,-152.381 v -266.667 l -38.096,-152.381 -76.19,-76.19 -76.191,-38.095 h -152.381 l -76.19,38.095 -76.191,76.19 -38.095,152.381 v 266.667 l 38.095,152.381 76.191,76.19 76.19,38.096 m 647.619,-761.905 114.286,-38.095 h 190.476 l 76.191,38.095 38.095,38.095 38.095,76.191 v 76.19 l -38.095,76.191 -38.095,38.095 -76.191,38.095 -152.381,38.095 -76.19,38.096 -38.095,38.095 -38.096,76.19 v 76.191 l 38.096,76.19 38.095,38.095 76.19,38.096 h 190.477 l 114.285,-38.096 m 342.857,-761.904 v 800 m -2552.381,6858.095 114.286,-38.095 h 190.476 l 76.191,38.095 38.095,38.095 38.095,76.191 v 76.19 l -38.095,76.191 -38.095,38.095 -76.191,38.095 -152.381,38.095 -76.19,38.096 -38.095,38.095 -38.096,76.19 v 76.191 l 38.096,76.19 38.095,38.095 76.19,38.096 h 190.477 l 114.285,-38.096 m 800,-685.714 -38.095,-38.095 -114.286,-38.095 h -76.19 l -114.286,38.095 -76.19,76.19 -38.096,76.191 -38.095,152.381 v 114.286 l 38.095,152.381 38.096,76.19 76.19,76.19 114.286,38.096 h 76.19 l 114.286,-38.096 38.095,-38.095 m 342.857,-723.809 v 800 m 457.143,-800 -342.857,457.143 m 342.857,342.857 -457.143,-457.143 m -88.761,-2882.857 -266.667,380.952 m -190.476,-380.952 v 800 h 304.762 l 76.19,-38.096 38.095,-38.095 38.096,-76.19 v -114.286 l -38.096,-76.19 -38.095,-38.096 -76.19,-38.095 h -304.762 m 761.904,-342.857 114.286,-38.095 h 190.476 l 76.191,38.095 38.095,38.095 38.095,76.191 v 76.19 l -38.095,76.191 -38.095,38.095 -76.191,38.095 -152.381,38.095 -76.19,38.096 -38.095,38.095 -38.096,76.19 v 76.191 l 38.096,76.19 38.095,38.095 76.19,38.096 h 190.477 l 114.285,-38.096 m 228.572,38.096 h 457.143 m -228.572,-800 v 800 m -2692.19,4280 v 800 l 266.666,-571.429 266.667,571.429 v -800 m 380.952,0 v 800 m 342.858,-761.905 114.285,-38.095 h 190.476 l 76.191,38.095 38.095,38.095 38.095,76.191 v 76.19 l -38.095,76.191 -38.095,38.095 -76.191,38.095 -152.38,38.095 -76.191,38.096 -38.095,38.095 -38.095,76.19 v 76.191 l 38.095,76.19 38.095,38.095 76.191,38.096 h 190.476 l 114.285,-38.096 m 495.239,38.096 h 152.38 l 76.191,-38.096 76.19,-76.19 38.096,-152.381 v -266.667 l -38.096,-152.381 -76.19,-76.19 -76.191,-38.095 H 75109 l -76.191,38.095 -76.19,76.19 -38.096,152.381 v 266.667 l 38.096,152.381 76.19,76.19 76.191,38.096"
         id="path22"
         inkscape:connector-curvature="0"
         style="fill:none;stroke-width:100" />
      <path
         d="m 88076.738,-94448.38 333.333,-1000 333.333,1000 m 333.334,-1000 v 666.666 m 0,333.334 -47.619,-47.62 47.619,-47.619 47.619,47.619 -47.619,47.62 v -95.239 m 476.19,-238.095 v -666.666 m 0,571.428 47.619,47.619 95.238,47.619 h 142.857 l 95.238,-47.619 47.62,-95.238 v -523.809 m -2015.905,2540 v 1000 m 428.571,-952.381 142.857,-47.619 h 238.096 l 95.238,47.619 47.619,47.619 47.619,95.238 v 95.238 l -47.619,95.238 -47.619,47.619 -95.238,47.619 -190.477,47.619 -95.238,47.619 -47.619,47.619 -47.619,95.238 v 95.238 l 47.619,95.238 47.619,47.619 95.238,47.62 h 238.096 l 142.857,-47.62 m 428.571,-952.38 v 1000 h 380.953 l 95.238,-47.62 47.619,-47.619 47.619,-95.238 v -142.857 l -47.619,-95.238 -47.619,-47.619 -95.238,-47.619 h -380.953 m -1095.238,2587.619 h -333.333 m 0,-523.809 v 1000 h 476.19 m 238.095,0 h 571.429 m -285.714,-1000 v 1000 m 619.047,-1000 v 1000 h 238.096 l 142.857,-47.62 95.238,-95.238 47.619,-95.238 47.619,-190.476 v -142.857 l -47.619,-190.476 -47.619,-95.238 -95.238,-95.238 -142.857,-47.619 h -238.096 m 1000,0 v 1000"
         id="path24"
         inkscape:connector-curvature="0"
         style="fill:none;stroke-width:150" />
      <path
         d="m 80772,-82864 h -1330 v 2660 h 15360 m -14270,-2660 h 14270 v 2660 m -24952,4064 h 2600 m -5180,0 h 2580 m -2600,-2600 v 2590 m 0,-2590 v -10220 h 5200 m 0,4720 v -4720 m 0,8160 h 1010 v -3440 h -1010 m 0,8100 v -4660 m -4886,10950 h -254 m 254,5080 h -254 m 254,2540 h -254 m 254,2540 h -254 m 13716,-10160 h -254 m 254,10160 h -254 m 254,-5080 h -254 m 254,2540 h -254 m 16002,2540 h 254 m -254,-5080 h 254 m -254,-2540 h 254 m -254,-2540 h 254 m -13716,10160 h 254 m -254,-10160 h 254 m -254,5080 h 254 m -254,-2540 h 254 m 12760,-23816 v -1330 m -1330,1330 h 1330 m 0,-2600 v -2600 m -2600,2600 h 2600 m -2600,2600 v -2600 m 2600,-2600 h -2660 m 60,5200 h -60 v -5200 m -21216,3930 v -1330 m -1330,1330 h 1330 m -2600,0 v -2660 h -2600 m 2600,2660 h -2600 v -2660 m 14369.333,695 v -1270 m -1353.333,70 h 1353.333 M 80266,-95441 h 1353.333 M 80266,-95321 h 1353.333 M 80266,-95201 h 1353.333 M 80266,-95081 h 1353.333 M 80266,-94961 h 1353.333 M 80266,-94841 h 1353.333 M 80266,-94721 h 1353.333 M 80266,-94601 h 1353.333 M 80266,-94481 h 1353.333 m 2706.667,120 h -4060 m 4060,-1270 v 1270 m -4060,-1270 h 4060 m -4060,1270 v -1270 m 1353.333,3810 v -1270 m -1353.333,70 h 1353.333 M 80266,-92901 h 1353.333 M 80266,-92781 h 1353.333 M 80266,-92661 h 1353.333 M 80266,-92541 h 1353.333 M 80266,-92421 h 1353.333 M 80266,-92301 h 1353.333 M 80266,-92181 h 1353.333 M 80266,-92061 h 1353.333 M 80266,-91941 h 1353.333 m 2706.667,120 h -4060 m 4060,-1270 v 1270 m -4060,-1270 h 4060 m -4060,1270 v -1270 m 1353.333,3810 v -1270 m -1353.333,70 h 1353.333 M 80266,-90361 h 1353.333 M 80266,-90241 h 1353.333 M 80266,-90121 h 1353.333 M 80266,-90001 h 1353.333 M 80266,-89881 h 1353.333 M 80266,-89761 h 1353.333 M 80266,-89641 h 1353.333 M 80266,-89521 h 1353.333 M 80266,-89401 h 1353.333 m 2706.667,120 h -4060 m 4060,-1270 v 1270 m -4060,-1270 h 4060 m -4060,1270 v -1270 m -3160,3295 v -1383 m 0,1383 h 1384 m 8756,-240 v -9920 m -9900,9920 v -9920 h 9900 m -9900,9920 h 9900"
         id="path26"
         inkscape:connector-curvature="0"
         style="fill:none;stroke-width:120" />
      <path
         d="m 78684.952,-85812.38 333.333,-1000 333.334,1000 m 904.761,-904.762 -47.619,-47.619 -142.857,-47.619 h -95.238 l -142.857,47.619 -95.238,95.238 -47.619,95.238 -47.619,190.476 v 142.857 l 47.619,190.476 47.619,95.238 95.238,95.238 142.857,47.62 h 95.238 l 142.857,-47.62 47.619,-47.619 m 1000,-809.523 -47.619,-47.619 -142.857,-47.619 h -95.238 l -142.857,47.619 -95.238,95.238 -47.619,95.238 -47.619,190.476 v 142.857 l 47.619,190.476 47.619,95.238 95.238,95.238 142.857,47.62 h 95.238 l 142.857,-47.62 47.619,-47.619 m 1142.858,-857.142 142.857,-47.619 h 238.095 l 95.238,47.619 47.619,47.619 47.619,95.238 v 95.238 l -47.619,95.238 -47.619,47.619 -95.238,47.619 -190.476,47.619 -95.238,47.619 -47.619,47.619 -47.619,95.238 v 95.238 l 47.619,95.238 47.619,47.619 95.238,47.62 h 238.095 l 142.857,-47.62 m 333.334,-285.714 190.476,-666.666 190.476,476.19 190.476,-476.19 190.476,666.666 m 380.953,-666.666 v 666.666 m 0,333.334 -47.619,-47.62 47.619,-47.619 47.619,47.619 -47.619,47.62 v -95.239 m 333.333,-238.095 h 380.952 m -238.095,333.334 v -857.143 l 47.619,-95.238 95.238,-47.619 h 95.238 m 761.905,47.619 -95.238,-47.619 h -190.476 l -95.238,47.619 -47.619,47.619 -47.619,95.238 v 285.714 l 47.619,95.238 47.619,47.619 95.238,47.619 h 190.476 l 95.238,-47.619 m 428.572,-619.047 v 1000 m 428.571,-1000 v 523.809 l -47.619,95.238 -95.238,47.619 h -142.857 l -95.238,-47.619 -47.619,-47.619"
         id="path28"
         inkscape:connector-curvature="0"
         style="fill:none;stroke-width:150" />
    </g>
    <g
       id="eVFSkVl1_-71bN0rO4Zg_top_solderpaste">
      <use
         xlink:href="#MK1P_aduKlscbZJn8YK9_pad-10"
         x="74168"
         y="-69850"
         id="use31"
         width="100%"
         height="100%" />
      <use
         xlink:href="#MK1P_aduKlscbZJn8YK9_pad-10"
         x="74168"
         y="-64770"
         id="use33"
         width="100%"
         height="100%" />
      <use
         xlink:href="#MK1P_aduKlscbZJn8YK9_pad-10"
         x="74168"
         y="-59690"
         id="use35"
         width="100%"
         height="100%" />
      <use
         xlink:href="#MK1P_aduKlscbZJn8YK9_pad-10"
         x="74168"
         y="-62230"
         id="use37"
         width="100%"
         height="100%" />
      <use
         xlink:href="#MK1P_aduKlscbZJn8YK9_pad-10"
         x="90170"
         y="-59690"
         id="use39"
         width="100%"
         height="100%" />
      <use
         xlink:href="#MK1P_aduKlscbZJn8YK9_pad-10"
         x="90170"
         y="-64770"
         id="use41"
         width="100%"
         height="100%" />
      <use
         xlink:href="#MK1P_aduKlscbZJn8YK9_pad-10"
         x="90170"
         y="-69850"
         id="use43"
         width="100%"
         height="100%" />
      <use
         xlink:href="#MK1P_aduKlscbZJn8YK9_pad-10"
         x="90170"
         y="-67310"
         id="use45"
         width="100%"
         height="100%" />
    </g>
    <g
       id="eVFSkVl1_-71bN0rO4Zg_top_copper">
      <use
         xlink:href="#O1HkIjRpp5RhWKMVNt1n_pad-10"
         x="93472"
         y="-81534"
         id="use48"
         width="100%"
         height="100%" />
      <use
         xlink:href="#O1HkIjRpp5RhWKMVNt1n_pad-10"
         x="90932"
         y="-81534"
         id="use50"
         width="100%"
         height="100%" />
      <use
         xlink:href="#O1HkIjRpp5RhWKMVNt1n_pad-11"
         x="88392"
         y="-81534"
         id="use52"
         width="100%"
         height="100%" />
      <use
         xlink:href="#O1HkIjRpp5RhWKMVNt1n_pad-10"
         x="85852"
         y="-81534"
         id="use54"
         width="100%"
         height="100%" />
      <use
         xlink:href="#O1HkIjRpp5RhWKMVNt1n_pad-10"
         x="83312"
         y="-81534"
         id="use56"
         width="100%"
         height="100%" />
      <use
         xlink:href="#O1HkIjRpp5RhWKMVNt1n_pad-12"
         x="80772"
         y="-81534"
         id="use58"
         width="100%"
         height="100%" />
      <use
         xlink:href="#O1HkIjRpp5RhWKMVNt1n_pad-10"
         x="71120"
         y="-87630"
         id="use60"
         width="100%"
         height="100%" />
      <use
         xlink:href="#O1HkIjRpp5RhWKMVNt1n_pad-11"
         x="68580"
         y="-87630"
         id="use62"
         width="100%"
         height="100%" />
      <use
         xlink:href="#O1HkIjRpp5RhWKMVNt1n_pad-10"
         x="71120"
         y="-85090"
         id="use64"
         width="100%"
         height="100%" />
      <use
         xlink:href="#O1HkIjRpp5RhWKMVNt1n_pad-10"
         x="68580"
         y="-85090"
         id="use66"
         width="100%"
         height="100%" />
      <use
         xlink:href="#O1HkIjRpp5RhWKMVNt1n_pad-10"
         x="71120"
         y="-82550"
         id="use68"
         width="100%"
         height="100%" />
      <use
         xlink:href="#O1HkIjRpp5RhWKMVNt1n_pad-10"
         x="68580"
         y="-82550"
         id="use70"
         width="100%"
         height="100%" />
      <use
         xlink:href="#O1HkIjRpp5RhWKMVNt1n_pad-10"
         x="71120"
         y="-80010"
         id="use72"
         width="100%"
         height="100%" />
      <use
         xlink:href="#O1HkIjRpp5RhWKMVNt1n_pad-13"
         x="68580"
         y="-80010"
         id="use74"
         width="100%"
         height="100%" />
      <use
         xlink:href="#O1HkIjRpp5RhWKMVNt1n_pad-10"
         x="71120"
         y="-77470"
         id="use76"
         width="100%"
         height="100%" />
      <use
         xlink:href="#O1HkIjRpp5RhWKMVNt1n_pad-12"
         x="68580"
         y="-77470"
         id="use78"
         width="100%"
         height="100%" />
      <use
         xlink:href="#O1HkIjRpp5RhWKMVNt1n_pad-14"
         x="74168"
         y="-69850"
         id="use80"
         width="100%"
         height="100%" />
      <use
         xlink:href="#O1HkIjRpp5RhWKMVNt1n_pad-14"
         x="74168"
         y="-64770"
         id="use82"
         width="100%"
         height="100%" />
      <use
         xlink:href="#O1HkIjRpp5RhWKMVNt1n_pad-14"
         x="74168"
         y="-59690"
         id="use84"
         width="100%"
         height="100%" />
      <use
         xlink:href="#O1HkIjRpp5RhWKMVNt1n_pad-14"
         x="74168"
         y="-62230"
         id="use86"
         width="100%"
         height="100%" />
      <use
         xlink:href="#O1HkIjRpp5RhWKMVNt1n_pad-14"
         x="90170"
         y="-59690"
         id="use88"
         width="100%"
         height="100%" />
      <use
         xlink:href="#O1HkIjRpp5RhWKMVNt1n_pad-14"
         x="90170"
         y="-64770"
         id="use90"
         width="100%"
         height="100%" />
      <use
         xlink:href="#O1HkIjRpp5RhWKMVNt1n_pad-14"
         x="90170"
         y="-69850"
         id="use92"
         width="100%"
         height="100%" />
      <use
         xlink:href="#O1HkIjRpp5RhWKMVNt1n_pad-14"
         x="90170"
         y="-67310"
         id="use94"
         width="100%"
         height="100%" />
      <use
         xlink:href="#O1HkIjRpp5RhWKMVNt1n_pad-11"
         x="94996"
         y="-94996"
         id="use96"
         width="100%"
         height="100%" />
      <use
         xlink:href="#O1HkIjRpp5RhWKMVNt1n_pad-11"
         x="94996"
         y="-92456"
         id="use98"
         width="100%"
         height="100%" />
      <use
         xlink:href="#O1HkIjRpp5RhWKMVNt1n_pad-10"
         x="68580"
         y="-93726"
         id="use100"
         width="100%"
         height="100%" />
      <use
         xlink:href="#O1HkIjRpp5RhWKMVNt1n_pad-11"
         x="71120"
         y="-93726"
         id="use102"
         width="100%"
         height="100%" />
      <use
         xlink:href="#O1HkIjRpp5RhWKMVNt1n_pad-15"
         x="86106"
         y="-89916"
         id="use104"
         width="100%"
         height="100%" />
      <use
         xlink:href="#O1HkIjRpp5RhWKMVNt1n_pad-15"
         x="78486"
         y="-94996"
         id="use106"
         width="100%"
         height="100%" />
      <use
         xlink:href="#O1HkIjRpp5RhWKMVNt1n_pad-15"
         x="86106"
         y="-92456"
         id="use108"
         width="100%"
         height="100%" />
      <use
         xlink:href="#O1HkIjRpp5RhWKMVNt1n_pad-15"
         x="78486"
         y="-92456"
         id="use110"
         width="100%"
         height="100%" />
      <use
         xlink:href="#O1HkIjRpp5RhWKMVNt1n_pad-15"
         x="86106"
         y="-94996"
         id="use112"
         width="100%"
         height="100%" />
      <use
         xlink:href="#O1HkIjRpp5RhWKMVNt1n_pad-16"
         x="78486"
         y="-89916"
         id="use114"
         width="100%"
         height="100%" />
      <use
         xlink:href="#O1HkIjRpp5RhWKMVNt1n_pad-17"
         x="91440"
         y="-59690"
         id="use116"
         width="100%"
         height="100%" />
      <use
         xlink:href="#O1HkIjRpp5RhWKMVNt1n_pad-17"
         x="77470"
         y="-75692"
         id="use118"
         width="100%"
         height="100%" />
      <use
         xlink:href="#O1HkIjRpp5RhWKMVNt1n_pad-17"
         x="72390"
         y="-59690"
         id="use120"
         width="100%"
         height="100%" />
      <use
         xlink:href="#O1HkIjRpp5RhWKMVNt1n_pad-17"
         x="72390"
         y="-62230"
         id="use122"
         width="100%"
         height="100%" />
      <use
         xlink:href="#O1HkIjRpp5RhWKMVNt1n_pad-17"
         x="72390"
         y="-64770"
         id="use124"
         width="100%"
         height="100%" />
      <use
         xlink:href="#O1HkIjRpp5RhWKMVNt1n_pad-17"
         x="72390"
         y="-69850"
         id="use126"
         width="100%"
         height="100%" />
      <use
         xlink:href="#O1HkIjRpp5RhWKMVNt1n_pad-17"
         x="91440"
         y="-64770"
         id="use128"
         width="100%"
         height="100%" />
      <use
         xlink:href="#O1HkIjRpp5RhWKMVNt1n_pad-17"
         x="91440"
         y="-67310"
         id="use130"
         width="100%"
         height="100%" />
      <path
         d="m 69088,-75692 h 8382 m -8890,-1778 v 1270 l 508,508 m 8382,0 v 0 m -8890,-2980.081 V -80010 m 0,2540 v -1202.081 M 71120,-93726 h 4064 m 1270,-1270 h 2032 m -3302,1270 1270,-1270 m 3302,12446 1016,1016 m -9652,-1016 h 8636 m 6350,-7366 v -5080 h 8890 m 1143,24003 -1143,1143 m 0,-22606 1143,1143 v 20320 m -16129,-18923 8382,8382 m -9906,-8382 h 1524 m -1524,-2540 h -3810 l -1270,1270 m -4826,2456 v 1100 m 2456,-3556 -2456,2456 m 4826,-2456 h -2370"
         id="path132"
         inkscape:connector-curvature="0"
         style="fill:none;stroke-width:250" />
    </g>
    <g
       id="eVFSkVl1_-71bN0rO4Zg_top_soldermask">
      <path
         d="m 95897,-95897 h -1802 v 1802 h 1802 v -1802"
         id="path135"
         inkscape:connector-curvature="0" />
      <path
         d="m 86354.228,-94177.703 154.872,-64.15 139.381,-93.132 118.534,-118.534 93.132,-139.381 64.15,-154.872 32.703,-164.412 v -167.632 l -32.703,-164.412 -64.15,-154.872 -93.132,-139.381 -118.534,-118.534 -139.381,-93.132 -154.872,-64.15 -164.412,-32.703 h -167.632 l -164.412,32.703 -154.872,64.15 -139.381,93.132 -118.534,118.534 -93.132,139.381 -64.15,154.872 -32.703,164.412 v 167.632 l 32.703,164.412 64.15,154.872 93.132,139.381 118.534,118.534 139.381,93.132 154.872,64.15 164.412,32.703 h 167.632 l 164.412,-32.703"
         id="path137"
         inkscape:connector-curvature="0" />
      <path
         d="m 78734.228,-94177.703 154.872,-64.15 139.381,-93.132 118.534,-118.534 93.132,-139.381 64.15,-154.872 32.703,-164.412 v -167.632 l -32.703,-164.412 -64.15,-154.872 -93.132,-139.381 -118.534,-118.534 -139.381,-93.132 -154.872,-64.15 -164.412,-32.703 h -167.632 l -164.412,32.703 -154.872,64.15 -139.381,93.132 -118.534,118.534 -93.132,139.381 -64.15,154.872 -32.703,164.412 v 167.632 l 32.703,164.412 64.15,154.872 93.132,139.381 118.534,118.534 139.381,93.132 154.872,64.15 164.412,32.703 h 167.632 l 164.412,-32.703"
         id="path139"
         inkscape:connector-curvature="0" />
      <path
         d="m 68693.512,-92829.927 149.3,-29.697 163.972,-67.92 147.57,-98.603 125.499,-125.499 98.603,-147.57 67.92,-163.972 34.624,-174.071 v -177.482 l -34.624,-174.071 -67.92,-163.972 -98.603,-147.57 -125.499,-125.499 -147.57,-98.603 -163.972,-67.92 -149.3,-29.697 -24.77,-4.927 h -177.484 l -24.77,4.927 -149.3,29.697 -163.972,67.92 -147.57,98.603 -125.499,125.499 -98.603,147.57 -67.92,163.972 -34.624,174.071 v 177.482 l 34.624,174.071 67.92,163.972 98.603,147.57 125.499,125.499 147.57,98.603 163.972,67.92 149.3,29.697 24.77,4.927 h 177.484 l 24.77,-4.927"
         id="path141"
         inkscape:connector-curvature="0" />
      <path
         d="m 72021,-94627 h -1802 v 1802 h 1802 v -1802"
         id="path143"
         inkscape:connector-curvature="0" />
      <path
         d="m 95897,-93357 h -1802 v 1802 h 1802 v -1802"
         id="path145"
         inkscape:connector-curvature="0" />
      <path
         d="m 86354.228,-91637.703 154.872,-64.15 139.381,-93.132 118.534,-118.534 93.132,-139.381 64.15,-154.872 32.703,-164.412 v -167.632 l -32.703,-164.412 -64.15,-154.872 -93.132,-139.381 -118.534,-118.534 -139.381,-93.132 -154.872,-64.15 -164.412,-32.703 h -167.632 l -164.412,32.703 -154.872,64.15 -139.381,93.132 -118.534,118.534 -93.132,139.381 -64.15,154.872 -32.703,164.412 v 167.632 l 32.703,164.412 64.15,154.872 93.132,139.381 118.534,118.534 139.381,93.132 154.872,64.15 164.412,32.703 h 167.632 l 164.412,-32.703"
         id="path147"
         inkscape:connector-curvature="0" />
      <path
         d="m 78734.228,-91637.703 154.872,-64.15 139.381,-93.132 118.534,-118.534 93.132,-139.381 64.15,-154.872 32.703,-164.412 v -167.632 l -32.703,-164.412 -64.15,-154.872 -93.132,-139.381 -118.534,-118.534 -139.381,-93.132 -154.872,-64.15 -164.412,-32.703 h -167.632 l -164.412,32.703 -154.872,64.15 -139.381,93.132 -118.534,118.534 -93.132,139.381 -64.15,154.872 -32.703,164.412 v 167.632 l 32.703,164.412 64.15,154.872 93.132,139.381 118.534,118.534 139.381,93.132 154.872,64.15 164.412,32.703 h 167.632 l 164.412,-32.703"
         id="path149"
         inkscape:connector-curvature="0" />
      <path
         d="m 86354.228,-89097.703 154.872,-64.15 139.381,-93.132 118.534,-118.534 93.132,-139.381 64.15,-154.872 32.703,-164.412 v -167.632 l -32.703,-164.412 -64.15,-154.872 -93.132,-139.381 -118.534,-118.534 -139.381,-93.132 -154.872,-64.15 -164.412,-32.703 h -167.632 l -164.412,32.703 -154.872,64.15 -139.381,93.132 -118.534,118.534 -93.132,139.381 -64.15,154.872 -32.703,164.412 v 167.632 l 32.703,164.412 64.15,154.872 93.132,139.381 118.534,118.534 139.381,93.132 154.872,64.15 164.412,32.703 h 167.632 l 164.412,-32.703"
         id="path151"
         inkscape:connector-curvature="0" />
      <path
         d="m 79337,-90767 h -1702 v 1702 h 1702 v -1702"
         id="path153"
         inkscape:connector-curvature="0" />
      <path
         d="m 71233.512,-86733.927 149.3,-29.697 163.972,-67.92 147.57,-98.603 125.499,-125.499 98.603,-147.57 67.92,-163.972 34.624,-174.071 v -177.482 l -34.624,-174.071 -67.92,-163.972 -98.603,-147.57 -125.499,-125.499 -147.57,-98.603 -163.972,-67.92 -149.3,-29.697 -24.77,-4.927 h -177.484 l -24.77,4.927 -149.3,29.697 -163.972,67.92 -147.57,98.603 -125.499,125.499 -98.603,147.57 -67.92,163.972 -34.624,174.071 v 177.482 l 34.624,174.071 67.92,163.972 98.603,147.57 125.499,125.499 147.57,98.603 163.972,67.92 149.3,29.697 24.77,4.927 h 177.484 l 24.77,-4.927"
         id="path155"
         inkscape:connector-curvature="0" />
      <path
         d="m 69481,-88531 h -1802 v 1802 h 1802 v -1802"
         id="path157"
         inkscape:connector-curvature="0" />
      <path
         d="m 68693.512,-84193.927 149.3,-29.697 163.972,-67.92 147.57,-98.603 125.499,-125.499 98.603,-147.57 67.92,-163.972 34.624,-174.071 v -177.482 l -34.624,-174.071 -67.92,-163.972 -98.603,-147.57 -125.499,-125.499 -147.57,-98.603 -163.972,-67.92 -149.3,-29.697 -24.77,-4.927 h -177.484 l -24.77,4.927 -149.3,29.697 -163.972,67.92 -147.57,98.603 -125.499,125.499 -98.603,147.57 -67.92,163.972 -34.624,174.071 v 177.482 l 34.624,174.071 67.92,163.972 98.603,147.57 125.499,125.499 147.57,98.603 163.972,67.92 149.3,29.697 24.77,4.927 h 177.484 l 24.77,-4.927"
         id="path159"
         inkscape:connector-curvature="0" />
      <path
         d="m 71233.512,-84193.927 149.3,-29.697 163.972,-67.92 147.57,-98.603 125.499,-125.499 98.603,-147.57 67.92,-163.972 34.624,-174.071 v -177.482 l -34.624,-174.071 -67.92,-163.972 -98.603,-147.57 -125.499,-125.499 -147.57,-98.603 -163.972,-67.92 -149.3,-29.697 -24.77,-4.927 h -177.484 l -24.77,4.927 -149.3,29.697 -163.972,67.92 -147.57,98.603 -125.499,125.499 -98.603,147.57 -67.92,163.972 -34.624,174.071 v 177.482 l 34.624,174.071 67.92,163.972 98.603,147.57 125.499,125.499 147.57,98.603 163.972,67.92 149.3,29.697 24.77,4.927 h 177.484 l 24.77,-4.927"
         id="path161"
         inkscape:connector-curvature="0" />
      <path
         d="m 68693.512,-81653.927 149.3,-29.697 163.972,-67.92 147.57,-98.603 125.499,-125.499 98.603,-147.57 67.92,-163.972 34.624,-174.071 v -177.482 l -34.624,-174.071 -67.92,-163.972 -98.603,-147.57 -125.499,-125.499 -147.57,-98.603 -163.972,-67.92 -149.3,-29.697 -24.77,-4.927 h -177.484 l -24.77,4.927 -149.3,29.697 -163.972,67.92 -147.57,98.603 -125.499,125.499 -98.603,147.57 -67.92,163.972 -34.624,174.071 v 177.482 l 34.624,174.071 67.92,163.972 98.603,147.57 125.499,125.499 147.57,98.603 163.972,67.92 149.3,29.697 24.77,4.927 h 177.484 l 24.77,-4.927"
         id="path163"
         inkscape:connector-curvature="0" />
      <path
         d="m 71233.512,-81653.927 149.3,-29.697 163.972,-67.92 147.57,-98.603 125.499,-125.499 98.603,-147.57 67.92,-163.972 34.624,-174.071 v -177.482 l -34.624,-174.071 -67.92,-163.972 -98.603,-147.57 -125.499,-125.499 -147.57,-98.603 -163.972,-67.92 -149.3,-29.697 -24.77,-4.927 h -177.484 l -24.77,4.927 -149.3,29.697 -163.972,67.92 -147.57,98.603 -125.499,125.499 -98.603,147.57 -67.92,163.972 -34.624,174.071 v 177.482 l 34.624,174.071 67.92,163.972 98.603,147.57 125.499,125.499 147.57,98.603 163.972,67.92 149.3,29.697 24.77,4.927 h 177.484 l 24.77,-4.927"
         id="path165"
         inkscape:connector-curvature="0" />
      <path
         d="m 91045.512,-80637.927 149.3,-29.697 163.972,-67.92 147.57,-98.603 125.499,-125.499 98.603,-147.57 67.92,-163.972 34.624,-174.071 v -177.482 l -34.624,-174.071 -67.92,-163.972 -98.603,-147.57 -125.499,-125.499 -147.57,-98.603 -163.972,-67.92 -149.3,-29.697 -24.77,-4.927 h -177.484 l -24.77,4.927 -149.3,29.697 -163.972,67.92 -147.57,98.603 -125.499,125.499 -98.603,147.57 -67.92,163.972 -34.624,174.071 v 177.482 l 34.624,174.071 67.92,163.972 98.603,147.57 125.499,125.499 147.57,98.603 163.972,67.92 149.3,29.697 24.77,4.927 h 177.484 l 24.77,-4.927"
         id="path167"
         inkscape:connector-curvature="0" />
      <path
         d="m 85965.512,-80637.927 149.3,-29.697 163.972,-67.92 147.57,-98.603 125.499,-125.499 98.603,-147.57 67.92,-163.972 34.624,-174.071 v -177.482 l -34.624,-174.071 -67.92,-163.972 -98.603,-147.57 -125.499,-125.499 -147.57,-98.603 -163.972,-67.92 -149.3,-29.697 -24.77,-4.927 h -177.484 l -24.77,4.927 -149.3,29.697 -163.972,67.92 -147.57,98.603 -125.499,125.499 -98.603,147.57 -67.92,163.972 -34.624,174.071 v 177.482 l 34.624,174.071 67.92,163.972 98.603,147.57 125.499,125.499 147.57,98.603 163.972,67.92 149.3,29.697 24.77,4.927 h 177.484 l 24.77,-4.927"
         id="path169"
         inkscape:connector-curvature="0" />
      <path
         d="m 83425.512,-80637.927 149.3,-29.697 163.972,-67.92 147.57,-98.603 125.499,-125.499 98.603,-147.57 67.92,-163.972 34.624,-174.071 v -177.482 l -34.624,-174.071 -67.92,-163.972 -98.603,-147.57 -125.499,-125.499 -147.57,-98.603 -163.972,-67.92 -149.3,-29.697 -24.77,-4.927 h -177.484 l -24.77,4.927 -149.3,29.697 -163.972,67.92 -147.57,98.603 -125.499,125.499 -98.603,147.57 -67.92,163.972 -34.624,174.071 v 177.482 l 34.624,174.071 67.92,163.972 98.603,147.57 125.499,125.499 147.57,98.603 163.972,67.92 149.3,29.697 24.77,4.927 h 177.484 l 24.77,-4.927"
         id="path171"
         inkscape:connector-curvature="0" />
      <path
         d="m 89293,-82435 h -1802 v 1802 h 1802 v -1802"
         id="path173"
         inkscape:connector-curvature="0" />
      <path
         d="m 93585.512,-80637.927 149.3,-29.697 163.972,-67.92 147.57,-98.603 125.499,-125.499 98.603,-147.57 67.92,-163.972 34.624,-174.071 v -177.482 l -34.624,-174.071 -67.92,-163.972 -98.603,-147.57 -125.499,-125.499 -147.57,-98.603 -163.972,-67.92 -149.3,-29.697 -24.77,-4.927 h -177.484 l -24.77,4.927 -149.3,29.697 -163.972,67.92 -147.57,98.603 -125.499,125.499 -98.603,147.57 -67.92,163.972 -34.624,174.071 v 177.482 l 34.624,174.071 67.92,163.972 98.603,147.57 125.499,125.499 147.57,98.603 163.972,67.92 149.3,29.697 24.77,4.927 h 177.484 l 24.77,-4.927"
         id="path175"
         inkscape:connector-curvature="0" />
      <path
         d="m 80885.512,-80637.927 149.3,-29.697 163.972,-67.92 147.57,-98.603 125.499,-125.499 98.603,-147.57 67.92,-163.972 34.624,-174.071 v -177.482 l -34.624,-174.071 -67.92,-163.972 -98.603,-147.57 -125.499,-125.499 -147.57,-98.603 -163.972,-67.92 -149.3,-29.697 -24.77,-4.927 h -177.484 l -24.77,4.927 -149.3,29.697 -163.972,67.92 -147.57,98.603 -125.499,125.499 -98.603,147.57 -67.92,163.972 -34.624,174.071 v 177.482 l 34.624,174.071 67.92,163.972 98.603,147.57 125.499,125.499 147.57,98.603 163.972,67.92 149.3,29.697 24.77,4.927 h 177.484 l 24.77,-4.927"
         id="path177"
         inkscape:connector-curvature="0" />
      <path
         d="m 68857.395,-79095.546 173.071,-71.688 v 0 l 155.76,-104.075 132.463,-132.463 v 0 l 104.075,-155.759 71.688,-173.071 36.546,-183.728 v -187.334 l -36.546,-183.728 -71.688,-173.071 v 0 l -104.075,-155.76 -132.463,-132.463 -78.409,-52.391 -77.352,-51.685 -173.071,-71.688 -183.728,-36.546 h -187.334 l -183.728,36.546 -173.071,71.688 -77.352,51.685 -78.409,52.391 -132.463,132.463 -104.075,155.76 v 0 l -71.688,173.071 -36.546,183.728 v 187.334 l 36.546,183.728 71.688,173.071 104.075,155.759 v 0 l 132.463,132.463 155.76,104.075 v 0 l 173.071,71.688 183.728,36.546 h 187.334 l 183.728,-36.546"
         id="path179"
         inkscape:connector-curvature="0" />
      <path
         d="m 71233.512,-79113.927 149.3,-29.697 163.972,-67.92 147.57,-98.603 125.499,-125.499 98.603,-147.57 67.92,-163.972 34.624,-174.071 v -177.482 l -34.624,-174.071 -67.92,-163.972 -98.603,-147.57 -125.499,-125.499 -147.57,-98.603 -163.972,-67.92 -149.3,-29.697 -24.77,-4.927 h -177.484 l -24.77,4.927 -149.3,29.697 -163.972,67.92 -147.57,98.603 -125.499,125.499 -98.603,147.57 -67.92,163.972 -34.624,174.071 v 177.482 l 34.624,174.071 67.92,163.972 98.603,147.57 125.499,125.499 147.57,98.603 163.972,67.92 149.3,29.697 24.77,4.927 h 177.484 l 24.77,-4.927"
         id="path181"
         inkscape:connector-curvature="0" />
      <path
         d="m 71233.512,-76573.927 149.3,-29.697 163.972,-67.92 147.57,-98.603 125.499,-125.499 98.603,-147.57 67.92,-163.972 34.624,-174.071 v -177.482 l -34.624,-174.071 -67.92,-163.972 -98.603,-147.57 -125.499,-125.499 -147.57,-98.603 -163.972,-67.92 -149.3,-29.697 -24.77,-4.927 h -177.484 l -24.77,4.927 -149.3,29.697 -163.972,67.92 -147.57,98.603 -125.499,125.499 -98.603,147.57 -67.92,163.972 -34.624,174.071 v 177.482 l 34.624,174.071 67.92,163.972 98.603,147.57 125.499,125.499 147.57,98.603 163.972,67.92 149.3,29.697 24.77,4.927 h 177.484 l 24.77,-4.927"
         id="path183"
         inkscape:connector-curvature="0" />
      <path
         d="m 68693.512,-76573.927 149.3,-29.697 163.972,-67.92 147.57,-98.603 125.499,-125.499 98.603,-147.57 67.92,-163.972 34.624,-174.071 v -177.482 l -34.624,-174.071 -67.92,-163.972 -98.603,-147.57 -125.499,-125.499 -147.57,-98.603 -163.972,-67.92 -149.3,-29.697 -24.77,-4.927 h -177.484 l -24.77,4.927 -149.3,29.697 -163.972,67.92 -147.57,98.603 -125.499,125.499 -98.603,147.57 -67.92,163.972 -34.624,174.071 v 177.482 l 34.624,174.071 67.92,163.972 98.603,147.57 125.499,125.499 147.57,98.603 163.972,67.92 149.3,29.697 24.77,4.927 h 177.484 l 24.77,-4.927"
         id="path185"
         inkscape:connector-curvature="0" />
      <path
         d="M 80719,-70701 H 67617 v 1702 h 13102 v -1702"
         id="path187"
         inkscape:connector-curvature="0" />
      <path
         d="M 96721,-70701 H 83619 v 1702 h 13102 v -1702"
         id="path189"
         inkscape:connector-curvature="0" />
      <path
         d="M 96721,-68161 H 83619 v 1702 h 13102 v -1702"
         id="path191"
         inkscape:connector-curvature="0" />
      <path
         d="M 96721,-65621 H 83619 v 1702 h 13102 v -1702"
         id="path193"
         inkscape:connector-curvature="0" />
      <path
         d="M 80719,-65621 H 67617 v 1702 h 13102 v -1702"
         id="path195"
         inkscape:connector-curvature="0" />
      <path
         d="M 80719,-63081 H 67617 v 1702 h 13102 v -1702"
         id="path197"
         inkscape:connector-curvature="0" />
      <path
         d="M 96721,-60541 H 83619 v 1702 h 13102 v -1702"
         id="path199"
         inkscape:connector-curvature="0" />
      <path
         d="M 80719,-60541 H 67617 v 1702 h 13102 v -1702"
         id="path201"
         inkscape:connector-curvature="0" />
    </g>
    <g
       id="eVFSkVl1_-71bN0rO4Zg_top_drill1"
       transform="scale(25.4)">
      <use
         xlink:href="#KdB6Ayrr0znscObpQysC_pad-1"
         x="2850"
         y="-2350"
         id="use204"
         width="100%"
         height="100%" />
      <use
         xlink:href="#KdB6Ayrr0znscObpQysC_pad-1"
         x="2850"
         y="-2450"
         id="use206"
         width="100%"
         height="100%" />
      <use
         xlink:href="#KdB6Ayrr0znscObpQysC_pad-1"
         x="2850"
         y="-2550"
         id="use208"
         width="100%"
         height="100%" />
      <use
         xlink:href="#KdB6Ayrr0znscObpQysC_pad-1"
         x="2850"
         y="-2750"
         id="use210"
         width="100%"
         height="100%" />
      <use
         xlink:href="#KdB6Ayrr0znscObpQysC_pad-1"
         x="3050"
         y="-2980"
         id="use212"
         width="100%"
         height="100%" />
      <use
         xlink:href="#KdB6Ayrr0znscObpQysC_pad-1"
         x="3600"
         y="-2350"
         id="use214"
         width="100%"
         height="100%" />
      <use
         xlink:href="#KdB6Ayrr0znscObpQysC_pad-1"
         x="3600"
         y="-2550"
         id="use216"
         width="100%"
         height="100%" />
      <use
         xlink:href="#KdB6Ayrr0znscObpQysC_pad-1"
         x="3600"
         y="-2650"
         id="use218"
         width="100%"
         height="100%" />
      <use
         xlink:href="#KdB6Ayrr0znscObpQysC_pad-2"
         x="3090"
         y="-3540"
         id="use220"
         width="100%"
         height="100%" />
      <use
         xlink:href="#KdB6Ayrr0znscObpQysC_pad-2"
         x="3090"
         y="-3640"
         id="use222"
         width="100%"
         height="100%" />
      <use
         xlink:href="#KdB6Ayrr0znscObpQysC_pad-2"
         x="3090"
         y="-3740"
         id="use224"
         width="100%"
         height="100%" />
      <use
         xlink:href="#KdB6Ayrr0znscObpQysC_pad-2"
         x="3390"
         y="-3540"
         id="use226"
         width="100%"
         height="100%" />
      <use
         xlink:href="#KdB6Ayrr0znscObpQysC_pad-2"
         x="3390"
         y="-3640"
         id="use228"
         width="100%"
         height="100%" />
      <use
         xlink:href="#KdB6Ayrr0znscObpQysC_pad-2"
         x="3390"
         y="-3740"
         id="use230"
         width="100%"
         height="100%" />
      <use
         xlink:href="#KdB6Ayrr0znscObpQysC_pad-3"
         x="2700"
         y="-3690"
         id="use232"
         width="100%"
         height="100%" />
      <use
         xlink:href="#KdB6Ayrr0znscObpQysC_pad-3"
         x="2800"
         y="-3690"
         id="use234"
         width="100%"
         height="100%" />
      <use
         xlink:href="#KdB6Ayrr0znscObpQysC_pad-3"
         x="2700"
         y="-3050"
         id="use236"
         width="100%"
         height="100%" />
      <use
         xlink:href="#KdB6Ayrr0znscObpQysC_pad-3"
         x="2700"
         y="-3150"
         id="use238"
         width="100%"
         height="100%" />
      <use
         xlink:href="#KdB6Ayrr0znscObpQysC_pad-3"
         x="2700"
         y="-3250"
         id="use240"
         width="100%"
         height="100%" />
      <use
         xlink:href="#KdB6Ayrr0znscObpQysC_pad-3"
         x="2700"
         y="-3350"
         id="use242"
         width="100%"
         height="100%" />
      <use
         xlink:href="#KdB6Ayrr0znscObpQysC_pad-3"
         x="2700"
         y="-3450"
         id="use244"
         width="100%"
         height="100%" />
      <use
         xlink:href="#KdB6Ayrr0znscObpQysC_pad-3"
         x="2800"
         y="-3050"
         id="use246"
         width="100%"
         height="100%" />
      <use
         xlink:href="#KdB6Ayrr0znscObpQysC_pad-3"
         x="2800"
         y="-3150"
         id="use248"
         width="100%"
         height="100%" />
      <use
         xlink:href="#KdB6Ayrr0znscObpQysC_pad-3"
         x="2800"
         y="-3250"
         id="use250"
         width="100%"
         height="100%" />
      <use
         xlink:href="#KdB6Ayrr0znscObpQysC_pad-3"
         x="2800"
         y="-3350"
         id="use252"
         width="100%"
         height="100%" />
      <use
         xlink:href="#KdB6Ayrr0znscObpQysC_pad-3"
         x="2800"
         y="-3450"
         id="use254"
         width="100%"
         height="100%" />
      <use
         xlink:href="#KdB6Ayrr0znscObpQysC_pad-3"
         x="3180"
         y="-3210"
         id="use256"
         width="100%"
         height="100%" />
      <use
         xlink:href="#KdB6Ayrr0znscObpQysC_pad-3"
         x="3280"
         y="-3210"
         id="use258"
         width="100%"
         height="100%" />
      <use
         xlink:href="#KdB6Ayrr0znscObpQysC_pad-3"
         x="3380"
         y="-3210"
         id="use260"
         width="100%"
         height="100%" />
      <use
         xlink:href="#KdB6Ayrr0znscObpQysC_pad-3"
         x="3480"
         y="-3210"
         id="use262"
         width="100%"
         height="100%" />
      <use
         xlink:href="#KdB6Ayrr0znscObpQysC_pad-3"
         x="3580"
         y="-3210"
         id="use264"
         width="100%"
         height="100%" />
      <use
         xlink:href="#KdB6Ayrr0znscObpQysC_pad-3"
         x="3680"
         y="-3210"
         id="use266"
         width="100%"
         height="100%" />
      <use
         xlink:href="#KdB6Ayrr0znscObpQysC_pad-3"
         x="3740"
         y="-3640"
         id="use268"
         width="100%"
         height="100%" />
      <use
         xlink:href="#KdB6Ayrr0znscObpQysC_pad-3"
         x="3740"
         y="-3740"
         id="use270"
         width="100%"
         height="100%" />
    </g>
    <clipPath
       id="eVFSkVl1_-71bN0rO4Zg_top_outline">
      <path
         d="M 81280,-58674 H 66548 v -39370 h 31242 v 39370 H 83058 v -12446 h 5080 v -3048 H 76200 v 3048 h 5080 v 12446"
         id="path273"
         inkscape:connector-curvature="0"
         style="fill:none;stroke-width:50" />
    </clipPath>
    <mask
       id="eVFSkVl1_-71bN0rO4Zg_top_mech-mask">
      <g
         id="g280"
         style="fill:#000000;stroke:#000000">
        <rect
           x="66548"
           y="-98044"
           width="31242"
           height="39370"
           id="rect276"
           style="fill:#ffffff" />
        <use
           xlink:href="#eVFSkVl1_-71bN0rO4Zg_top_drill1"
           id="use278"
           x="0"
           y="0"
           width="100%"
           height="100%" />
      </g>
    </mask>
    <mask
       id="eVFSkVl1_-71bN0rO4Zg_top_cf-mask">
      <g
         id="g285"
         style="fill:#ffffff;stroke:#ffffff">
        <use
           xlink:href="#eVFSkVl1_-71bN0rO4Zg_top_soldermask"
           id="use283"
           x="0"
           y="0"
           width="100%"
           height="100%" />
      </g>
    </mask>
    <mask
       id="eVFSkVl1_-71bN0rO4Zg_top_sm-mask">
      <g
         id="g292"
         style="fill:#000000;stroke:#000000">
        <rect
           x="66548"
           y="-98044"
           width="31242"
           height="39370"
           id="rect288"
           style="fill:#ffffff" />
        <use
           xlink:href="#eVFSkVl1_-71bN0rO4Zg_top_soldermask"
           id="use290"
           x="0"
           y="0"
           width="100%"
           height="100%" />
      </g>
    </mask>
  </defs>
  <g
     transform="matrix(4,0,0,-4,-196998.17,-330094.17)"
     id="g313"
     style="stroke-width:0">
    <g
       mask="url(#eVFSkVl1_-71bN0rO4Zg_top_mech-mask)"
       clip-path="url(#eVFSkVl1_-71bN0rO4Zg_top_outline)"
       id="g311"
       style="stroke-width:0">
      <rect
         x="66548"
         y="-98044"
         width="31242"
         height="39370"
         class="eVFSkVl1_-71bN0rO4Zg_fr4"
         id="rect297"
         style="color:#666666;fill:currentColor;stroke-width:0" />
      <use
         xlink:href="#eVFSkVl1_-71bN0rO4Zg_top_copper"
         class="eVFSkVl1_-71bN0rO4Zg_cu"
         id="use299"
         style="color:#cccccc;fill:currentColor;stroke:currentColor;stroke-width:0"
         x="0"
         y="0"
         width="100%"
         height="100%" />
      <use
         xlink:href="#eVFSkVl1_-71bN0rO4Zg_top_copper"
         class="eVFSkVl1_-71bN0rO4Zg_cf"
         mask="url(#eVFSkVl1_-71bN0rO4Zg_top_cf-mask)"
         id="use301"
         style="color:#cc9933;fill:currentColor;stroke:currentColor;stroke-width:0"
         x="0"
         y="0"
         width="100%"
         height="100%" />
      <g
         mask="url(#eVFSkVl1_-71bN0rO4Zg_top_sm-mask)"
         id="g307"
         style="stroke-width:0">
        <rect
           x="66548"
           y="-98044"
           width="31242"
           height="39370"
           class="eVFSkVl1_-71bN0rO4Zg_sm"
           id="rect303"
           style="color:#004200;opacity:0.75;fill:currentColor;stroke-width:0" />
        <use
           xlink:href="#eVFSkVl1_-71bN0rO4Zg_top_silkscreen"
           class="eVFSkVl1_-71bN0rO4Zg_ss"
           id="use305"
           style="color:#ffffff;fill:currentColor;stroke:currentColor;stroke-width:0"
           x="0"
           y="0"
           width="100%"
           height="100%" />
      </g>
      <use
         xlink:href="#eVFSkVl1_-71bN0rO4Zg_top_solderpaste"
         class="eVFSkVl1_-71bN0rO4Zg_sp"
         id="use309"
         style="color:#999999;fill:currentColor;stroke:currentColor;stroke-width:0"
         x="0"
         y="0"
         width="100%"
         height="100%" />
    </g>
  </g>
</svg>
